SplineFontDB: 3.0
FontName: Copse
FullName: Copse
FamilyName: Copse
Weight: Book
Copyright: "Copyright (c) 2010, Daniel Rhatigan\n(sparky@ultrasparky.org) with Reserved Font Name Copse"
Version: 1.000
ItalicAngle: 0
UnderlinePosition: -205
UnderlineWidth: 102
Ascent: 1638
Descent: 410
LayerCount: 2
Layer: 0 1 "Back"  1
Layer: 1 1 "Fore"  0
NeedsXUIDChange: 1
XUID: [1021 298 1767659720 2488145]
FSType: 0
OS2Version: 3
OS2_WeightWidthSlopeOnly: 0
OS2_UseTypoMetrics: 1
CreationTime: 1291723200
ModificationTime: 1292278911
PfmFamily: 17
TTFWeight: 400
TTFWidth: 5
LineGap: 57
VLineGap: 0
Panose: 2 0 5 3 8 0 0 2 0 4
OS2TypoAscent: -55
OS2TypoAOffset: 1
OS2TypoDescent: -29
OS2TypoDOffset: 1
OS2TypoLinegap: 113
OS2WinAscent: 0
OS2WinAOffset: 1
OS2WinDescent: 0
OS2WinDOffset: 1
HheadAscent: 0
HheadAOffset: 1
HheadDescent: 0
HheadDOffset: 1
OS2SubXSize: 1475
OS2SubYSize: 1229
OS2SubXOff: 0
OS2SubYOff: 0
OS2SupXSize: 1475
OS2SupYSize: 1229
OS2SupXOff: 0
OS2SupYOff: 731
OS2StrikeYSize: 102
OS2StrikeYPos: 512
OS2Vendor: '    '
OS2CodePages: 00000001.00000000
OS2UnicodeRanges: 80000003.00000000.00000000.00000000
Lookup: 258 0 0 "'kern' Horizontal Kerning in Latin lookup 0"  {"'kern' Horizontal Kerning in Latin lookup 0 subtable"  } ['kern' ('DFLT' <'dflt' > 'latn' <'dflt' > ) ]
DEI: 91125
TtTable: prep
PUSHW_1
 511
SCANCTRL
PUSHB_1
 4
SCANTYPE
EndTTInstrs
TtTable: fpgm
PUSHW_1
 0
FDEF
MPPEM
PUSHW_1
 9
LT
IF
PUSHB_2
 1
 1
INSTCTRL
EIF
PUSHW_1
 511
SCANCTRL
PUSHW_1
 68
SCVTCI
PUSHW_2
 9
 3
SDS
SDB
ENDF
PUSHW_1
 1
FDEF
DUP
DUP
RCVT
ROUND[Black]
WCVTP
PUSHB_1
 1
ADD
ENDF
PUSHW_1
 2
FDEF
PUSHW_1
 1
LOOPCALL
POP
ENDF
PUSHW_1
 3
FDEF
DUP
GC[cur]
PUSHB_1
 3
CINDEX
GC[cur]
GT
IF
SWAP
EIF
DUP
ROLL
DUP
ROLL
MD[grid]
ABS
ROLL
DUP
GC[cur]
DUP
ROUND[Grey]
SUB
ABS
PUSHB_1
 4
CINDEX
GC[cur]
DUP
ROUND[Grey]
SUB
ABS
GT
IF
SWAP
NEG
ROLL
EIF
MDAP[rnd]
DUP
PUSHB_1
 0
GTEQ
IF
ROUND[Black]
DUP
PUSHB_1
 0
EQ
IF
POP
PUSHB_1
 64
EIF
ELSE
ROUND[Black]
DUP
PUSHB_1
 0
EQ
IF
POP
PUSHB_1
 64
NEG
EIF
EIF

StartChar: .notdef
Encoding: 65536 -1 0
Width: 1333
Flags: HW
HStem: 0 115<186 1147> 1294 115<186 1147>
VStem: 72 114<115 1294> 1147 115<115 1294>
LayerCount: 2
Fore
SplineSet
72 1409 m 1,0,-1
 1262 1409 l 1,1,-1
 1262 0 l 1,2,-1
 72 0 l 1,3,-1
 72 1409 l 1,0,-1
1147 115 m 1,4,-1
 1147 1294 l 1,5,-1
 186 1294 l 1,6,-1
 186 115 l 1,7,-1
 1147 115 l 1,4,-1
EndSplineSet
EndChar

StartChar: exclam
Encoding: 33 33 4
Width: 596
Flags: HW
HStem: -20 279<202.707 394.684> 1505 20G<231.75 365.25>
VStem: 163 275<20.7123 218.807 1220.64 1517.73> 213 169<396.683 735.923>
LayerCount: 2
Fore
SplineSet
173 64 m 0,0,1
 163 90 163 90 163 136 c 0,2,3
 163 182 163 182 201.5 220 c 128,-1,4
 240 258 240 258 296 259 c 257,5,6
 354 258 354 258 396 218.5 c 128,-1,7
 438 179 438 179 438 118.5 c 0,8,9
 438 58 438 58 396 19.5 c 128,-1,10
 354 -19 354 -19 296 -20 c 257,11,12
 206 -20 206 -20 173 64 c 0,0,1
299 391 m 0,13,14
 213 391 213 391 213 435 c 1,15,-1
 165 1494 l 1,16,17
 165 1525 165 1525 298.5 1525 c 128,-1,18
 432 1525 432 1525 432 1492 c 1,19,-1
 382 432 l 1,20,21
 382 405 382 405 327 394 c 0,22,23
 312 391 312 391 299 391 c 0,13,14
EndSplineSet
EndChar

StartChar: quotedbl
Encoding: 34 34 5
Width: 760
Flags: HW
HStem: 1110 473<119.035 264.891 494.109 640.416>
VStem: 67 233<1425.38 1574.91> 459 233<1425.38 1573.8>
LayerCount: 2
Fore
SplineSet
459 1538 m 1,0,1
 461 1589 461 1589 604 1582 c 1,2,3
 692 1573 692 1573 692 1534 c 1,4,-1
 640 1140 l 2,5,6
 636 1110 636 1110 563 1110 c 256,7,8
 497 1110 497 1110 494 1140 c 2,9,-1
 459 1538 l 1,0,1
67 1534 m 1,10,11
 67 1583 67 1583 191 1583 c 0,12,13
 253 1583 253 1583 276.5 1566.5 c 128,-1,14
 300 1550 300 1550 300 1538 c 1,15,-1
 265 1140 l 2,16,17
 262 1110 262 1110 196 1110 c 256,18,19
 154 1110 154 1110 137 1121 c 128,-1,20
 120 1132 120 1132 119 1140 c 2,21,-1
 67 1534 l 1,10,11
EndSplineSet
EndChar

StartChar: numbersign
Encoding: 35 35 6
Width: 1190
Flags: HW
HStem: 442 154<64.042 263 430 694 861 1042.83> 906 154<159.468 331 497 762 928 1123.98> 1505 20G<483 524 915 956>
LayerCount: 2
Fore
SplineSet
1129 981 m 1,0,1
 1121 906 1121 906 1090 906 c 2,2,-1
 906 906 l 1,3,-1
 861 596 l 1,4,-1
 1009 596 l 2,5,6
 1036 596 1036 596 1046 546 c 0,7,8
 1048 534 1048 534 1048 517 c 0,9,10
 1048 500 1048 500 1038 471 c 128,-1,11
 1028 442 1028 442 1009 442 c 2,12,-1
 839 442 l 1,13,-1
 776 0 l 2,14,15
 774 -17 774 -17 742.5 -18.5 c 128,-1,16
 711 -20 711 -20 701 -20 c 2,17,-1
 679 -20 l 2,18,19
 630 -20 630 -20 629 0 c 1,20,-1
 694 442 l 1,21,-1
 408 442 l 1,22,-1
 345 0 l 2,23,24
 343 -17 343 -17 311.5 -18.5 c 128,-1,25
 280 -20 280 -20 270 -20 c 2,26,-1
 248 -20 l 2,27,28
 198 -20 198 -20 198 0 c 1,29,-1
 263 442 l 1,30,-1
 101 442 l 2,31,32
 72 442 72 442 62 494 c 0,33,34
 60 506 60 506 60 527 c 0,35,36
 60 548 60 548 71 572 c 128,-1,37
 82 596 82 596 101 596 c 2,38,-1
 285 596 l 1,39,-1
 331 906 l 1,40,-1
 185 906 l 2,41,42
 156 906 156 906 146 958 c 0,43,44
 144 971 144 971 144 982 c 256,45,46
 144 1028 144 1028 159 1044 c 128,-1,47
 174 1060 174 1060 185 1060 c 2,48,-1
 353 1060 l 1,49,-1
 419 1505 l 2,50,51
 422 1523 422 1523 450 1524 c 128,-1,52
 478 1525 478 1525 488 1525 c 0,53,54
 560 1525 560 1525 561 1505 c 1,55,-1
 497 1060 l 1,56,-1
 784 1060 l 1,57,-1
 850 1505 l 2,58,59
 853 1523 853 1523 881.5 1524 c 0,60,61
 910 1525 910 1525 920 1525 c 0,62,63
 992 1525 992 1525 992 1505 c 1,64,-1
 928 1060 l 1,65,-1
 1090 1060 l 2,66,67
 1116 1060 1116 1060 1126 1009 c 0,68,69
 1129 992 1129 992 1129 981 c 1,0,1
430 596 m 1,70,-1
 716 596 l 1,71,-1
 762 906 l 1,72,-1
 475 906 l 1,73,-1
 430 596 l 1,70,-1
EndSplineSet
EndChar

StartChar: dollar
Encoding: 36 36 7
Width: 1130
Flags: HW
HStem: 21 154<358.164 490 632 734.028> 106.5 349.5<135.649 289.844> 1043 359<809.969 965.25> 1327 154<391.803 490 632 763.675>
VStem: 65 307<223.219 409.073> 100 211<1021.31 1255.05> 490 142<-168.66 24.7422 184 619 919 1318 1477.26 1634.66> 737 307<1089.41 1289.19> 846 211<275.091 512.386>
LayerCount: 2
Fore
SplineSet
490 1608 m 2,0,1
 490 1636 490 1636 561 1636 c 128,-1,2
 632 1636 632 1636 632 1608 c 2,3,-1
 632 1481 l 1,4,5
 785 1472 785 1472 904 1402 c 0,6,7
 1044 1321 1044 1321 1044 1197 c 0,8,9
 1044 1133 1044 1133 1000.5 1088 c 128,-1,10
 957 1043 957 1043 891 1043 c 256,11,12
 826 1043 826 1043 781.5 1087.5 c 128,-1,13
 737 1132 737 1132 737 1182.5 c 128,-1,14
 737 1233 737 1233 766 1291 c 1,15,16
 711 1323 711 1323 632 1327 c 1,17,-1
 632 850 l 1,18,19
 836 756 836 756 908.5 699 c 128,-1,20
 981 642 981 642 1019 580 c 128,-1,21
 1057 518 1057 518 1057 432 c 0,22,23
 1057 265 1057 265 940.5 157 c 128,-1,24
 824 49 824 49 632 26 c 1,25,-1
 632 -142 l 2,26,27
 632 -170 632 -170 561 -170 c 128,-1,28
 490 -170 490 -170 490 -142 c 2,29,-1
 490 21 l 1,30,31
 327 32 327 32 196 106.5 c 128,-1,32
 65 181 65 181 65 300 c 0,33,34
 65 366 65 366 110 411 c 128,-1,35
 155 456 155 456 219 456 c 256,36,37
 284 456 284 456 328 410.5 c 128,-1,38
 372 365 372 365 372 300 c 0,39,40
 372 292 372 292 370 282 c 2,41,-1
 364 261 l 2,42,43
 361 250 361 250 357.5 240 c 128,-1,44
 354 230 354 230 352 223 c 1,45,46
 410 180 410 180 490 175 c 1,47,-1
 490 681 l 1,48,49
 305 761 305 761 236.5 822.5 c 128,-1,50
 168 884 168 884 134 949 c 128,-1,51
 100 1014 100 1014 100 1100 c 0,52,53
 100 1263 100 1263 208.5 1357.5 c 128,-1,54
 317 1452 317 1452 490 1475 c 1,55,-1
 490 1608 l 2,0,1
830 321 m 0,56,57
 846 358 846 358 846 400 c 0,58,59
 846 474 846 474 791.5 522 c 128,-1,60
 737 570 737 570 632 619 c 1,61,-1
 632 184 l 1,62,63
 785 213 785 213 830 321 c 0,56,57
490 1318 m 1,64,65
 311 1286 311 1286 311 1135 c 0,66,67
 311 1015 311 1015 490 919 c 1,68,-1
 490 1318 l 1,64,65
EndSplineSet
EndChar

StartChar: percent
Encoding: 37 37 8
Width: 1281
Flags: HW
HStem: -20 112<827.085 1007.56> 494 108<819.643 1000.12> 883 109<280.585 459.335> 1394 111<273.143 451.857>
VStem: 81.5 156.5<1033.74 1358.71> 495 159<1028.71 1350.77> 627.5 157.5<133.947 455.709> 1042 158<125.945 450.876>
LayerCount: 2
Fore
SplineSet
912 92 m 256,0,1
 1042 92 1042 92 1042 281 c 0,2,3
 1042 429 1042 429 971 477 c 0,4,5
 946 494 946 494 912 494 c 256,6,7
 785 494 785 494 785 305 c 0,8,9
 785 158 785 158 854 109 c 0,10,11
 878 92 878 92 912 92 c 256,0,1
152.5 969 m 128,-1,13
 82 1055 82 1055 81.5 1188.5 c 128,-1,14
 81 1322 81 1322 166.5 1413.5 c 128,-1,15
 252 1505 252 1505 386 1505 c 256,16,17
 515 1505 515 1505 584.5 1418.5 c 128,-1,18
 654 1332 654 1332 654 1199 c 128,-1,19
 654 1066 654 1066 568.5 974.5 c 128,-1,20
 483 883 483 883 353 883 c 128,-1,12
 223 883 223 883 152.5 969 c 128,-1,13
698.5 66 m 128,-1,22
 628 152 628 152 627.5 285.5 c 128,-1,23
 627 419 627 419 712.5 510.5 c 128,-1,24
 798 602 798 602 932 602 c 256,25,26
 1061 602 1061 602 1130.5 515.5 c 128,-1,27
 1200 429 1200 429 1200 296 c 128,-1,28
 1200 163 1200 163 1114.5 71.5 c 128,-1,29
 1029 -20 1029 -20 899 -20 c 128,-1,21
 769 -20 769 -20 698.5 66 c 128,-1,22
1059 1505 m 2,30,31
 1079 1537 1079 1537 1148 1537 c 128,-1,32
 1217 1537 1217 1537 1217 1505 c 1,33,-1
 233 0 l 1,34,35
 211 -30 211 -30 139 -30 c 128,-1,36
 67 -30 67 -30 67 0 c 1,37,-1
 1059 1505 l 2,30,31
365 992 m 256,38,39
 495 992 495 992 495 1181 c 0,40,41
 495 1329 495 1329 424 1377 c 0,42,43
 399 1394 399 1394 365 1394 c 256,44,45
 238 1394 238 1394 238 1205 c 0,46,47
 238 1058 238 1058 307 1009 c 0,48,49
 331 992 331 992 365 992 c 256,38,39
EndSplineSet
EndChar

StartChar: ampersand
Encoding: 38 38 9
Width: 1354
Flags: HW
HStem: -20 154<398.169 715.455> 0 141<1084.24 1247.05> 666 141<878.042 1052 1220.3 1321.44> 1371 153.5<450.827 583 586 699.951>
VStem: 74 233.5<235.667 572.816> 197.5 201.5<1056.75 1321.46> 753 205<1010.07 1320.17> 874 449<666.017 807> 1052 175<511.625 665.996>
LayerCount: 2
Fore
SplineSet
1298 807 m 2,0,1
 1323 807 1323 807 1323 736.5 c 128,-1,2
 1323 666 1323 666 1288 666 c 2,3,-1
 1227 666 l 1,4,5
 1205 481 1205 481 1025 263 c 1,6,-1
 1046 230 l 2,7,8
 1077 181 1077 181 1122.5 161 c 128,-1,9
 1168 141 1168 141 1238 141 c 0,10,11
 1262 141 1262 141 1262 85 c 128,-1,12
 1262 29 1262 29 1247.5 14.5 c 128,-1,13
 1233 0 1233 0 1223 0 c 2,14,-1
 1053 0 l 2,15,16
 977 0 977 0 885 103 c 1,17,18
 714 -20 714 -20 515 -20 c 128,-1,19
 316 -20 316 -20 195 90 c 128,-1,20
 74 200 74 200 74 376 c 0,21,22
 74 501 74 501 130 597 c 128,-1,23
 186 693 186 693 330 837 c 1,24,-1
 286 909 l 1,25,26
 197 1060 197 1060 197.5 1198 c 128,-1,27
 198 1336 198 1336 302 1430.5 c 128,-1,28
 406 1525 406 1525 595.5 1524.5 c 128,-1,29
 785 1524 785 1524 883 1414 c 0,30,31
 958 1329 958 1329 958 1207 c 128,-1,32
 958 1085 958 1085 897 979.5 c 128,-1,33
 836 874 836 874 680 714 c 1,34,-1
 935 376 l 1,35,36
 1052 545 1052 545 1052 650 c 0,37,38
 1052 666 1052 666 1039 666 c 2,39,-1
 915 666 l 2,40,41
 886 666 886 666 876 720 c 0,42,43
 874 734 874 734 874 748 c 0,44,45
 874 807 874 807 900 807 c 2,46,-1
 1298 807 l 2,0,1
424 712 m 1,47,48
 307 595 307 595 307.5 440.5 c 128,-1,49
 308 286 308 286 368.5 210 c 128,-1,50
 429 134 429 134 512 134 c 0,51,52
 673 134 673 134 793 225 c 1,53,-1
 424 712 l 1,47,48
588 840 m 1,54,55
 753 986 753 986 753 1187 c 1,56,57
 752 1312 752 1312 660 1356 c 0,58,59
 630 1370 630 1370 586 1370 c 1,60,-1
 583 1371 l 1,61,62
 499 1371 499 1371 449 1327 c 128,-1,63
 399 1283 399 1283 399 1228 c 0,64,65
 399 1136 399 1136 448.5 1045 c 128,-1,66
 498 954 498 954 588 840 c 1,54,55
EndSplineSet
EndChar

StartChar: quotesingle
Encoding: 39 39 10
Width: 379
Flags: HW
HStem: 1110 473<116.075 262.891>
VStem: 73 233<1405.63 1567.53>
LayerCount: 2
Fore
SplineSet
73 1534 m 1,0,1
 73 1583 73 1583 189 1583 c 0,2,3
 260 1583 260 1583 283 1568 c 128,-1,4
 306 1553 306 1553 306 1538 c 1,5,-1
 263 1140 l 2,6,7
 260 1110 260 1110 194 1110 c 256,8,9
 120 1110 120 1110 117 1140 c 2,10,-1
 73 1534 l 1,0,1
EndSplineSet
EndChar

StartChar: parenleft
Encoding: 40 40 11
Width: 636
Flags: HW
VStem: 92 212<361.961 1094.15>
LayerCount: 2
Fore
SplineSet
560 1614 m 1,0,1
 304 1175.85 304 1175.85 304 786.5 c 2,2,-1
 304 666 l 2,3,4
 304 483 304 483 360.5 280.5 c 128,-1,5
 417 78 417 78 560 -166 c 1,6,7
 560 -211 560 -211 513 -233 c 0,8,9
 500 -239 500 -239 480.5 -239 c 128,-1,10
 461 -239 461 -239 439 -227 c 1,11,12
 200 30 200 30 120 436 c 0,13,14
 92 576 92 576 92 727 c 256,15,16
 92 1014 92 1014 188 1260 c 128,-1,17
 284 1506 284 1506 439 1675 c 1,18,19
 449 1684 449 1684 481.5 1684 c 128,-1,20
 514 1684 514 1684 537 1662.5 c 128,-1,21
 560 1641 560 1641 560 1614 c 1,0,1
EndSplineSet
EndChar

StartChar: parenright
Encoding: 41 41 12
Width: 637
Flags: HW
VStem: 332 212<352.867 1091.06>
LayerCount: 2
Fore
SplineSet
76 -166 m 1,0,1
 332 268.462 332 268.462 332 673.5 c 2,2,-1
 332 794 l 2,3,4
 332 976 332 976 276 1173 c 128,-1,5
 220 1370 220 1370 76 1614 c 1,6,7
 76 1641 76 1641 99 1662.5 c 128,-1,8
 122 1684 122 1684 154.5 1684 c 128,-1,9
 187 1684 187 1684 197 1675 c 1,10,11
 438 1414 438 1414 516 1018 c 0,12,13
 544 880 544 880 544 727 c 256,14,15
 544 294 544 294 331 -50 c 0,16,17
 268 -152 268 -152 197 -227 c 1,18,19
 176 -239 176 -239 149 -239 c 128,-1,20
 122 -239 122 -239 99 -218 c 128,-1,21
 76 -197 76 -197 76 -166 c 1,0,1
EndSplineSet
EndChar

StartChar: asterisk
Encoding: 42 42 13
Width: 676
Flags: HW
HStem: 1324 153<82.4729 129 544 590.996>
VStem: 259 160<1454.31 1596.67>
LayerCount: 2
Fore
SplineSet
124 1479 m 1,0,-1
 129 1478 l 1,1,-1
 276 1411 l 1,2,-1
 259 1569 l 1,3,4
 259 1590 259 1590 311 1598 c 0,5,6
 324 1600 324 1600 348 1600 c 0,7,8
 372 1600 372 1600 390 1594 c 1,9,10
 420 1586 420 1586 419 1569 c 1,11,-1
 399 1409 l 1,12,-1
 544 1476 l 2,13,14
 546 1477 546 1477 554 1477 c 0,15,16
 572 1477 572 1477 591 1432 c 128,-1,17
 610 1387 610 1387 610 1358.5 c 128,-1,18
 610 1330 610 1330 596 1324 c 1,19,-1
 435 1291 l 1,20,-1
 549 1175 l 1,21,22
 552 1170 552 1170 552 1154 c 0,23,24
 552 1138 552 1138 508 1104 c 128,-1,25
 464 1070 464 1070 445.5 1070 c 128,-1,26
 427 1070 427 1070 423 1077 c 2,27,-1
 334 1222 l 1,28,-1
 257 1080 l 1,29,30
 252 1073 252 1073 232.5 1073 c 0,31,32
 213 1073 213 1073 168.5 1105 c 128,-1,33
 124 1137 124 1137 124 1163 c 0,34,35
 124 1168 124 1168 127 1173 c 1,36,-1
 236 1295 l 1,37,-1
 80 1325 l 1,38,39
 66 1329 66 1329 66 1359 c 0,40,41
 66 1389 66 1389 83 1434 c 128,-1,42
 100 1479 100 1479 124 1479 c 1,0,-1
EndSplineSet
EndChar

StartChar: plus
Encoding: 43 43 14
Width: 1042
Flags: HW
HStem: 575 154<63.6963 448 592 966.048>
VStem: 448 144<142.005 575 729 1118>
LayerCount: 2
Fore
SplineSet
942 729 m 2,0,1
 974 729 974 729 981 655 c 257,2,3
 981 610 981 610 966.5 592.5 c 128,-1,4
 952 575 952 575 942 575 c 2,5,-1
 592 575 l 1,6,-1
 592 162 l 2,7,8
 592 141 592 141 520 141 c 128,-1,9
 448 141 448 141 448 162 c 2,10,-1
 448 575 l 1,11,-1
 100 575 l 2,12,13
 72 575 72 575 62 627 c 0,14,15
 59 644 59 644 59 655 c 1,16,17
 67 731 67 731 100 729 c 1,18,-1
 448 729 l 1,19,-1
 448 1098 l 2,20,21
 448 1119 448 1119 520 1119 c 128,-1,22
 592 1119 592 1119 592 1098 c 2,23,-1
 592 729 l 1,24,-1
 942 729 l 2,0,1
EndSplineSet
EndChar

StartChar: comma
Encoding: 44 44 15
Width: 505
Flags: HW
HStem: -270 522
LayerCount: 2
Fore
SplineSet
180 -16 m 1,0,1
 106 23 106 23 106 113 c 0,2,3
 106 172 106 172 148 212 c 128,-1,4
 190 252 190 252 250 252 c 0,5,6
 310 252 310 252 354 212 c 128,-1,7
 398 172 398 172 399 113 c 1,8,9
 399 -63 399 -63 134 -270 c 1,10,11
 105 -270 105 -270 89.5 -254 c 128,-1,12
 74 -238 74 -238 74 -211 c 1,13,14
 180 -92 180 -92 180 -16 c 1,0,1
EndSplineSet
EndChar

StartChar: hyphen
Encoding: 45 45 16
Width: 750
Flags: HW
HStem: 513 176<118.448 623.048>
VStem: 112 526<533.117 689>
LayerCount: 2
Fore
SplineSet
153 689 m 2,0,1
 600 689 l 2,2,3
 626 689 626 689 636 630 c 0,4,5
 638 616 638 616 638 604 c 256,6,7
 638 552 638 552 623.5 532.5 c 128,-1,8
 609 513 609 513 599 513 c 2,9,10
 152 513 l 2,11,12
 124 513 124 513 114 574 c 0,13,14
 112 588 112 588 112 608 c 0,15,16
 112 628 112 628 123 658.5 c 128,-1,17
 134 689 134 689 153 689 c 2,0,1
EndSplineSet
EndChar

StartChar: period
Encoding: 46 46 17
Width: 487
Flags: HW
HStem: -20 274<146.224 340.261>
VStem: 106 275<19.1926 212.745>
LayerCount: 2
Fore
SplineSet
106 115 m 256,0,1
 106 210 106 210 190 244 c 0,2,3
 216 254 216 254 259 254 c 0,4,5
 302 254 302 254 341.5 214 c 128,-1,6
 381 174 381 174 381 115 c 256,7,8
 381 23 381 23 299 -10 c 0,9,10
 274 -20 274 -20 229 -20 c 0,11,12
 184 -20 184 -20 145 18 c 128,-1,13
 106 56 106 56 106 115 c 256,0,1
EndSplineSet
EndChar

StartChar: slash
Encoding: 47 47 18
Width: 913
Flags: HW
LayerCount: 2
Fore
SplineSet
707 1606 m 1,0,1
 756 1638 756 1638 782 1638 c 0,2,3
 872 1638 872 1638 872 1606 c 1,4,-1
 206 -141 l 1,5,6
 166 -170 166 -170 100 -170 c 0,7,8
 34 -170 34 -170 34 -141 c 1,9,-1
 707 1606 l 1,0,1
EndSplineSet
EndChar

StartChar: zero
Encoding: 48 48 19
Width: 1200
Flags: HW
HStem: -20 165<482.286 720.242> 1360 165<473.549 730.438>
VStem: 94 233<386.195 1113.84> 873 233<417.074 1147.33>
LayerCount: 2
Fore
SplineSet
995 1314 m 0,0,1
 1106 1124 1106 1124 1106 767.5 c 128,-1,2
 1106 411 1106 411 963 195.5 c 128,-1,3
 820 -20 820 -20 577 -20 c 128,-1,4
 334 -20 334 -20 204 226 c 1,5,6
 94 432 94 432 94 678.5 c 128,-1,7
 94 925 94 925 129.5 1080.5 c 0,8,9
 233.836 1525 233.836 1525 618 1525 c 0,10,11
 871 1525 871 1525 995 1314 c 0,0,1
602 1360 m 256,12,13
 327 1360 327 1360 327 770 c 2,14,-1
 327 753 l 258,15,16
 327 326 327 326 480 191 c 0,17,18
 532 145 532 145 602 145 c 0,19,20
 734 145 734 145 803 312 c 128,-1,21
 872 479 872 479 873 753 c 257,22,23
 873 1192 873 1192 733 1314 c 0,24,25
 681 1360 681 1360 602 1360 c 256,12,13
EndSplineSet
EndChar

StartChar: one
Encoding: 49 49 20
Width: 1200
Flags: HW
HStem: 0 141<322.25 591.544 807 1075.44> 1505 20G<683.86 761.5>
VStem: 596 211<166.25 1211.99>
LayerCount: 2
Fore
SplineSet
1052 141 m 2,0,1
 1077 141 1077 141 1077 70.5 c 128,-1,2
 1077 0 1077 0 1041 0 c 2,3,-1
 318 0 l 2,4,5
 295 0 295 0 295 52.5 c 128,-1,6
 295 105 295 105 322 133 c 0,7,8
 330 141 330 141 338 141 c 2,9,-1
 487 141 l 2,10,11
 578 141 578 141 592 166 c 0,12,13
 596 174 596 174 596 184 c 2,14,-1
 596 1151 l 2,15,16
 596 1212 596 1212 575 1212 c 0,17,18
 568 1212 568 1212 548 1204 c 2,19,-1
 502 1186 l 2,20,21
 476 1176 476 1176 447 1163 c 0,22,23
 337.692 1114 337.692 1114 312.346 1114 c 128,-1,24
 287 1114 287 1114 264.5 1145.5 c 128,-1,25
 242 1177 242 1177 242 1203.5 c 128,-1,26
 242 1230 242 1230 258 1240 c 2,27,-1
 716 1525 l 1,28,29
 807 1525 807 1525 807 1505 c 2,30,-1
 807 141 l 1,31,-1
 1052 141 l 2,0,1
EndSplineSet
EndChar

StartChar: two
Encoding: 50 50 21
Width: 1200
Flags: HW
HStem: 0 211<338 891> 1009 21G<264.5 330.5> 1371 153.5<405.121 727.726>
VStem: 143 307<1055.41 1278.5> 806 233<994.221 1299.82> 931 134<298.899 363.791>
LayerCount: 2
Fore
SplineSet
297 1009 m 256,0,1
 232 1009 232 1009 187.5 1053.5 c 128,-1,2
 143 1098 143 1098 143 1174 c 128,-1,3
 143 1250 143 1250 183.5 1317 c 128,-1,4
 224 1384 224 1384 288 1430 c 0,5,6
 419 1524 419 1524 606.5 1524.5 c 128,-1,7
 794 1525 794 1525 916.5 1435.5 c 128,-1,8
 1039 1346 1039 1346 1039 1195 c 0,9,10
 1038 961 1038 961 853 783 c 0,11,12
 800 731 800 731 740 682 c 2,13,-1
 620 584 l 2,14,15
 397 402 397 402 338 211 c 1,16,-1
 891 211 l 1,17,-1
 931 348 l 1,18,19
 958 370 958 370 986 370 c 0,20,21
 1041 370 1041 370 1065 319 c 1,22,-1
 1019 0 l 1,23,-1
 173 0 l 1,24,-1
 173 75 l 2,25,26
 173 354 173 354 373 574 c 0,27,28
 430 636 430 636 490 692 c 2,29,-1
 606 802 l 2,30,31
 731 920 731 920 779 1028 c 0,32,33
 806 1089 806 1089 806 1178 c 128,-1,34
 806 1267 806 1267 741 1319 c 128,-1,35
 676 1371 676 1371 556 1371 c 128,-1,36
 436 1371 436 1371 376 1300 c 1,37,38
 408 1284 408 1284 429 1246 c 128,-1,39
 450 1208 450 1208 450 1153.5 c 0,40,41
 450 1099 450 1099 407 1054 c 128,-1,42
 364 1009 364 1009 297 1009 c 256,0,1
EndSplineSet
EndChar

StartChar: three
Encoding: 51 51 22
Width: 1200
Flags: HW
HStem: -20 154<406.685 715.975> 731 93<545 650.082> 1009 21G<266.5 332> 1371 153.5<407.049 714.691>
VStem: 145 305<236.069 450.104 1055.41 1280.17> 808 211<978.652 1279.39> 826 233<246.085 579.411>
LayerCount: 2
Fore
SplineSet
378 205 m 1,0,1
 438 134 438 134 559 134 c 128,-1,2
 680 134 680 134 753 210.5 c 128,-1,3
 826 287 826 287 826 409.5 c 128,-1,4
 826 532 826 532 752 624 c 128,-1,5
 678 716 678 716 545 731 c 1,6,-1
 545 824 l 1,7,8
 718 873 718 873 782 1013 c 0,9,10
 808 1068 808 1068 808 1130 c 0,11,12
 808 1241 808 1241 741.5 1306 c 128,-1,13
 675 1371 675 1371 556.5 1371 c 128,-1,14
 438 1371 438 1371 378 1300 c 1,15,16
 410 1284 410 1284 431 1246 c 128,-1,17
 452 1208 452 1208 452 1153.5 c 0,18,19
 452 1099 452 1099 408.5 1054 c 128,-1,20
 365 1009 365 1009 299 1009 c 256,21,22
 234 1009 234 1009 189.5 1053.5 c 128,-1,23
 145 1098 145 1098 145 1174 c 128,-1,24
 145 1250 145 1250 185.5 1317 c 128,-1,25
 226 1384 226 1384 290 1430 c 0,26,27
 421 1524 421 1524 606 1524.5 c 128,-1,28
 791 1525 791 1525 905 1421.5 c 128,-1,29
 1019 1318 1019 1318 1019 1145.5 c 128,-1,30
 1019 973 1019 973 862 856 c 0,31,32
 818 823 818 823 771 802 c 1,33,34
 896 739 896 739 951 679 c 0,35,36
 1059 560 1059 560 1059 399 c 128,-1,37
 1059 238 1059 238 924 109 c 128,-1,38
 789 -20 789 -20 582 -20 c 0,39,40
 418 -20 418 -20 281.5 79 c 128,-1,41
 145 178 145 178 145 340 c 0,42,43
 145 407 145 407 189.5 451.5 c 128,-1,44
 234 496 234 496 296.5 496 c 128,-1,45
 359 496 359 496 404.5 453.5 c 128,-1,46
 450 411 450 411 450 341 c 128,-1,47
 450 271 450 271 378 205 c 1,0,1
EndSplineSet
EndChar

StartChar: four
Encoding: 52 52 23
Width: 1200
Flags: HW
HStem: 0 141<422.25 691.544 907 1077.44> 416 154<314 696 907 1097.47> 1000 20G<801.5 907> 1505 20G<546.173 642.5>
VStem: 696 211<166.25 416 570 962.625>
LayerCount: 2
Fore
SplineSet
1090 570 m 2,0,1
 1115 570 1115 570 1115 513 c 128,-1,2
 1115 456 1115 456 1098 436 c 128,-1,3
 1081 416 1081 416 1070 416 c 2,4,-1
 907 416 l 1,5,-1
 907 141 l 1,6,-1
 1054 141 l 2,7,8
 1079 141 1079 141 1079 70.5 c 128,-1,9
 1079 0 1079 0 1043 0 c 2,10,-1
 418 0 l 2,11,12
 395 0 395 0 395 52 c 128,-1,13
 395 104 395 104 422 133 c 0,14,15
 430 141 430 141 438 141 c 2,16,-1
 587 141 l 2,17,18
 678 141 678 141 692 166 c 0,19,20
 696 174 696 174 696 184 c 2,21,-1
 696 416 l 1,22,-1
 143 416 l 1,23,24
 102 440 102 440 96 485 c 1,25,-1
 555 1525 l 1,26,27
 730 1525 730 1525 730 1393 c 1,28,-1
 314 570 l 1,29,-1
 696 570 l 1,30,-1
 696 918 l 2,31,32
 696 1020 696 1020 907 1020 c 1,33,-1
 907 570 l 1,34,-1
 1090 570 l 2,0,1
EndSplineSet
EndChar

StartChar: five
Encoding: 53 53 24
Width: 1200
Flags: HW
HStem: -20 154<408.45 720.492> 760 154<399 676.848> 1294 211<399 979.938>
VStem: 145 307<236.738 448.558> 245 154<914 1294> 840 233<255.721 604.476>
LayerCount: 2
Fore
SplineSet
378 205 m 1,0,1
 438 134 438 134 562 134 c 128,-1,2
 686 134 686 134 763 213 c 128,-1,3
 840 292 840 292 840 436 c 128,-1,4
 840 580 840 580 744 670 c 128,-1,5
 648 760 648 760 489 760 c 2,6,-1
 245 760 l 1,7,-1
 245 1505 l 1,8,-1
 1003 1505 l 1,9,10
 1003 1395 1003 1395 991 1362 c 0,11,12
 966 1294 966 1294 893 1294 c 2,13,-1
 399 1294 l 1,14,-1
 399 914 l 1,15,-1
 553 914 l 2,16,17
 801 914 801 914 937 775 c 128,-1,18
 1073 636 1073 636 1073 433 c 128,-1,19
 1073 230 1073 230 935 106 c 128,-1,20
 797 -18 797 -18 579 -20 c 1,21,22
 417 -20 417 -20 281 79 c 128,-1,23
 145 178 145 178 145 340 c 0,24,25
 145 406 145 406 190 451 c 128,-1,26
 235 496 235 496 299 496 c 256,27,28
 364 496 364 496 408 450 c 128,-1,29
 452 404 452 404 452 338.5 c 128,-1,30
 452 273 452 273 378 205 c 1,0,1
EndSplineSet
EndChar

StartChar: six
Encoding: 54 54 25
Width: 1200
Flags: HW
HStem: -20 154<490.925 756.787> 764.5 154.5<463.656 759.829> 1009 21G<886 950> 1371 154<534.592 810.022>
VStem: 109 233<357.119 651.563 809 1058.21> 765 307<1055.93 1278.95> 882 233<268.543 629.296>
LayerCount: 2
Fore
SplineSet
342 809 m 1,0,1
 448 919 448 919 676 919 c 0,2,3
 756 919 756 919 841 887.5 c 128,-1,4
 926 856 926 856 987 794 c 0,5,6
 1115 665 1115 665 1115 451 c 128,-1,7
 1115 237 1115 237 964 108.5 c 128,-1,8
 813 -20 813 -20 628 -20 c 0,9,10
 109 -20 109 -20 109 710 c 0,11,12
 109 1114 109 1114 291 1334 c 0,13,14
 448 1525 448 1525 658 1525 c 2,15,-1
 660 1525 l 1,16,17
 959 1524 959 1524 1044 1320 c 0,18,19
 1072 1252 1072 1252 1072 1175.5 c 0,20,21
 1072 1099 1072 1099 1027 1054 c 128,-1,22
 982 1009 982 1009 918 1009 c 256,23,24
 854 1009 854 1009 810 1054.5 c 128,-1,25
 766 1100 766 1100 765 1165 c 1,26,27
 765 1262 765 1262 839 1300 c 1,28,29
 779 1371 779 1371 662 1371 c 2,30,-1
 660 1371 l 2,31,32
 534 1371 534 1371 438 1218.5 c 128,-1,33
 342 1066 342 1066 342 809 c 1,0,1
444.5 707 m 128,-1,35
 370 649 370 649 342 577 c 1,36,37
 342 409 342 409 416 271.5 c 128,-1,38
 490 134 490 134 610 134 c 128,-1,39
 730 134 730 134 806 223.5 c 128,-1,40
 882 313 882 313 882 447.5 c 128,-1,41
 882 582 882 582 809 673 c 128,-1,42
 736 764 736 764 627.5 764.5 c 128,-1,34
 519 765 519 765 444.5 707 c 128,-1,35
EndSplineSet
EndChar

StartChar: seven
Encoding: 55 55 26
Width: 1200
Flags: HW
HStem: 1310 195<262 899>
VStem: 91 134<1172.17 1234.04> 375 233<-16.9482 288.46>
LayerCount: 2
Fore
SplineSet
608 0 m 1,0,1
 608 -20 608 -20 491.5 -20 c 128,-1,2
 375 -20 375 -20 375 0 c 1,3,4
 428 556 428 556 706 1014 c 0,5,6
 794 1158 794 1158 899 1310 c 1,7,-1
 262 1310 l 1,8,-1
 225 1186 l 2,9,10
 219 1167 219 1167 181 1167 c 0,11,12
 97 1167 97 1167 91 1215 c 1,13,-1
 129 1505 l 1,14,-1
 1101 1505 l 2,15,16
 1136 1505 1136 1505 1136 1440 c 1,17,-1
 988 1182 l 1,18,19
 850 935 850 935 788.5 778.5 c 128,-1,20
 727 622 727 622 695 508 c 0,21,22
 631 282 631 282 608 0 c 1,0,1
EndSplineSet
EndChar

StartChar: eight
Encoding: 56 56 27
Width: 1200
Flags: HW
HStem: -20 154<446.254 762.507> 1370.5 154.5<443.023 754.386>
VStem: 93 233<252.556 577.114> 164 202<1069.81 1296.39> 847 205<1006.94 1286.41> 880 233<250.546 511.2>
LayerCount: 2
Fore
SplineSet
357 836 m 1,0,1
 270 908 270 908 235 964 c 0,2,3
 164 1076 164 1076 164 1204 c 128,-1,4
 164 1332 164 1332 289.5 1428.5 c 128,-1,5
 415 1525 415 1525 612 1525 c 128,-1,6
 809 1525 809 1525 930.5 1429 c 128,-1,7
 1052 1333 1052 1333 1052 1205 c 0,8,9
 1052 1016 1052 1016 912 858 c 0,10,11
 874 814 874 814 836 778 c 1,12,13
 975 703 975 703 1023.5 646 c 128,-1,14
 1072 589 1072 589 1092.5 533 c 128,-1,15
 1113 477 1113 477 1113 391.5 c 128,-1,16
 1113 306 1113 306 1072.5 228 c 128,-1,17
 1032 150 1032 150 964 95 c 0,18,19
 823 -20 823 -20 625 -20 c 0,20,21
 366 -20 366 -20 229.5 92.5 c 128,-1,22
 93 205 93 205 93 389 c 0,23,24
 93 626 93 626 357 836 c 1,0,1
487 761 m 1,25,26
 326 589 326 589 326 413 c 0,27,28
 326 290 326 290 403 212 c 128,-1,29
 480 134 480 134 605.5 134 c 128,-1,30
 731 134 731 134 805.5 214 c 128,-1,31
 880 294 880 294 880 365 c 128,-1,32
 880 436 880 436 851.5 486 c 128,-1,33
 823 536 823 536 758 593 c 128,-1,34
 693 650 693 650 487 761 c 1,25,26
702 850 m 1,35,36
 847 1037 847 1037 847 1160 c 0,37,38
 847 1254 847 1254 776.5 1312.5 c 128,-1,39
 706 1371 706 1371 599.5 1370.5 c 128,-1,40
 493 1370 493 1370 429.5 1316 c 128,-1,41
 366 1262 366 1262 366 1200 c 0,42,43
 366 1097 366 1097 466 1008 c 0,44,45
 537 944 537 944 702 850 c 1,35,36
EndSplineSet
EndChar

StartChar: nine
Encoding: 57 57 28
Width: 1200
Flags: HW
HStem: -20 154<398.473 694.229> 586 154<442.601 743.612> 1370.5 154.5<450.422 726.072>
VStem: 92 233<872.567 1236.01> 135 307<228.253 449.073> 865 233<396.293 696 853.437 1147.88>
LayerCount: 2
Fore
SplineSet
865 696 m 1,0,1
 768 586 768 586 532 586 c 0,2,3
 452 586 452 586 366.5 618 c 128,-1,4
 281 650 281 650 220 712 c 0,5,6
 92 841 92 841 92 1054.5 c 128,-1,7
 92 1268 92 1268 243 1396.5 c 128,-1,8
 394 1525 394 1525 579 1525 c 0,9,10
 1098 1525 1098 1525 1098 795 c 0,11,12
 1098 174 1098 174 780 26 c 0,13,14
 680 -20 680 -20 579 -20 c 0,15,16
 388 -20 388 -20 261.5 76.5 c 128,-1,17
 135 173 135 173 135 338 c 0,18,19
 135 406 135 406 180 451 c 128,-1,20
 225 496 225 496 289 496 c 256,21,22
 354 496 354 496 398 450.5 c 128,-1,23
 442 405 442 405 442 340 c 0,24,25
 442 243 442 243 368 205 c 1,26,27
 428 134 428 134 561.5 134 c 128,-1,28
 695 134 695 134 780 276.5 c 128,-1,29
 865 419 865 419 865 696 c 1,0,1
763 798 m 128,-1,31
 838 856 838 856 865 928 c 1,32,33
 864 1125 864 1125 792.5 1248 c 128,-1,34
 721 1371 721 1371 599 1370.5 c 128,-1,35
 477 1370 477 1370 401 1280.5 c 128,-1,36
 325 1191 325 1191 325 1056 c 128,-1,37
 325 921 325 921 396.5 830.5 c 128,-1,38
 468 740 468 740 578 740 c 128,-1,30
 688 740 688 740 763 798 c 128,-1,31
EndSplineSet
EndChar

StartChar: colon
Encoding: 58 58 29
Width: 559
Flags: HW
HStem: 26 276<181.191 376.742> 635 273<181.197 376.748>
VStem: 142 275<65.7389 260.745 675.739 868.261>
LayerCount: 2
Fore
SplineSet
142 772 m 256,0,1
 142 830 142 830 180 869 c 128,-1,2
 218 908 218 908 264 908 c 2,3,4
 288 908 l 1,5,6
 338 909 338 909 378 869.5 c 128,-1,7
 418 830 418 830 417 772 c 257,8,9
 418 714 418 714 379 675 c 128,-1,10
 340 636 340 636 294 635 c 1,11,12
 218 635 218 635 180 674.5 c 128,-1,13
 142 714 142 714 142 772 c 256,0,1
142 162 m 256,14,15
 142 222 142 222 180.5 262 c 128,-1,16
 219 302 219 302 263 302 c 2,17,-1
 264 302 l 2,18,19
 338 302 338 302 378 262 c 128,-1,20
 418 222 418 222 417 162 c 257,21,22
 418 104 418 104 379 65 c 128,-1,23
 340 26 340 26 295 26 c 2,24,25
 270 26 l 1,26,27
 218 25 218 25 180 64.5 c 128,-1,28
 142 104 142 104 142 162 c 256,14,15
EndSplineSet
EndChar

StartChar: semicolon
Encoding: 59 59 30
Width: 573
Flags: HW
HStem: 635.5 273.5<186.708 381.776>
VStem: 142 293<5.76782 210.745 683.461 860.3>
LayerCount: 2
Fore
SplineSet
185.5 673.5 m 128,-1,1
 147 712 147 712 147 772 c 256,2,3
 147 866 147 866 229 899 c 0,4,5
 254 909 254 909 299 909 c 0,6,7
 344 909 344 909 383 869.5 c 128,-1,8
 422 830 422 830 421 772 c 257,9,10
 422 714 422 714 383 675 c 128,-1,11
 344 636 344 636 284 635.5 c 128,-1,0
 224 635 224 635 185.5 673.5 c 128,-1,1
216 -16 m 1,12,13
 142 23 142 23 142 113 c 0,14,15
 142 172 142 172 184 212 c 128,-1,16
 226 252 226 252 286 252 c 0,17,18
 346 252 346 252 390 212 c 128,-1,19
 434 172 434 172 435 113 c 1,20,21
 435 -63 435 -63 170 -270 c 1,22,23
 141 -270 141 -270 125.5 -254 c 128,-1,24
 110 -238 110 -238 110 -211 c 1,25,26
 216 -92 216 -92 216 -16 c 1,12,13
EndSplineSet
EndChar

StartChar: less
Encoding: 60 60 31
Width: 1075
Flags: HW
LayerCount: 2
Fore
SplineSet
331 642 m 1,0,-1
 967 196 l 1,1,2
 967 120 967 120 905 96 c 1,3,-1
 106 558 l 2,4,5
 56 588 56 588 56 641 c 256,6,7
 56 701 56 701 109 731 c 2,8,-1
 900 1174 l 1,9,10
 962 1154 962 1154 967 1068 c 1,11,-1
 331 642 l 1,0,-1
EndSplineSet
EndChar

StartChar: equal
Encoding: 61 61 32
Width: 1165
Flags: HW
HStem: 389 154<126.415 1038.85> 762 154<133.468 1038.83>
LayerCount: 2
Fore
SplineSet
1005 916 m 2,0,1
 1032 916 1032 916 1042 865 c 0,2,3
 1044 852 1044 852 1044 836 c 0,4,5
 1044 820 1044 820 1034 791 c 128,-1,6
 1024 762 1024 762 1005 762 c 2,7,-1
 159 762 l 2,8,9
 130 762 130 762 120 814 c 0,10,11
 118 827 118 827 118 838 c 256,12,13
 118 884 118 884 133 900 c 128,-1,14
 148 916 148 916 159 916 c 2,15,-1
 1005 916 l 2,0,1
1005 543 m 2,16,17
 1032 543 1032 543 1042 493 c 0,18,19
 1044 480 1044 480 1044 463 c 0,20,21
 1044 446 1044 446 1034 417.5 c 128,-1,22
 1024 389 1024 389 1005 389 c 2,23,-1
 163 389 l 2,24,25
 134 389 134 389 124 441 c 0,26,27
 122 454 122 454 122 473 c 0,28,29
 122 492 122 492 133 517.5 c 128,-1,30
 144 543 144 543 162 543 c 2,31,32
 1005 543 l 2,16,17
EndSplineSet
EndChar

StartChar: greater
Encoding: 62 62 33
Width: 1074
Flags: HW
LayerCount: 2
Fore
SplineSet
108 1068 m 1,0,1
 108 1125 108 1125 146 1158 c 0,2,3
 158 1169 158 1169 175 1174 c 1,4,-1
 966 731 l 2,5,6
 1019 701 1019 701 1019 641 c 256,7,8
 1019 588 1019 588 969 558 c 2,9,-1
 170 96 l 1,10,11
 108 120 108 120 108 196 c 1,12,-1
 744 642 l 1,13,-1
 108 1068 l 1,0,1
EndSplineSet
EndChar

StartChar: question
Encoding: 63 63 34
Width: 947
Flags: HW
HStem: -20 278<317.058 518.718> 1370.5 153.5<315.364 482 485 582.458>
VStem: 56 280<1174.74 1358.72> 281 280<20.743 220.991> 326 195<391.613 692> 666 216.5<995.661 1286.32>
LayerCount: 2
Fore
SplineSet
313 1360 m 1,0,1
 336 1319 336 1319 336 1266 c 128,-1,2
 336 1213 336 1213 295 1173.5 c 128,-1,3
 254 1134 254 1134 195 1134 c 128,-1,4
 136 1134 136 1134 96 1173.5 c 128,-1,5
 56 1213 56 1213 56 1266.5 c 0,6,7
 56 1357.78 56 1357.78 130.5 1415.39 c 128,-1,8
 205 1473 205 1473 300.5 1498.5 c 128,-1,9
 396 1524 396 1524 482 1524 c 1,10,-1
 485 1525 l 1,11,12
 569 1525 569 1525 646.5 1496 c 128,-1,13
 724 1467 724 1467 776 1418 c 0,14,15
 882 1319 882 1319 882.5 1168.5 c 128,-1,16
 883 1018 883 1018 766 896 c 0,17,18
 714 842 714 842 650 793 c 2,19,-1
 521 692 l 1,20,-1
 521 445 l 2,21,22
 521 400 521 400 458 386 c 0,23,24
 440 382 440 382 420 382 c 0,25,26
 326 382 326 382 326 445 c 2,27,-1
 326 715 l 1,28,29
 362 748 362 748 402 778 c 2,30,-1
 479 838 l 1,31,32
 569 911 569 911 603 960 c 0,33,34
 666 1053 666 1053 666 1150.5 c 128,-1,35
 666 1248 666 1248 603.5 1309 c 128,-1,36
 541 1370 541 1370 448.5 1370.5 c 128,-1,37
 356 1371 356 1371 313 1360 c 1,0,1
435 -20 m 0,38,39
 326 -20 326 -20 292 64 c 0,40,41
 282 90 282 90 281.5 135 c 128,-1,42
 281 180 281 180 321.5 219 c 128,-1,43
 362 258 362 258 406 258 c 2,44,-1
 430 258 l 1,45,46
 478 259 478 259 519.5 218.5 c 128,-1,47
 561 178 561 178 561 118.5 c 128,-1,48
 561 59 561 59 520 19.5 c 128,-1,49
 479 -20 479 -20 435 -20 c 0,38,39
EndSplineSet
EndChar

StartChar: at
Encoding: 64 64 35
Width: 1843
Flags: HW
HStem: -350 150<633.394 1194.81> -20 154<759.29 1020.54 1308.38 1467.18> 870 154<782.91 1071.74> 1200.5 154.5<664.691 1195.66>
VStem: 68 165<197.079 748.435> 460 205<251.089 729.552> 1102 195<200.016 822.041> 1598 162<295.064 784.008>
LayerCount: 2
Fore
SplineSet
929 1024 m 0,0,1
 1029 1024 1029 1024 1162 987 c 1,2,-1
 1202 1038 l 1,3,4
 1208 1040 1208 1040 1214 1040 c 2,5,-1
 1229 1040 l 2,6,7
 1288 1040 1288 1040 1333 1004 c 0,8,9
 1346 994 1346 994 1352 981 c 1,10,-1
 1297 766 l 1,11,-1
 1297 196 l 1,12,13
 1296 155 1296 155 1308 142.5 c 128,-1,14
 1320 130 1320 130 1359 130 c 0,15,16
 1446 130 1446 130 1522 239 c 128,-1,17
 1598 348 1598 348 1598 508 c 0,18,19
 1598 818 1598 818 1418 1009.5 c 128,-1,20
 1238 1201 1238 1201 929 1200.5 c 128,-1,21
 620 1200 620 1200 426.5 1001.5 c 128,-1,22
 233 803 233 803 233 448 c 1,23,24
 234 162 234 162 418 -19 c 128,-1,25
 602 -200 602 -200 887 -200 c 128,-1,26
 1172 -200 1172 -200 1348 -84 c 1,27,28
 1394 -104 1394 -104 1424 -168 c 0,29,30
 1432 -186 1432 -186 1435 -202 c 1,31,32
 1218 -350 1218 -350 912 -350 c 0,33,34
 522 -350 522 -350 295 -137 c 128,-1,35
 68 76 68 76 68 466.5 c 128,-1,36
 68 857 68 857 314 1106 c 0,37,38
 560 1355 560 1355 964 1355 c 0,39,40
 1119 1355 1119 1355 1272.5 1292 c 128,-1,41
 1426 1229 1426 1229 1534 1118 c 0,42,43
 1760 887 1760 887 1760 529 c 0,44,45
 1760 304 1760 304 1630 146.5 c 128,-1,46
 1500 -11 1500 -11 1301 -11 c 0,47,48
 1300 -11 1300 -11 1299 -11 c 0,49,50
 1196 -11 1196 -11 1156 41 c 0,51,52
 1142 59 1142 59 1132 85 c 1,53,54
 1049 18 1049 18 921 -10 c 0,55,56
 875 -20 875 -20 826 -20 c 0,57,58
 460 -20 460 -20 460 512 c 0,59,60
 460 740 460 740 595 882 c 128,-1,61
 730 1024 730 1024 929 1024 c 0,0,1
867 134 m 256,62,63
 982 134 982 134 1102 234 c 1,64,-1
 1102 805 l 1,65,66
 1019 870 1019 870 914 870 c 0,67,68
 756 870 756 870 690 686 c 0,69,70
 665 616 665 616 665 512 c 0,71,72
 665 318 665 318 720 226 c 128,-1,73
 775 134 775 134 867 134 c 256,62,63
EndSplineSet
EndChar

StartChar: A
Encoding: 65 65 36
Width: 1424
Flags: HW
HStem: 0 141<-7.07227 138.453 287 471.079 910.468 1059.97 1301 1429.05> 499 154<485 874> 1505 20G<686.5 735.5>
LayerCount: 2
Fore
SplineSet
13 0 m 2,0,1
 -12 0 -12 0 -12 54 c 128,-1,2
 -12 108 -12 108 12 133 c 0,3,4
 20 141 20 141 48 141 c 0,5,6
 122 141 122 141 145 198 c 2,7,-1
 654 1505 l 2,8,9
 662 1525 662 1525 711 1525 c 128,-1,10
 760 1525 760 1525 768 1505 c 2,11,-1
 1301 141 l 1,12,-1
 1418 141 l 2,13,14
 1444 141 1444 141 1444 86 c 128,-1,15
 1444 31 1444 31 1429.5 15.5 c 128,-1,16
 1415 0 1415 0 1405 0 c 2,17,-1
 920 0 l 2,18,19
 895 0 895 0 895 54 c 128,-1,20
 895 108 895 108 910 124.5 c 128,-1,21
 925 141 925 141 936 141 c 0,22,23
 1060 141 1060 141 1060 165 c 0,24,25
 1060 174 1060 174 1052 190 c 1,26,-1
 933 499 l 1,27,-1
 426 499 l 1,28,-1
 287 141 l 1,29,-1
 459 141 l 2,30,31
 485 141 485 141 485 86 c 128,-1,32
 485 31 485 31 471.5 15.5 c 128,-1,33
 458 0 458 0 449 0 c 2,34,-1
 13 0 l 2,0,1
485 653 m 1,35,-1
 874 653 l 1,36,-1
 681 1157 l 1,37,-1
 485 653 l 1,35,-1
EndSplineSet
EndChar

StartChar: B
Encoding: 66 66 37
Width: 1329
Flags: HW
HStem: 0 142<128.254 291 542.717 905.391> 733 154<502 832.266> 1364 141<78.042 291 502 784.615>
VStem: 291 211<182.682 733 887 1350.86> 924 233<983.45 1262.26> 1016 233<245.213 580.417>
LayerCount: 2
Fore
SplineSet
678 -10 m 1,0,-1
 427 0 l 1,1,-1
 125 0 l 2,2,3
 100 0 100 0 100 53 c 128,-1,4
 100 106 100 106 128 134 c 0,5,6
 136 142 136 142 162 142 c 0,7,8
 290 140 290 140 291 184 c 1,9,-1
 291 1348 l 2,10,11
 291 1364 291 1364 278 1364 c 2,12,-1
 115 1364 l 2,13,14
 86 1364 86 1364 76 1418 c 0,15,16
 74 1432 74 1432 74 1446 c 0,17,18
 74 1505 74 1505 100 1505 c 2,19,-1
 614 1505 l 2,20,21
 1157 1505 1157 1505 1157 1137 c 0,22,23
 1157 1023 1157 1023 1076.5 934 c 128,-1,24
 996 845 996 845 881 814 c 1,25,26
 1050 790 1050 790 1149.5 690 c 128,-1,27
 1249 590 1249 590 1249 438 c 0,28,29
 1249 120 1249 120 933 23 c 0,30,31
 825 -10 825 -10 678 -10 c 1,0,-1
502 298 m 2,32,33
 502 219 502 219 541 181.5 c 0,34,35
 580 144 580 144 674 144 c 0,36,37
 862 144 862 144 939 207.5 c 128,-1,38
 1016 271 1016 271 1016 425.5 c 128,-1,39
 1016 580 1016 580 884 662 c 0,40,41
 771 733 771 733 610 733 c 0,42,43
 556 733 556 733 502 733 c 1,44,-1
 502 298 l 2,32,33
655 887 m 2,45,46
 924 887 924 887 924 1123 c 0,47,48
 924 1263 924 1263 814 1312 c 0,49,50
 727 1351 727 1351 502 1351 c 1,51,-1
 502 887 l 1,52,-1
 655 887 l 2,45,46
EndSplineSet
EndChar

StartChar: C
Encoding: 67 67 38
Width: 1274
Flags: HW
HStem: -20 164<584.016 960.277> 1371 154<590.388 923.147>
VStem: 102 233<463.119 1068.03> 903 307<1133.41 1333.81>
LayerCount: 2
Fore
SplineSet
925 1335 m 1,0,1
 866 1371 866 1371 770 1371 c 0,2,3
 579 1371 579 1371 457.5 1219.5 c 128,-1,4
 336 1068 336 1068 335 823 c 1,5,6
 335 316 335 316 584 186 c 0,7,8
 663 144 663 144 745 144 c 2,9,-1
 746 144 l 2,10,11
 908 144 908 144 1034 228 c 1,12,13
 1092 268 1092 268 1112 268 c 0,14,15
 1132 268 1132 268 1160 231.5 c 128,-1,16
 1188 195 1188 195 1188 168.5 c 128,-1,17
 1188 142 1188 142 1170 126 c 0,18,19
 1111 74 1111 74 997 27 c 128,-1,20
 883 -20 883 -20 741 -20 c 0,21,22
 455 -20 455 -20 288 162 c 0,23,24
 102 364 102 364 102 742 c 128,-1,25
 102 1120 102 1120 289 1322.5 c 128,-1,26
 476 1525 476 1525 774 1525 c 2,27,-1
 777 1525 l 2,28,29
 934 1525 934 1525 1072 1445 c 128,-1,30
 1210 1365 1210 1365 1210 1241 c 0,31,32
 1210 1177 1210 1177 1166.5 1132 c 128,-1,33
 1123 1087 1123 1087 1057 1087 c 256,34,35
 992 1087 992 1087 947.5 1131.5 c 128,-1,36
 903 1176 903 1176 903 1236.5 c 128,-1,37
 903 1297 903 1297 925 1335 c 1,0,1
EndSplineSet
EndChar

StartChar: D
Encoding: 68 68 39
Width: 1517
Flags: HW
HStem: 0 154<127.223 262.144 501 859.457> 1351 154<81.6899 290 501 895.569>
VStem: 290 211<154.197 1350.86> 1180 233<472.345 1034.36>
LayerCount: 2
Fore
SplineSet
114 1364 m 2,0,1
 80 1364 80 1364 73 1442 c 1,2,3
 73 1505 73 1505 99 1505 c 2,4,-1
 681 1505 l 2,5,6
 1076 1505 1076 1505 1244.5 1321 c 128,-1,7
 1413 1137 1413 1137 1413 756 c 128,-1,8
 1413 375 1413 375 1184 176 c 0,9,10
 982 1 982 1 681 0 c 1,11,-1
 128 0 l 2,12,13
 101 0 101 0 101 51.5 c 128,-1,14
 101 103 101 103 127 133 c 0,15,16
 134 142 134 142 185 142.5 c 0,17,18
 236 143 236 143 263 151.5 c 128,-1,19
 290 160 290 160 290 184 c 2,20,-1
 290 1350 l 2,21,22
 290 1364 290 1364 278 1364 c 2,23,-1
 114 1364 l 2,0,1
501 154 m 1,24,-1
 648 154 l 2,25,26
 862 154 862 154 1021 302 c 128,-1,27
 1180 450 1180 450 1180 723 c 0,28,29
 1180 1191 1180 1191 888 1312 c 0,30,31
 794 1351 794 1351 673 1351 c 2,32,-1
 501 1351 l 1,33,-1
 501 154 l 1,24,-1
EndSplineSet
EndChar

StartChar: E
Encoding: 69 69 40
Width: 1288
Flags: HW
HStem: 0 154<126.255 290 501 1031> 694 154<501 811.163> 1002 20G<850 906> 1180 325<1058.02 1199> 1351 154<81.6899 290 501 1034.77>
VStem: 290 211<154.305 694 848 1350.86> 820 144<517.962 694 875.861 1007.56> 1058 141<1181.4 1309.24>
LayerCount: 2
Fore
SplineSet
114 1364 m 2,0,1
 80 1364 80 1364 73 1442 c 1,2,3
 73 1505 73 1505 99 1505 c 2,4,-1
 1199 1505 l 1,5,-1
 1199 1214 l 2,6,7
 1199 1180 1199 1180 1128.5 1180 c 128,-1,8
 1058 1180 1058 1180 1058 1202 c 0,9,10
 1058 1286 1058 1286 1036 1310 c 0,11,12
 997 1351 997 1351 894 1351 c 2,13,-1
 501 1351 l 1,14,-1
 501 848 l 1,15,-1
 755 848 l 2,16,17
 801 848 801 848 811.5 875 c 128,-1,18
 822 902 822 902 822 999 c 0,19,20
 822 1022 822 1022 878 1022 c 128,-1,21
 934 1022 934 1022 949 1008 c 128,-1,22
 964 994 964 994 964 985 c 2,23,-1
 964 557 l 2,24,25
 964 516 964 516 892 516 c 128,-1,26
 820 516 820 516 820 543 c 2,27,-1
 820 694 l 1,28,-1
 501 694 l 1,29,-1
 501 154 l 1,30,-1
 1031 154 l 1,31,-1
 1107 303 l 2,32,33
 1116 322 1116 322 1144 322 c 0,34,35
 1240 322 1240 322 1241 281 c 0,36,37
 1241 276 1241 276 1240 274 c 2,38,-1
 1148 0 l 1,39,-1
 128 0 l 2,40,41
 101 0 101 0 101.5 55 c 128,-1,42
 102 110 102 110 126 134 c 0,43,44
 134 142 134 142 161 142 c 0,45,46
 290 140 290 140 290 184 c 2,47,-1
 290 1350 l 2,48,49
 290 1364 290 1364 278 1364 c 2,50,-1
 114 1364 l 2,0,1
EndSplineSet
EndChar

StartChar: F
Encoding: 70 70 41
Width: 1236
Flags: HW
HStem: 0 141<126.255 290 501 726.532> 694 154<501 811.163> 1002 20G<850 906> 1180 325<1058.02 1199> 1351 154<81.6899 290 501 1034.77>
VStem: 290 211<148.5 694 848 1350.86> 820 144<517.962 694 875.861 1007.56> 1058 141<1181.4 1309.24>
LayerCount: 2
Fore
SplineSet
114 1364 m 2,0,1
 80 1364 80 1364 73 1442 c 1,2,3
 73 1505 73 1505 99 1505 c 2,4,-1
 1199 1505 l 1,5,-1
 1199 1214 l 2,6,7
 1199 1180 1199 1180 1128.5 1180 c 128,-1,8
 1058 1180 1058 1180 1058 1202 c 0,9,10
 1058 1286 1058 1286 1036 1310 c 0,11,12
 997 1351 997 1351 894 1351 c 2,13,-1
 501 1351 l 1,14,-1
 501 848 l 1,15,-1
 755 848 l 2,16,17
 801 848 801 848 811.5 875 c 128,-1,18
 822 902 822 902 822 999 c 0,19,20
 822 1022 822 1022 878 1022 c 128,-1,21
 934 1022 934 1022 949 1008 c 128,-1,22
 964 994 964 994 964 985 c 2,23,-1
 964 557 l 2,24,25
 964 516 964 516 892 516 c 128,-1,26
 820 516 820 516 820 543 c 2,27,-1
 820 694 l 1,28,-1
 501 694 l 1,29,-1
 501 141 l 1,30,-1
 716 141 l 2,31,32
 742 141 742 141 742 86.5 c 128,-1,33
 742 32 742 32 727 16 c 128,-1,34
 712 0 712 0 701 0 c 2,35,-1
 128 0 l 2,36,37
 101 0 101 0 101.5 55 c 128,-1,38
 102 110 102 110 126 134 c 0,39,40
 134 142 134 142 161 142 c 0,41,42
 290 140 290 140 290 184 c 2,43,-1
 290 1350 l 2,44,45
 290 1364 290 1364 278 1364 c 2,46,-1
 114 1364 l 2,0,1
EndSplineSet
EndChar

StartChar: G
Encoding: 71 71 42
Width: 1363
Flags: HW
HStem: -20 164<578.812 983.27> 491 141<774.415 987 1198 1302.44> 1371 154<586.809 939.235>
VStem: 100 233<459.63 1060.6> 926 307<1133.41 1334.84> 987 211<169.635 490.996>
LayerCount: 2
Fore
SplineSet
333 819 m 0,0,1
 333 144 333 144 770 144 c 2,2,-1
 773 144 l 2,3,4
 886 144 886 144 987 186 c 1,5,-1
 987 475 l 2,6,7
 987 491 987 491 974 491 c 2,8,-1
 811 491 l 1,9,10
 782 492 782 492 772 546 c 0,11,12
 770 560 770 560 770 573 c 0,13,14
 770 632 770 632 796 632 c 2,15,-1
 1279 632 l 2,16,17
 1304 632 1304 632 1304 561.5 c 128,-1,18
 1304 491 1304 491 1269 491 c 2,19,-1
 1198 491 l 1,20,-1
 1198 147 l 1,21,22
 1114 75 1114 75 1044 44 c 0,23,24
 897 -20 897 -20 725.5 -20 c 128,-1,25
 554 -20 554 -20 411 74 c 0,26,27
 190 220 190 220 122 520 c 0,28,29
 100 620 100 620 100 777 c 128,-1,30
 100 934 100 934 152 1083 c 128,-1,31
 204 1232 204 1232 293 1330 c 0,32,33
 471 1525 471 1525 770 1525 c 0,34,35
 774 1525 774 1525 778 1525 c 0,36,37
 961 1525 961 1525 1097 1447 c 128,-1,38
 1233 1369 1233 1369 1233 1241 c 1,39,40
 1232 1177 1232 1177 1188.5 1132 c 128,-1,41
 1145 1087 1145 1087 1080 1087 c 256,42,43
 1015 1087 1015 1087 970.5 1131.5 c 128,-1,44
 926 1176 926 1176 926 1237.5 c 128,-1,45
 926 1299 926 1299 942 1336 c 1,46,47
 864 1371 864 1371 768 1371 c 0,48,49
 576 1371 576 1371 454.5 1219 c 128,-1,50
 333 1067 333 1067 333 819 c 0,0,1
EndSplineSet
EndChar

StartChar: H
Encoding: 72 72 43
Width: 1612
Flags: HW
HStem: 0 141<126.255 290 501 679.532 948.255 1111 1322 1501.02> 694 154<501 1111> 1364 141<77.9766 290 501 714.438 897.797 1111 1322 1535.44>
VStem: 290 211<148.5 694 848 1364> 1111 211<148.5 694 848 1364>
LayerCount: 2
Fore
SplineSet
114 1364 m 2,0,1
 79 1364 79 1364 73 1444 c 1,2,3
 73 1505 73 1505 99 1505 c 2,4,-1
 691 1505 l 2,5,6
 716 1505 716 1505 716 1434.5 c 128,-1,7
 716 1364 716 1364 681 1364 c 2,8,-1
 501 1364 l 1,9,-1
 501 848 l 1,10,-1
 1111 848 l 1,11,-1
 1111 1348 l 2,12,13
 1111 1364 1111 1364 1099 1364 c 2,14,-1
 935 1364 l 2,15,16
 906 1364 906 1364 896 1417 c 0,17,18
 894 1431 894 1431 894 1444 c 0,19,20
 894 1505 894 1505 921 1505 c 2,21,-1
 1512 1505 l 2,22,23
 1537 1505 1537 1505 1537 1434.5 c 128,-1,24
 1537 1364 1537 1364 1502 1364 c 2,25,-1
 1322 1364 l 1,26,-1
 1322 141 l 1,27,-1
 1490 141 l 2,28,29
 1517 141 1517 141 1517 86 c 128,-1,30
 1517 31 1517 31 1501.5 15.5 c 128,-1,31
 1486 0 1486 0 1476 0 c 2,32,-1
 945 0 l 2,33,34
 921 0 921 0 921 54 c 128,-1,35
 921 108 921 108 948 134 c 0,36,37
 956 142 956 142 983 142 c 0,38,39
 1111 140 1111 140 1111 184 c 2,40,-1
 1111 694 l 1,41,-1
 501 694 l 1,42,-1
 501 141 l 1,43,-1
 669 141 l 2,44,45
 695 141 695 141 695 86.5 c 128,-1,46
 695 32 695 32 680 16 c 128,-1,47
 665 0 665 0 654 0 c 2,48,-1
 122 0 l 2,49,50
 99 0 99 0 99 53.5 c 128,-1,51
 99 107 99 107 126 134 c 0,52,53
 134 142 134 142 161 142 c 0,54,55
 290 140 290 140 290 184 c 2,56,-1
 290 1348 l 2,57,58
 290 1364 290 1364 277 1364 c 2,59,-1
 114 1364 l 2,0,1
EndSplineSet
EndChar

StartChar: I
Encoding: 73 73 44
Width: 791
Flags: HW
HStem: 0 141<128.254 291 502 680.532> 1364 141<78.042 291 502 715.438>
VStem: 291 211<148.5 1364>
LayerCount: 2
Fore
SplineSet
670 141 m 2,0,1
 696 141 696 141 696 86.5 c 128,-1,2
 696 32 696 32 681 16 c 128,-1,3
 666 0 666 0 655 0 c 2,4,-1
 123 0 l 2,5,6
 100 0 100 0 100 53 c 128,-1,7
 100 106 100 106 128 134 c 0,8,9
 136 142 136 142 162 142 c 0,10,11
 290 140 290 140 291 184 c 1,12,-1
 291 1348 l 2,13,14
 291 1364 291 1364 278 1364 c 2,15,-1
 115 1364 l 2,16,17
 86 1364 86 1364 76 1418 c 0,18,19
 74 1432 74 1432 74 1446 c 0,20,21
 74 1505 74 1505 100 1505 c 2,22,-1
 692 1505 l 2,23,24
 717 1505 717 1505 717 1434.5 c 128,-1,25
 717 1364 717 1364 682 1364 c 2,26,-1
 502 1364 l 1,27,-1
 502 141 l 1,28,-1
 670 141 l 2,0,1
EndSplineSet
EndChar

StartChar: J
Encoding: 74 74 45
Width: 756
Flags: HW
HStem: -440 276<-13.2872 183.58> 1364 141<60.042 273 484 697.438>
VStem: 273 211<-162.364 1364>
LayerCount: 2
Fore
SplineSet
674 1505 m 2,0,1
 699 1505 699 1505 699 1434.5 c 128,-1,2
 699 1364 699 1364 664 1364 c 2,3,-1
 484 1364 l 1,4,-1
 484 68 l 2,5,6
 484 -119 484 -119 384 -271 c 1,7,8
 314 -375 314 -375 206 -418 c 0,9,10
 150 -440 150 -440 87 -440 c 0,11,12
 24 -440 24 -440 -14.5 -401.5 c 128,-1,13
 -53 -363 -53 -363 -53 -306 c 0,14,15
 -53 -208 -53 -208 30 -174 c 0,16,17
 55 -164 55 -164 84 -164 c 0,18,19
 159 -164 159 -164 201 -231 c 1,20,21
 273 -186 273 -186 273 0 c 2,22,-1
 273 1348 l 2,23,24
 273 1364 273 1364 260 1364 c 2,25,-1
 97 1364 l 2,26,27
 68 1364 68 1364 58 1418 c 0,28,29
 56 1432 56 1432 56 1446 c 0,30,31
 56 1505 56 1505 82 1505 c 2,32,-1
 674 1505 l 2,0,1
EndSplineSet
EndChar

StartChar: K
Encoding: 75 75 46
Width: 1487
Flags: HW
HStem: 0 141<128.254 291 502 680.532 1310.06 1469.05> 1364 141<78.042 291 502 663.438 949.921 1094 1285.01 1430.2>
VStem: 291 211<148.5 1364>
LayerCount: 2
Fore
SplineSet
670 141 m 2,0,1
 696 141 696 141 696 86.5 c 128,-1,2
 696 32 696 32 681 16 c 128,-1,3
 666 0 666 0 655 0 c 2,4,-1
 123 0 l 2,5,6
 100 0 100 0 100 53 c 128,-1,7
 100 106 100 106 128 134 c 0,8,9
 136 142 136 142 162 142 c 0,10,11
 290 140 290 140 291 184 c 1,12,-1
 291 1348 l 2,13,14
 291 1364 291 1364 278 1364 c 2,15,-1
 115 1364 l 2,16,17
 86 1364 86 1364 76 1418 c 0,18,19
 74 1432 74 1432 74 1446 c 0,20,21
 74 1505 74 1505 100 1505 c 2,22,-1
 640 1505 l 2,23,24
 665 1505 665 1505 665 1434.5 c 128,-1,25
 665 1364 665 1364 630 1364 c 2,26,-1
 502 1364 l 1,27,-1
 502 141 l 1,28,-1
 670 141 l 2,0,1
1434 1448 m 0,29,30
 1434 1364 1434 1364 1386 1364 c 0,31,32
 1324 1364 1324 1364 1285 1321 c 2,33,-1
 828 803 l 1,34,-1
 1268 230 l 2,35,36
 1303 184 1303 184 1346.5 162.5 c 128,-1,37
 1390 141 1390 141 1460 141 c 0,38,39
 1484 141 1484 141 1484 85 c 128,-1,40
 1484 29 1484 29 1469.5 14.5 c 128,-1,41
 1455 0 1455 0 1445 0 c 2,42,-1
 1275 0 l 2,43,44
 1206 0 1206 0 1136 62 c 0,45,46
 1116 80 1116 80 1100 102 c 2,47,-1
 569 796 l 1,48,-1
 1094 1364 l 1,49,-1
 962 1364 l 2,50,51
 936 1364 936 1364 936 1419 c 128,-1,52
 936 1474 936 1474 949.5 1489.5 c 128,-1,53
 963 1505 963 1505 972 1505 c 2,54,-1
 1409 1505 l 2,55,56
 1434 1505 1434 1505 1434 1448 c 0,29,30
EndSplineSet
EndChar

StartChar: L
Encoding: 76 76 47
Width: 1183
Flags: HW
HStem: 0 154<126.255 290 501 970> 1364 141<78.0332 290 501 714.438>
VStem: 290 211<154.305 1364>
LayerCount: 2
Fore
SplineSet
74 1439.5 m 2,0,-1
 73 1456 l 2,1,2
 73 1468 73 1468 79.5 1486 c 128,-1,3
 86 1504 86 1504 99 1505 c 1,4,-1
 691 1505 l 2,5,6
 716 1505 716 1505 716 1434.5 c 128,-1,7
 716 1364 716 1364 681 1364 c 2,8,-1
 501 1364 l 1,9,-1
 501 154 l 1,10,-1
 970 154 l 1,11,-1
 1047 303 l 2,12,13
 1056 322 1056 322 1091.5 322 c 128,-1,14
 1127 322 1127 322 1154.5 310.5 c 128,-1,15
 1182 299 1182 299 1182 281 c 0,16,17
 1182 276 1182 276 1181 274 c 2,18,-1
 1088 0 l 1,19,-1
 122 0 l 2,20,21
 99 0 99 0 99 53.5 c 128,-1,22
 99 107 99 107 126 134 c 0,23,24
 134 142 134 142 161 142 c 0,25,26
 290 140 290 140 290 184 c 2,27,-1
 290 1348 l 2,28,29
 290 1364 290 1364 277 1364 c 2,30,-1
 114 1364 l 2,31,32
 86 1364 86 1364 76 1418 c 0,33,34
 74 1432 74 1432 74 1439.5 c 2,0,-1
EndSplineSet
EndChar

StartChar: M
Encoding: 77 77 48
Width: 1969
Flags: HW
HStem: 0 141<128.254 291 445 622.532 1306.25 1469 1680 1858.53> 1364 141<78.042 291 1680 1893.44>
VStem: 291 154<148.5 1023> 1469 211<148.5 1119>
LayerCount: 2
Fore
SplineSet
612 141 m 2,0,1
 638 141 638 141 638 86.5 c 128,-1,2
 638 32 638 32 623 16 c 128,-1,3
 608 0 608 0 597 0 c 2,4,-1
 125 0 l 2,5,6
 100 0 100 0 100 53 c 128,-1,7
 100 106 100 106 128 134 c 0,8,9
 136 142 136 142 162 142 c 0,10,11
 290 140 290 140 291 184 c 1,12,-1
 291 1348 l 2,13,14
 291 1364 291 1364 278 1364 c 2,15,-1
 115 1364 l 2,16,17
 86 1364 86 1364 76 1418 c 0,18,19
 74 1432 74 1432 74 1446 c 0,20,21
 74 1505 74 1505 100 1505 c 2,22,-1
 398 1505 l 2,23,24
 426 1505 426 1505 439 1476 c 2,25,-1
 988 320 l 1,26,-1
 1469 1485 l 2,27,28
 1478 1505 1478 1505 1495 1505 c 2,29,-1
 1870 1505 l 2,30,31
 1895 1505 1895 1505 1895 1434.5 c 128,-1,32
 1895 1364 1895 1364 1860 1364 c 2,33,-1
 1680 1364 l 1,34,-1
 1680 141 l 1,35,-1
 1848 141 l 2,36,37
 1874 141 1874 141 1874 86.5 c 128,-1,38
 1874 32 1874 32 1859 16 c 128,-1,39
 1844 0 1844 0 1833 0 c 2,40,-1
 1303 0 l 2,41,42
 1278 0 1278 0 1278 53 c 128,-1,43
 1278 106 1278 106 1306 134 c 0,44,45
 1314 142 1314 142 1340 142 c 0,46,47
 1468 140 1468 140 1469 184 c 1,48,-1
 1469 1119 l 1,49,-1
 1020 0 l 1,50,51
 1008 -12 1008 -12 967 -12 c 128,-1,52
 926 -12 926 -12 905 0 c 1,53,-1
 445 1023 l 1,54,-1
 445 141 l 1,55,-1
 612 141 l 2,0,1
EndSplineSet
EndChar

StartChar: N
Encoding: 78 78 49
Width: 1667
Flags: HW
HStem: 0 141<128.254 291 445 624.532> 1364 141<78.042 291 1028.04 1241 1395 1607.44>
VStem: 291 154<148.5 1127> 1241 154<345 1364>
LayerCount: 2
Fore
SplineSet
74 1446 m 0,0,1
 74 1505 74 1505 100 1505 c 2,2,-1
 448 1505 l 1,3,-1
 1241 345 l 1,4,-1
 1241 1348 l 2,5,6
 1241 1364 1241 1364 1228 1364 c 2,7,-1
 1065 1364 l 2,8,9
 1036 1364 1036 1364 1026 1418 c 0,10,11
 1024 1432 1024 1432 1024 1446 c 0,12,13
 1024 1505 1024 1505 1050 1505 c 2,14,-1
 1584 1505 l 2,15,16
 1609 1505 1609 1505 1609 1434.5 c 128,-1,17
 1609 1364 1609 1364 1574 1364 c 2,18,-1
 1395 1364 l 1,19,-1
 1395 -2 l 2,20,21
 1395 -20 1395 -20 1322.5 -20 c 128,-1,22
 1250 -20 1250 -20 1239 -2 c 1,23,-1
 445 1127 l 1,24,-1
 445 141 l 1,25,-1
 613 141 l 2,26,27
 640 141 640 141 640 85.5 c 128,-1,28
 640 30 640 30 625 15 c 128,-1,29
 610 0 610 0 598 0 c 2,30,-1
 125 0 l 2,31,32
 100 0 100 0 100 53 c 128,-1,33
 100 106 100 106 128 134 c 0,34,35
 136 142 136 142 162 142 c 0,36,37
 290 140 290 140 291 184 c 1,38,-1
 291 1348 l 2,39,40
 291 1364 291 1364 278 1364 c 2,41,-1
 115 1364 l 2,42,43
 86 1364 86 1364 76 1418 c 0,44,45
 74 1432 74 1432 74 1446 c 0,0,1
EndSplineSet
EndChar

StartChar: O
Encoding: 79 79 50
Width: 1501
Flags: HW
HStem: -20 165<580.728 942.531> 1360 164.5<572.984 900.354>
VStem: 102 230<462.361 1064.53> 1168 230<415.179 1011.9>
LayerCount: 2
Fore
SplineSet
288 161 m 0,0,1
 102 361 102 361 102 739 c 128,-1,2
 102 1117 102 1117 287.5 1321 c 128,-1,3
 473 1525 473 1525 775 1524.5 c 128,-1,4
 1077 1524 1077 1524 1237.5 1312 c 128,-1,5
 1398 1100 1398 1100 1398 725 c 128,-1,6
 1398 350 1398 350 1198 154 c 1,7,8
 1022 -20 1022 -20 738.5 -20 c 128,-1,9
 455 -20 455 -20 288 161 c 0,0,1
581 187 m 0,10,11
 660 145 660 145 752 145 c 0,12,13
 939 145 939 145 1046 274 c 1,14,15
 1168 423 1168 423 1168 708.5 c 128,-1,16
 1168 994 1168 994 1045 1177 c 128,-1,17
 922 1360 922 1360 744 1360 c 128,-1,18
 566 1360 566 1360 449 1212 c 128,-1,19
 332 1064 332 1064 332 823 c 0,20,21
 332 318 332 318 581 187 c 0,10,11
EndSplineSet
EndChar

StartChar: P
Encoding: 80 80 51
Width: 1221
Flags: HW
HStem: 0 141<126.255 290 501 734.532> 629 154<501 789.312> 1364 141<78.2336 290 501 765.594>
VStem: 290 211<148.5 629 783 1350.82> 927 233<906.968 1242.01>
LayerCount: 2
Fore
SplineSet
114 1364 m 2,0,1
 79 1364 79 1364 73 1446 c 1,2,3
 73 1505 73 1505 100 1505 c 2,4,-1
 656 1505 l 1,5,6
 887 1504 887 1504 1023.5 1393.5 c 128,-1,7
 1160 1283 1160 1283 1160 1090 c 0,8,9
 1160 629 1160 629 501 629 c 1,10,-1
 501 141 l 1,11,-1
 724 141 l 2,12,13
 750 141 750 141 750 86.5 c 128,-1,14
 750 32 750 32 735 16 c 128,-1,15
 720 0 720 0 709 0 c 2,16,-1
 123 0 l 2,17,18
 99 0 99 0 99 53.5 c 128,-1,19
 99 107 99 107 126 134 c 0,20,21
 134 142 134 142 161 142 c 0,22,23
 290 140 290 140 290 184 c 2,24,-1
 290 1349 l 2,25,26
 290 1364 290 1364 277 1364 c 2,27,-1
 114 1364 l 2,0,1
501 783 m 1,28,29
 711 784 711 784 805 834 c 0,30,31
 927 899 927 899 927 1065.5 c 128,-1,32
 927 1232 927 1232 831.5 1291.5 c 128,-1,33
 736 1351 736 1351 501 1351 c 1,34,-1
 501 783 l 1,28,29
EndSplineSet
EndChar

StartChar: Q
Encoding: 81 81 52
Width: 1502
Flags: HW
HStem: -439 154<1227.6 1559.78> -20 165<582.016 764.327> 1360 164.5<573.984 901.354>
VStem: 103 230<464.184 1065.31> 1168.5 230.5<414.601 1011.4>
LayerCount: 2
Fore
SplineSet
1360 -439 m 2,0,1
 997 -439 997 -439 740 -20 c 1,2,-1
 732 -20 l 2,3,4
 456 -20 456 -20 279.5 171 c 128,-1,5
 103 362 103 362 103 739.5 c 128,-1,6
 103 1117 103 1117 288.5 1321 c 128,-1,7
 474 1525 474 1525 776 1524.5 c 128,-1,8
 1078 1524 1078 1524 1238.5 1312 c 128,-1,9
 1399 1100 1399 1100 1399 703 c 128,-1,10
 1399 306 1399 306 1157 116 c 0,11,12
 1083 58 1083 58 996 25 c 1,13,14
 1161 -285 1161 -285 1388 -285 c 0,15,16
 1496 -285 1496 -285 1636 -201 c 1,17,18
 1668.95 -185.311 1668.95 -185.311 1714 -240.5 c 0,19,20
 1734 -265 1734 -265 1734 -295.5 c 128,-1,21
 1734 -326 1734 -326 1712 -342 c 0,22,23
 1576.2 -439 1576.2 -439 1367 -439 c 2,24,-1
 1360 -439 l 2,0,1
582 187 m 0,25,26
 662 145 662 145 754 145 c 0,27,28
 941 145 941 145 1047 274 c 0,29,30
 1169 423 1169 423 1168.5 708.5 c 128,-1,31
 1168 994 1168 994 1045 1177 c 128,-1,32
 922 1360 922 1360 744 1360 c 128,-1,33
 566 1360 566 1360 449.5 1212.5 c 128,-1,34
 333 1065 333 1065 333 827 c 0,35,36
 333 318 333 318 582 187 c 0,25,26
EndSplineSet
EndChar

StartChar: R
Encoding: 82 82 53
Width: 1355
Flags: HW
HStem: 0 141<126.255 290 501 734.532 1186.6 1350.05> 629 154<501 651.025> 1364 141<78.2336 290 501 765.594>
VStem: 290 211<148.5 629 783 1350.82> 927 233<904.55 1242.01>
LayerCount: 2
Fore
SplineSet
114 1364 m 2,0,1
 79 1364 79 1364 73 1446 c 1,2,3
 73 1505 73 1505 100 1505 c 2,4,-1
 656 1505 l 1,5,6
 887 1504 887 1504 1023.5 1393.5 c 128,-1,7
 1160 1283 1160 1283 1160 1090 c 0,8,9
 1160 788 1160 788 869 682 c 1,10,-1
 1149 230 l 2,11,12
 1179 181 1179 181 1225 161 c 128,-1,13
 1271 141 1271 141 1341 141 c 0,14,15
 1365 141 1365 141 1365 85 c 128,-1,16
 1365 29 1365 29 1350.5 14.5 c 128,-1,17
 1336 0 1336 0 1326 0 c 2,18,-1
 1156 0 l 2,19,20
 1080 0 1080 0 1015 60 c 0,21,22
 995 78 995 78 981 102 c 2,23,-1
 653 636 l 1,24,25
 590 629 590 629 501 629 c 1,26,-1
 501 141 l 1,27,-1
 724 141 l 2,28,29
 750 141 750 141 750 86.5 c 128,-1,30
 750 32 750 32 735 16 c 128,-1,31
 720 0 720 0 709 0 c 2,32,-1
 123 0 l 2,33,34
 99 0 99 0 99 53.5 c 128,-1,35
 99 107 99 107 126 134 c 0,36,37
 134 142 134 142 161 142 c 0,38,39
 290 140 290 140 290 184 c 2,40,-1
 290 1349 l 2,41,42
 290 1364 290 1364 277 1364 c 2,43,-1
 114 1364 l 2,0,1
501 783 m 1,44,45
 711 784 711 784 805 834 c 0,46,47
 927 899 927 899 927 1065.5 c 128,-1,48
 927 1232 927 1232 831.5 1291.5 c 128,-1,49
 736 1351 736 1351 501 1351 c 1,50,-1
 501 783 l 1,44,45
EndSplineSet
EndChar

StartChar: S
Encoding: 83 83 54
Width: 1177
Flags: HW
HStem: -20 154<364.152 740.511> 1370 155<434.752 782.12>
VStem: 83 307<170.563 369.589> 118 211<1045.41 1278.47> 755 307<1133.41 1333.72> 865 211<243.998 495.572>
LayerCount: 2
Fore
SplineSet
609 1525 m 2,0,1
 618 1525 l 2,2,3
 771 1525 771 1525 904 1456 c 0,4,5
 1062 1375 1062 1375 1062 1241 c 0,6,7
 1062 1177 1062 1177 1018.5 1132 c 128,-1,8
 975 1087 975 1087 909 1087 c 256,9,10
 844 1087 844 1087 799.5 1131.5 c 128,-1,11
 755 1176 755 1176 755 1241 c 256,12,13
 755 1294 755 1294 784 1335 c 1,14,15
 724 1370 724 1370 642 1370 c 0,16,17
 491 1369 491 1369 410 1312.5 c 128,-1,18
 329 1256 329 1256 329 1149 c 0,19,20
 329 1071 329 1071 416 1008 c 1,21,22
 458 976 458 976 520 944 c 2,23,-1
 655 874 l 1,24,25
 876 764 876 764 965 671 c 0,26,27
 1076 556 1076 556 1076 383.5 c 128,-1,28
 1076 211 1076 211 932 95.5 c 128,-1,29
 788 -20 788 -20 567 -20 c 0,30,31
 397 -20 397 -20 252 51 c 0,32,33
 83 134 83 134 83 260 c 0,34,35
 83 326 83 326 128 371 c 128,-1,36
 173 416 173 416 237 416 c 256,37,38
 302 416 302 416 346 370.5 c 128,-1,39
 390 325 390 325 390 272 c 128,-1,40
 390 219 390 219 362 169 c 1,41,42
 427 134 427 134 523 134 c 0,43,44
 689 134 689 134 777 200.5 c 128,-1,45
 865 267 865 267 865 385 c 128,-1,46
 865 503 865 503 660 622 c 0,47,48
 602 656 602 656 534 689 c 1,49,-1
 391 762 l 1,50,51
 118 906 118 906 118 1147 c 0,52,53
 118 1332 118 1332 260 1428.5 c 128,-1,54
 402 1525 402 1525 609 1525 c 2,0,1
EndSplineSet
EndChar

StartChar: T
Encoding: 84 84 55
Width: 1275
Flags: HW
HStem: 0 141<368.255 531 742 921.017> 1177.5 327.5<56 151.71 1121.29 1217> 1351 154<196 531 742 1077>
VStem: 18 134<1208.31 1251.22> 531 211<146.756 1351> 1121 134<1182.91 1251.22>
CounterMasks: 1 1c
LayerCount: 2
Fore
SplineSet
910 141 m 2,0,1
 937 141 937 141 937 86 c 128,-1,2
 937 31 937 31 921.5 15.5 c 128,-1,3
 906 0 906 0 896 0 c 2,4,-1
 365 0 l 2,5,6
 341 0 341 0 341 54 c 128,-1,7
 341 108 341 108 368 134 c 0,8,9
 376 142 376 142 423 141.5 c 0,10,11
 531 140.351 531 140.351 531 184 c 2,12,-1
 531 1351 l 1,13,-1
 196 1351 l 1,14,-1
 152 1203 l 1,15,16
 143 1177 143 1177 97.5 1177.5 c 128,-1,17
 52 1178 52 1178 26 1208 c 0,18,19
 18 1218 18 1218 18 1228 c 2,20,-1
 18 1232 l 1,21,-1
 56 1505 l 1,22,-1
 1217 1505 l 1,23,-1
 1255 1232 l 1,24,-1
 1255 1228 l 2,25,26
 1255 1192 1255 1192 1200 1180 c 0,27,28
 1185 1176 1185 1176 1169 1177 c 1,29,30
 1130 1177 1130 1177 1121 1203 c 1,31,-1
 1077 1351 l 1,32,-1
 742 1351 l 1,33,-1
 742 141 l 1,34,-1
 910 141 l 2,0,1
EndSplineSet
EndChar

StartChar: U
Encoding: 85 85 56
Width: 1545
Flags: HW
HStem: -20 165<618.824 979.102> 1364 141<46.3384 257.997 469 662.438 932.042 1126 1291 1482.08>
VStem: 258 211<317.858 1364> 1126 165<317.054 1364>
LayerCount: 2
Fore
SplineSet
82 1364 m 2,0,1
 48 1364 48 1364 41 1444 c 1,2,3
 41 1505 41 1505 67 1505 c 2,4,-1
 639 1505 l 2,5,6
 664 1505 664 1505 664 1434.5 c 128,-1,7
 664 1364 664 1364 629 1364 c 2,8,-1
 469 1364 l 1,9,-1
 469 578 l 2,10,11
 469 237 469 237 663 167 c 0,12,13
 724 145 724 145 804 145 c 0,14,15
 970 145 970 145 1048 248.5 c 128,-1,16
 1126 352 1126 352 1126 575 c 2,17,-1
 1126 1348 l 2,18,19
 1126 1364 1126 1364 1113 1364 c 2,20,-1
 969 1364 l 2,21,22
 940 1364 940 1364 930 1418 c 0,23,24
 928 1432 928 1432 928 1446 c 0,25,26
 928 1505 928 1505 954 1505 c 2,27,-1
 1470 1505 l 2,28,29
 1496 1505 1496 1505 1496 1449 c 128,-1,30
 1496 1393 1496 1393 1482.5 1378.5 c 128,-1,31
 1469 1364 1469 1364 1460 1364 c 2,32,-1
 1291 1364 l 1,33,-1
 1291 555 l 2,34,35
 1291 -20 1291 -20 772 -20 c 0,36,37
 492 -20 492 -20 375 125.5 c 128,-1,38
 258 271 258 271 258 569 c 2,39,-1
 258 1348 l 2,40,41
 258 1364 258 1364 245 1364 c 2,42,-1
 82 1364 l 2,0,1
EndSplineSet
EndChar

StartChar: V
Encoding: 86 86 57
Width: 1426
Flags: HW
HStem: 1364 141<-4.56323 117 365.03 514.017 953.921 1119 1285.88 1432.21>
LayerCount: 2
Fore
SplineSet
1412 1505 m 1,0,1
 1437 1504 1437 1504 1437 1450 c 128,-1,2
 1437 1396 1437 1396 1413 1372 c 0,3,4
 1404 1364 1404 1364 1376 1364 c 0,5,6
 1300 1364 1300 1364 1280 1307 c 1,7,-1
 777 0 l 2,8,9
 769 -20 769 -20 718 -20 c 128,-1,10
 667 -20 667 -20 657 0 c 1,11,-1
 117 1364 l 1,12,-1
 7 1364 l 2,13,14
 -19 1364 -19 1364 -19 1418 c 128,-1,15
 -19 1472 -19 1472 -5 1488.5 c 128,-1,16
 9 1505 9 1505 20 1505 c 2,17,-1
 505 1505 l 2,18,19
 530 1505 530 1505 530 1451 c 128,-1,20
 530 1397 530 1397 514.5 1380.5 c 128,-1,21
 499 1364 499 1364 489 1364 c 0,22,23
 365 1364 365 1364 365 1340 c 0,24,25
 365 1331 365 1331 373 1315 c 1,26,-1
 744 348 l 1,27,-1
 1119 1364 l 1,28,-1
 966 1364 l 2,29,30
 940 1364 940 1364 940 1419 c 128,-1,31
 940 1474 940 1474 953.5 1489.5 c 128,-1,32
 967 1505 967 1505 976 1505 c 2,33,-1
 1412 1505 l 1,0,1
EndSplineSet
EndChar

StartChar: W
Encoding: 87 87 58
Width: 2059
Flags: HW
HStem: 1364 141<-22.5632 98 347.03 496.017 699.437 828 1069.03 1218.02 1564.92 1733 1897.55 2043.21>
LayerCount: 2
Fore
SplineSet
2023 1505 m 1,0,1
 2048 1504 2048 1504 2048 1450 c 128,-1,2
 2048 1396 2048 1396 2024 1372 c 0,3,4
 2016 1364 2016 1364 1988 1364 c 0,5,6
 1914 1364 1914 1364 1891 1307 c 1,7,-1
 1481 0 l 2,8,9
 1475 -20 1475 -20 1422 -20 c 128,-1,10
 1369 -20 1369 -20 1361 0 c 2,11,-1
 1030 848 l 1,12,-1
 753 0 l 2,13,14
 747 -20 747 -20 698 -20 c 128,-1,15
 649 -20 649 -20 639 0 c 1,16,-1
 98 1364 l 1,17,-1
 -11 1364 l 2,18,19
 -37 1364 -37 1364 -37 1418 c 128,-1,20
 -37 1472 -37 1472 -23 1488.5 c 128,-1,21
 -9 1505 -9 1505 2 1505 c 2,22,-1
 487 1505 l 2,23,24
 512 1505 512 1505 512 1451 c 128,-1,25
 512 1397 512 1397 496.5 1380.5 c 128,-1,26
 481 1364 481 1364 471 1364 c 0,27,28
 347 1364 347 1364 347 1340 c 0,29,30
 347 1331 347 1331 355 1315 c 1,31,-1
 715 376 l 1,32,-1
 944 1067 l 1,33,-1
 828 1364 l 1,34,-1
 711 1364 l 2,35,36
 685 1364 685 1364 685 1418 c 128,-1,37
 685 1472 685 1472 699 1488.5 c 128,-1,38
 713 1505 713 1505 724 1505 c 2,39,-1
 1209 1505 l 2,40,41
 1234 1505 1234 1505 1234 1451 c 128,-1,42
 1234 1397 1234 1397 1218.5 1380.5 c 128,-1,43
 1203 1364 1203 1364 1193 1364 c 0,44,45
 1069 1364 1069 1364 1069 1340 c 0,46,47
 1069 1331 1069 1331 1077 1315 c 1,48,-1
 1436 376 l 1,49,-1
 1733 1364 l 1,50,-1
 1577 1364 l 2,51,52
 1551 1364 1551 1364 1551 1419 c 128,-1,53
 1551 1474 1551 1474 1564.5 1489.5 c 128,-1,54
 1578 1505 1578 1505 1587 1505 c 2,55,-1
 2023 1505 l 1,0,1
EndSplineSet
EndChar

StartChar: X
Encoding: 88 88 59
Width: 1383
Flags: HW
HStem: 0 141<43.2222 196.745 364.004 497.532 802.25 945 1171.66 1354.53> 1364 141<44.952 179 450.027 587.017 856.921 1034 1195.2 1328.53>
LayerCount: 2
Fore
SplineSet
1344 141 m 1,0,1
 1370 141 1370 141 1370 86.5 c 128,-1,2
 1370 32 1370 32 1355 16 c 128,-1,3
 1340 0 1340 0 1329 0 c 2,4,-1
 801 0 l 2,5,6
 774 0 774 0 774 54 c 128,-1,7
 774 108 774 108 802 134 c 0,8,9
 810 141 810 141 816 141 c 2,10,-1
 945 141 l 1,11,-1
 646 618 l 1,12,-1
 371 171 l 2,13,14
 364 161 364 161 364 154 c 256,15,16
 364 141 364 141 382 141 c 2,17,-1
 487 141 l 2,18,19
 513 141 513 141 513 86.5 c 128,-1,20
 513 32 513 32 498 16 c 128,-1,21
 483 0 483 0 472 0 c 2,22,-1
 43 0 l 2,23,24
 17 0 17 0 17 54 c 128,-1,25
 17 108 17 108 43 134 c 0,26,27
 50 141 50 141 86 141 c 0,28,29
 164.808 141 164.808 141 205 196 c 1,30,-1
 554 765 l 1,31,-1
 179 1364 l 1,32,-1
 57 1364 l 2,33,34
 30 1364 30 1364 30 1418 c 128,-1,35
 30 1472 30 1472 44.5 1488.5 c 128,-1,36
 59 1505 59 1505 69 1505 c 2,37,-1
 580 1505 l 2,38,39
 603 1505 603 1505 603 1450 c 128,-1,40
 603 1395 603 1395 587.5 1379.5 c 128,-1,41
 572 1364 572 1364 561 1364 c 0,42,43
 450 1364 450 1364 450 1342 c 0,44,45
 450 1335 450 1335 459 1317 c 1,46,-1
 716 906 l 1,47,-1
 1034 1364 l 1,48,-1
 869 1364 l 2,49,50
 843 1364 843 1364 843 1419 c 128,-1,51
 843 1474 843 1474 856.5 1489.5 c 128,-1,52
 870 1505 870 1505 879 1505 c 2,53,-1
 1320 1505 l 2,54,55
 1344 1505 1344 1505 1344 1450.5 c 128,-1,56
 1344 1396 1344 1396 1329 1380 c 128,-1,57
 1314 1364 1314 1364 1304 1364 c 0,58,59
 1232 1364 1232 1364 1194 1321 c 1,60,-1
 807 761 l 1,61,-1
 1156 204 l 1,62,63
 1198 135 1198 135 1344 141 c 1,0,1
EndSplineSet
EndChar

StartChar: Y
Encoding: 89 89 60
Width: 1284
Flags: HW
HStem: 0 141<270.25 539.544 755 1010.53> 1364 141<-16.5632 107 379.026 510.532 817.921 986 1152 1296.21>
VStem: 544 211<166.25 559>
LayerCount: 2
Fore
SplineSet
268 0 m 2,0,1
 243 0 243 0 243 54 c 128,-1,2
 243 108 243 108 270 134 c 0,3,4
 278 142 278 142 286 141 c 1,5,-1
 435 141 l 2,6,7
 526 141 526 141 540 166 c 0,8,9
 544 174 544 174 544 184 c 2,10,-1
 544 559 l 1,11,-1
 107 1364 l 1,12,-1
 -5 1364 l 2,13,14
 -31 1364 -31 1364 -31 1418 c 128,-1,15
 -31 1472 -31 1472 -17 1488.5 c 128,-1,16
 -3 1505 -3 1505 8 1505 c 2,17,-1
 501 1505 l 1,18,19
 526 1504 526 1504 526 1450 c 128,-1,20
 526 1396 526 1396 511 1380 c 128,-1,21
 496 1364 496 1364 485 1364 c 0,22,23
 379 1364 379 1364 379 1329 c 0,24,25
 379 1319 379 1319 385 1307 c 2,26,-1
 670 735 l 1,27,-1
 986 1364 l 1,28,-1
 830 1364 l 2,29,30
 804 1364 804 1364 804 1419 c 128,-1,31
 804 1474 804 1474 817.5 1489.5 c 128,-1,32
 831 1505 831 1505 840 1505 c 2,33,-1
 1276 1505 l 1,34,35
 1301 1504 1301 1504 1301 1450 c 128,-1,36
 1301 1396 1301 1396 1277 1372 c 0,37,38
 1268 1364 1268 1364 1240 1364 c 0,39,40
 1174 1364 1174 1364 1152 1321 c 2,41,-1
 755 559 l 1,42,-1
 755 141 l 1,43,-1
 1000 141 l 1,44,45
 1026 140 1026 140 1026 86 c 128,-1,46
 1026 32 1026 32 1011 16 c 128,-1,47
 996 0 996 0 985 0 c 2,48,-1
 268 0 l 2,0,1
EndSplineSet
EndChar

StartChar: Z
Encoding: 90 90 61
Width: 1280
Flags: HW
HStem: 0 154<374 1000> 1351 154<258 902>
VStem: 80 134<1208.31 1251.22>
LayerCount: 2
Fore
SplineSet
80 75 m 1,0,-1
 902 1351 l 1,1,-1
 258 1351 l 1,2,-1
 214 1203 l 1,3,4
 205 1177 205 1177 159.5 1177.5 c 128,-1,5
 114 1178 114 1178 88 1208 c 0,6,7
 80 1218 80 1218 80 1228 c 2,8,-1
 80 1232 l 1,9,-1
 118 1505 l 1,10,-1
 1202 1505 l 1,11,-1
 1199 1437 l 1,12,-1
 374 154 l 1,13,-1
 1000 154 l 1,14,-1
 1077 303 l 2,15,16
 1086 322 1086 322 1121.5 322 c 0,17,18
 1157 322 1157 322 1184.5 310.5 c 128,-1,19
 1212 299 1212 299 1212 281 c 0,20,21
 1212 276 1212 276 1211 274 c 2,22,-1
 1118 0 l 1,23,-1
 80 0 l 1,24,-1
 80 75 l 1,0,-1
EndSplineSet
EndChar

StartChar: bracketleft
Encoding: 91 91 62
Width: 654
Flags: HW
HStem: -160 141<380 642.762> 1530 141<380 645.638>
VStem: 185 459<-160 -19.0172 1530.02 1671> 185 195<-19 1530>
LayerCount: 2
Fore
SplineSet
614 -19 m 2,0,1
 644 -19 644 -19 644 -89.5 c 128,-1,2
 644 -160 644 -160 614 -160 c 2,3,-1
 185 -160 l 1,4,-1
 185 1671 l 1,5,-1
 614 1671 l 2,6,7
 647 1671 647 1671 647 1600.5 c 128,-1,8
 647 1530 647 1530 614 1530 c 2,9,-1
 380 1530 l 1,10,-1
 380 -19 l 1,11,-1
 614 -19 l 2,0,1
EndSplineSet
EndChar

StartChar: backslash
Encoding: 92 92 63
Width: 913
Flags: HW
LayerCount: 2
Fore
SplineSet
41 1606 m 1,0,1
 41 1638 41 1638 116 1638 c 0,2,3
 157 1638 157 1638 206 1606 c 1,4,-1
 879 -141 l 1,5,6
 879 -170 879 -170 813 -170 c 128,-1,7
 747 -170 747 -170 707 -141 c 1,8,-1
 41 1606 l 1,0,1
EndSplineSet
EndChar

StartChar: bracketright
Encoding: 93 93 64
Width: 654
Flags: HW
HStem: -160 141<11.2378 274> 1530 141<8.36157 274>
VStem: 10 459<-160 -19.0172 1530.02 1671> 274 195<-19 1530>
LayerCount: 2
Fore
SplineSet
40 1530 m 2,0,1
 7 1530 7 1530 7 1600.5 c 128,-1,2
 7 1671 7 1671 40 1671 c 2,3,-1
 469 1671 l 1,4,-1
 469 -160 l 1,5,-1
 40 -160 l 2,6,7
 10 -160 10 -160 10 -89.5 c 128,-1,8
 10 -19 10 -19 40 -19 c 2,9,-1
 274 -19 l 1,10,-1
 274 1530 l 1,11,-1
 40 1530 l 2,0,1
EndSplineSet
EndChar

StartChar: asciicircum
Encoding: 94 94 65
Width: 1180
Flags: HW
HStem: 834 610
LayerCount: 2
Fore
SplineSet
135 834 m 1,0,1
 59 834 59 834 59 920 c 1,2,-1
 512 1409 l 1,3,4
 542 1444 542 1444 584 1444 c 128,-1,5
 626 1444 626 1444 659 1409 c 2,6,-1
 1118 918 l 1,7,8
 1118 880 1118 880 1098 857 c 128,-1,9
 1078 834 1078 834 1042 834 c 1,10,-1
 580 1239 l 1,11,-1
 135 834 l 1,0,1
EndSplineSet
EndChar

StartChar: underscore
Encoding: 95 95 66
Width: 1178
Flags: HW
HStem: -287 123<0 1178>
LayerCount: 2
Fore
SplineSet
1178 -164 m 1,0,-1
 1178 -287 l 1,1,-1
 0 -287 l 1,2,-1
 0 -164 l 1,3,-1
 1178 -164 l 1,0,-1
EndSplineSet
EndChar

StartChar: grave
Encoding: 96 96 67
Width: 1065
Flags: HW
HStem: 1188 393
VStem: 211 422
LayerCount: 2
Fore
SplineSet
211 1423 m 1,0,1
 211 1532 211 1532 301 1570 c 0,2,3
 326 1581 326 1581 342 1581 c 2,4,5
 360 1581 l 1,6,-1
 633 1296 l 1,7,8
 632 1252 632 1252 604 1220 c 128,-1,9
 576 1188 576 1188 535 1188 c 1,10,-1
 211 1423 l 1,0,1
EndSplineSet
EndChar

StartChar: a
Encoding: 97 97 68
Width: 1045
Flags: HW
HStem: -16 157<304.065 607.886 871 1054.92> 0 141<874.19 1060.83> 429 150<341.17 676> 880 141<382.186 617.5>
VStem: 69 202<171.891 380.579> 116 274<716.314 879.182> 676 195<202.579 429 579 792.955>
LayerCount: 2
Fore
SplineSet
378 880 m 5,0,1
 390 854 390 854 390 807 c 132,-1,2
 390 760 390 760 351 721 c 132,-1,3
 312 682 312 682 253 681 c 261,4,5
 160 681 160 681 126 763 c 4,6,7
 116 788 116 788 116 824 c 4,8,9
 116 896 116 896 192 948 c 5,10,11
 302 1021 302 1021 532 1021 c 4,12,13
 715 1021 715 1021 802 910 c 4,14,15
 871 821 871 821 871 658 c 2,16,17
 871 141 l 5,18,-1
 1039 141 l 6,19,20
 1066 141 1066 141 1066 82 c 4,21,22
 1066 56 1066 56 1056 30.5 c 132,-1,23
 1046 5 1046 5 1025 0 c 4,24,25
 969 -16 969 -16 864.5 -16 c 132,-1,26
 760 -16 760 -16 748 -12.5 c 132,-1,27
 736 -9 736 -9 721.5 4 c 132,-1,28
 707 17 707 17 688 69 c 5,29,30
 566 -20 566 -20 403 -20 c 132,-1,31
 240 -20 240 -20 154.5 59 c 132,-1,32
 69 138 69 138 69 261 c 4,33,34
 69 417 69 417 175 498 c 132,-1,35
 281 579 281 579 429 579 c 6,36,-1
 676 579 l 5,37,38
 676 746 676 746 648.5 794.5 c 132,-1,39
 621 843 621 843 582.5 861.5 c 132,-1,40
 544 880 544 880 480 880 c 6,41,-1
 378 880 l 5,0,1
430 134 m 4,42,43
 556 134 556 134 676 234 c 5,44,-1
 676 429 l 5,45,-1
 472 429 l 6,46,47
 377 429 377 429 340 402 c 5,48,49
 271 354 271 354 271 291 c 4,50,51
 271 173 271 173 369 143 c 4,52,53
 398 134 398 134 430 134 c 4,42,43
EndSplineSet
EndChar

StartChar: b
Encoding: 98 98 69
Width: 1099
Flags: HW
HStem: -14 154<389.552 685.992> 846.5 174.5<413.196 697.764> 1409 174<-41.2405 147> 1409 137<-67.1072 142.108>
VStem: -70 412<1409.02 1545.68> 147 195<179.274 792.155 939 1409> 812 206<280.54 719.866>
LayerCount: 2
Fore
SplineSet
342 207 m 1,0,1
 437 140 437 140 530 140 c 0,2,3
 721 140 721 140 786 322 c 0,4,5
 812 394 812 394 812 503 c 0,6,7
 812 691 812 691 725 780 c 1,8,9
 659 846 659 846 568.5 846.5 c 128,-1,10
 478 847 478 847 396 798 c 0,11,12
 366 780 366 780 342 753 c 1,13,-1
 342 207 l 1,0,1
-29 1409 m 2,14,15
 -70 1409 -70 1409 -70 1491 c 0,16,17
 -70 1536 -70 1536 -44 1546 c 0,18,19
 43 1580 43 1580 297 1583 c 0,20,21
 340 1583 340 1583 342 1498 c 1,22,-1
 342 939 l 1,23,24
 480 1021 480 1021 588 1021 c 0,25,26
 591 1021 591 1021 594 1021 c 0,27,28
 790 1021 790 1021 904 882 c 128,-1,29
 1018 743 1018 743 1018 502.5 c 128,-1,30
 1018 262 1018 262 883 124 c 128,-1,31
 748 -14 748 -14 542 -14 c 0,32,33
 462 -14 462 -14 362 46 c 0,34,35
 338 60 338 60 321 69 c 1,36,-1
 251 -16 l 1,37,38
 241 -22 241 -22 218.5 -22 c 128,-1,39
 196 -22 196 -22 150 0.5 c 128,-1,40
 104 23 104 23 102 44 c 1,41,-1
 147 225 l 1,42,-1
 147 1409 l 1,43,-1
 -29 1409 l 2,14,15
EndSplineSet
EndChar

StartChar: c
Encoding: 99 99 70
Width: 1004
Flags: HW
HStem: -20 154<410.503 723.181> 880 140<422.699 652.725>
VStem: 82 205<272.186 724.131> 646 274<731.742 878.875>
LayerCount: 2
Fore
SplineSet
655 880 m 1,0,-1
 562 880 l 2,1,2
 458 880 458 880 383 801 c 0,3,4
 287 700 287 700 287 510 c 0,5,6
 287 232 287 232 442 158 c 0,7,8
 491 134 491 134 559 134 c 0,9,10
 654.571 134 654.571 134 790 213 c 1,11,-1
 861 256 l 1,12,13
 864 259 864 259 879 259 c 128,-1,14
 894 259 894 259 922 220.5 c 128,-1,15
 950 182 950 182 950 157 c 128,-1,16
 950 132 950 132 939 123 c 0,17,18
 748 -20 748 -20 531 -20 c 128,-1,19
 314 -20 314 -20 198 122.5 c 128,-1,20
 82 265 82 265 82 507.5 c 128,-1,21
 82 750 82 750 222.5 885 c 128,-1,22
 363 1020 363 1020 581.5 1020 c 128,-1,23
 800 1020 800 1020 887 922 c 0,24,25
 920 884 920 884 920 827 c 128,-1,26
 920 770 920 770 880 730.5 c 128,-1,27
 840 691 840 691 783 691 c 256,28,29
 726 691 726 691 686 729.5 c 128,-1,30
 646 768 646 768 646 806 c 128,-1,31
 646 844 646 844 655 880 c 1,0,-1
EndSplineSet
EndChar

StartChar: d
Encoding: 100 100 71
Width: 1147
Flags: HW
HStem: -16 157<391.951 689.461 954 1110.26> 0.5 140.5<955.407 1132.53> 867 154<415.896 729.89> 1409 174<571.913 759> 1409 137<544.637 756.934>
VStem: 83 205<272.927 725.277> 542 412<1409.02 1545.68> 759 195<202.579 830.438 1001 1409>
LayerCount: 2
Fore
SplineSet
583 1409 m 2,0,1
 542 1409 542 1409 542 1488 c 0,2,3
 542 1536 542 1536 569 1546 c 0,4,5
 661 1580 661 1580 909 1583 c 1,6,-1
 910 1583 l 2,7,8
 952 1583 952 1583 954 1498 c 1,9,-1
 954 141 l 1,10,-1
 1122 141 l 2,11,12
 1148 141 1148 141 1148 88 c 128,-1,13
 1148 35 1148 35 1133 18 c 128,-1,14
 1118 1 1118 1 1110.5 0.5 c 128,-1,15
 1103 0 1103 0 1082.5 -2.5 c 0,16,17
 971.8 -16 971.8 -16 899.9 -16 c 128,-1,18
 828 -16 828 -16 808 0 c 0,19,20
 789 16 789 16 770 69 c 1,21,22
 648 -20 648 -20 468.5 -20 c 128,-1,23
 289 -20 289 -20 186 123 c 128,-1,24
 83 266 83 266 83 510.5 c 128,-1,25
 83 755 83 755 225.5 888 c 128,-1,26
 368 1021 368 1021 583 1021 c 256,27,28
 684 1021 684 1021 759 1001 c 1,29,-1
 759 1409 l 1,30,-1
 583 1409 l 2,0,1
510 134 m 0,31,32
 639 134 639 134 759 234 c 1,33,-1
 759 802 l 1,34,35
 676 867 676 867 571 867 c 0,36,37
 384 867 384 867 314 686 c 0,38,39
 288 617 288 617 288 512 c 0,40,41
 288 323 288 323 362 219 c 1,42,43
 424 134 424 134 510 134 c 0,31,32
EndSplineSet
EndChar

StartChar: e
Encoding: 101 101 72
Width: 1041
Flags: HW
HStem: -20 154<411.383 721.332> 455 150<286 757> 867 154<416.047 686.911>
VStem: 82 204<274.827 455 605 743.883> 757 205<605 792.927>
LayerCount: 2
Fore
SplineSet
225.5 887 m 128,-1,1
 368 1020 368 1020 571 1021 c 1,2,-1
 574 1021 l 2,3,4
 760 1021 760 1021 861 904.5 c 128,-1,5
 962 788 962 788 962 569 c 0,6,7
 962 522 962 522 919.5 488.5 c 128,-1,8
 877 455 877 455 813 455 c 2,9,10
 286 455 l 1,11,12
 304 221 304 221 449 155 c 0,13,14
 495 134 495 134 546 134 c 128,-1,15
 597 134 597 134 654 150.5 c 0,16,17
 711 167 711 167 785 213.5 c 128,-1,18
 859 260 859 260 871.5 260 c 128,-1,19
 884 260 884 260 897 248 c 128,-1,20
 910 236 910 236 929 209 c 128,-1,21
 948 182 948 182 948.5 156 c 128,-1,22
 949 130 949 130 938 122 c 0,23,24
 755 -20 755 -20 534 -20 c 128,-1,25
 313 -20 313 -20 197 124 c 128,-1,26
 81 268 81 268 82 511 c 128,-1,0
 83 754 83 754 225.5 887 c 128,-1,1
757 605 m 1,27,28
 758 867 758 867 562 867 c 0,29,30
 463 867 463 867 378 798 c 128,-1,31
 293 729 293 729 286 605 c 1,32,-1
 757 605 l 1,27,28
EndSplineSet
EndChar

StartChar: f
Encoding: 102 102 73
Width: 792
Flags: HW
HStem: 0 141<81.467 248.476 450 687.532> 847 154<77.952 248.476 450 719.749> 1449 134<475.543 540>
VStem: 255 195<164.251 847 1024.25 1406.75> 540 274<1320.22 1446.55>
LayerCount: 2
Fore
SplineSet
64 847 m 1,0,1
 64 1001 64 1001 102 1001 c 2,2,-1
 117 1001 l 2,3,4
 233 1001 233 1001 249 1024 c 0,5,6
 255 1032 255 1032 255 1044 c 2,7,-1
 255 1167 l 1,8,9
 254 1457 254 1457 434 1549 c 0,10,11
 500 1583 500 1583 596 1583 c 128,-1,12
 692 1583 692 1583 744 1550 c 0,13,14
 814 1507 814 1507 814 1417 c 0,15,16
 814 1358 814 1358 775 1319 c 128,-1,17
 736 1280 736 1280 677 1280 c 256,18,19
 584 1280 584 1280 550 1362 c 0,20,21
 540 1387 540 1387 540 1417 c 2,22,-1
 540 1449 l 1,23,-1
 539 1449 l 2,24,25
 458 1449 458 1449 452 1280 c 0,26,27
 450 1232 450 1232 450 1184 c 2,28,-1
 450 1001 l 1,29,-1
 719 1001 l 2,30,31
 744 1001 744 1001 744 942.5 c 128,-1,32
 744 884 744 884 720 856 c 0,33,34
 712 846 712 846 699 847 c 1,35,-1
 450 847 l 1,36,-1
 450 141 l 1,37,-1
 676 141 l 2,38,39
 703 141 703 141 703 86.5 c 128,-1,40
 703 32 703 32 688 16 c 128,-1,41
 673 0 673 0 662 0 c 2,42,-1
 93 0 l 2,43,44
 66 0 66 0 66 54.5 c 128,-1,45
 66 109 66 109 81 125 c 128,-1,46
 96 141 96 141 104 141 c 2,47,-1
 117 141 l 2,48,49
 233 141 233 141 249 164 c 0,50,51
 255 172 255 172 255 184 c 2,52,-1
 255 847 l 1,53,-1
 64 847 l 1,0,1
EndSplineSet
EndChar

StartChar: g
Encoding: 103 103 74
Width: 1130
Flags: HW
HStem: -440 154<309.701 708.292> 45 150<394.584 804.782> 348 154<382.828 618.673> 803 198<932.824 1096.03> 886 130<382.675 634.694>
VStem: 63 195<-236.912 -31.9072> 108 210.5<555.137 820.224> 169 190<217.192 352.595> 691 211<574.339 829.655> 842 195<-180.096 6.37262>
LayerCount: 2
Fore
SplineSet
1011 1001 m 0,0,1
 1128 1001 1128 1001 1128 901 c 0,2,3
 1128 857 1128 857 1097 830 c 128,-1,4
 1066 803 1066 803 1030 803 c 128,-1,5
 994 803 994 803 977 814 c 128,-1,6
 960 825 960 825 942 840 c 0,7,8
 894 881 894 881 826 892 c 1,9,10
 902 806 902 806 902 712 c 0,11,12
 902 539 902 539 772.5 443.5 c 128,-1,13
 643 348 643 348 468 348 c 0,14,15
 429 348 429 348 393 354 c 1,16,17
 359 312 359 312 359 278 c 128,-1,18
 359 244 359 244 393.5 219.5 c 128,-1,19
 428 195 428 195 507.5 195 c 2,20,21
 688 195 l 2,22,23
 884 195 884 195 970 110 c 0,24,25
 1037 44 1037 44 1037 -87 c 128,-1,26
 1037 -218 1037 -218 897.5 -329 c 128,-1,27
 758 -440 758 -440 517 -440 c 128,-1,28
 276 -440 276 -440 156 -342 c 0,29,30
 63 -266 63 -266 63 -159.5 c 0,31,32
 63 -53 63 -53 171 52 c 1,33,-1
 235 117 l 1,34,-1
 211 146 l 1,35,36
 169 195 169 195 169 257 c 128,-1,37
 169 319 169 319 253 408 c 1,38,39
 108 504 108 504 108 673.5 c 0,40,41
 108 843 108 843 236.5 929.5 c 128,-1,42
 365 1016 365 1016 528 1016 c 0,43,44
 587 1016 587 1016 645 1001 c 1,45,46
 828 1001 828 1001 1011 1001 c 0,0,1
258 -137 m 0,47,48
 258 -286 258 -286 499 -286 c 0,49,50
 634 -286 634 -286 738 -226 c 128,-1,51
 842 -166 842 -166 842 -79.5 c 128,-1,52
 842 7 842 7 734 35 c 0,53,54
 696 45 696 45 641 45 c 2,55,-1
 369 45 l 1,56,-1
 335 8 l 2,57,58
 258 -76 258 -76 258 -137 c 0,47,48
372 832 m 128,-1,60
 318 778 318 778 318.5 688.5 c 128,-1,61
 319 599 319 599 367 550.5 c 128,-1,62
 415 502 415 502 477 502 c 0,63,64
 585 502 585 502 638 563.5 c 128,-1,65
 691 625 691 625 691 704.5 c 128,-1,66
 691 784 691 784 641.5 835 c 128,-1,67
 592 886 592 886 532 886 c 0,68,59
 426 886 426 886 372 832 c 128,-1,60
EndSplineSet
EndChar

StartChar: h
Encoding: 104 104 75
Width: 1249
Flags: HW
HStem: 0 141<37.467 203.507 405 583.532 721.468 851 1046 1212.53> 833 188<542.922 783.243> 1409 174<22.8208 210> 1409 137<-2.15649 206.58>
VStem: -7 411<1409 1545.68> 210 195<164.251 753.266 911 1409> 851 195<146.081 773.927>
LayerCount: 2
Fore
SplineSet
34 1409 m 1,0,1
 -2 1410 -2 1410 -7 1489 c 1,2,3
 -7 1536 -7 1536 20 1546 c 0,4,5
 109 1581 109 1581 360 1583 c 0,6,7
 402 1583 402 1583 404 1498 c 0,8,9
 404 1473 404 1473 405 1446 c 1,10,-1
 405 911 l 1,11,12
 534 985 534 985 664 1013 c 0,13,14
 702 1021 702 1021 726 1021 c 0,15,16
 922 1021 922 1021 992 919 c 0,17,18
 1046 841 1046 841 1046 643 c 2,19,-1
 1046 141 l 1,20,-1
 1202 141 l 2,21,22
 1228 141 1228 141 1228 86.5 c 128,-1,23
 1228 32 1228 32 1213 16 c 128,-1,24
 1198 0 1198 0 1187 0 c 2,25,-1
 733 0 l 2,26,27
 706 0 706 0 706 54.5 c 128,-1,28
 706 109 706 109 721 125 c 128,-1,29
 736 141 736 141 747 141 c 0,30,31
 851 141 851 141 851 184 c 2,32,-1
 851 481 l 2,33,34
 851 673 851 673 829 729.5 c 128,-1,35
 807 786 807 786 772.5 809.5 c 128,-1,36
 738 833 738 833 679 833 c 0,37,38
 545 833 545 833 405 721 c 1,39,-1
 405 141 l 1,40,-1
 573 141 l 2,41,42
 599 141 599 141 599 86.5 c 128,-1,43
 599 32 599 32 584 16 c 128,-1,44
 569 0 569 0 558 0 c 2,45,-1
 48 0 l 2,46,47
 22 0 22 0 22 54.5 c 128,-1,48
 22 109 22 109 37 125 c 128,-1,49
 52 141 52 141 60 141 c 2,50,-1
 73 141 l 2,51,52
 189 141 189 141 204 164 c 0,53,54
 210 172 210 172 210 184 c 2,55,-1
 210 1409 l 1,56,-1
 34 1409 l 1,0,1
EndSplineSet
EndChar

StartChar: i
Encoding: 105 105 76
Width: 662
Flags: HW
HStem: 0 141<78.467 245.506 446 624.532> 847 174<63.8208 251> 847 137<36.8928 247.58> 1272 276<222.422 423.261>
VStem: 34 412<847 983.678> 190 274<1312.22 1507.26> 251 195<164.251 847>
LayerCount: 2
Fore
SplineSet
327 1272 m 256,0,1
 234 1272 234 1272 200 1354 c 0,2,3
 190 1379 190 1379 190 1409 c 256,4,5
 190 1504 190 1504 273 1538 c 0,6,7
 298 1548 298 1548 327 1548 c 256,8,9
 385 1548 385 1548 424.5 1508.5 c 128,-1,10
 464 1469 464 1469 464 1409 c 256,11,12
 464 1350 464 1350 425 1311 c 128,-1,13
 386 1272 386 1272 327 1272 c 256,0,1
75 847 m 1,14,15
 34 848 34 848 34 927 c 0,16,17
 34 974 34 974 61 984 c 0,18,19
 150 1019 150 1019 401 1021 c 1,20,-1
 402 1021 l 2,21,22
 444 1021 444 1021 446 936 c 1,23,-1
 446 141 l 1,24,-1
 614 141 l 2,25,26
 640 141 640 141 640 86.5 c 128,-1,27
 640 32 640 32 625 16 c 128,-1,28
 610 0 610 0 599 0 c 2,29,-1
 89 0 l 2,30,31
 63 0 63 0 63 54.5 c 128,-1,32
 63 109 63 109 78 125 c 128,-1,33
 93 141 93 141 101 141 c 2,34,-1
 114 141 l 2,35,36
 231 141 231 141 246 164 c 0,37,38
 252 172 252 172 251 184 c 1,39,-1
 251 847 l 1,40,-1
 75 847 l 1,14,15
EndSplineSet
EndChar

StartChar: j
Encoding: 106 106 77
Width: 568
Flags: HW
HStem: -440 209<113.698 202.295> 847 174<46.3132 234> 847 135<21.4375 231.294> 1272 276<204.812 406.261>
VStem: 17 411<847 981.648> 172 275<1311.71 1507.26> 234 195<-174.301 847>
LayerCount: 2
Fore
SplineSet
58 847 m 1,0,1
 22 848 22 848 17 925 c 1,2,3
 17 971 17 971 43 982 c 1,4,5
 148 1021 148 1021 384 1021 c 2,6,-1
 385 1021 l 2,7,8
 426 1021 426 1021 428 936 c 0,9,10
 428 912 428 912 429 884 c 1,11,-1
 429 68 l 2,12,13
 429 -123 429 -123 337 -271 c 0,14,15
 232 -440 232 -440 45 -440 c 0,16,17
 -48 -440 -48 -440 -82 -358 c 0,18,19
 -92 -333 -92 -333 -92 -303 c 256,20,21
 -92 -208 -92 -208 -9 -174 c 0,22,23
 16 -164 16 -164 45 -164 c 0,24,25
 118 -164 118 -164 144 -231 c 1,26,27
 234 -231 234 -231 234 0 c 2,28,-1
 234 847 l 1,29,-1
 58 847 l 1,0,1
310 1272 m 256,30,31
 216 1272 216 1272 182 1354 c 0,32,33
 172 1379 172 1379 172 1409 c 256,34,35
 172 1504 172 1504 256 1538 c 0,36,37
 282 1548 282 1548 310 1548 c 256,38,39
 368 1548 368 1548 407.5 1508.5 c 128,-1,40
 447 1469 447 1469 447 1409 c 128,-1,41
 447 1349 447 1349 408.5 1310.5 c 128,-1,42
 370 1272 370 1272 310 1272 c 256,30,31
EndSplineSet
EndChar

StartChar: k
Encoding: 107 107 78
Width: 1209
Flags: HW
HStem: 0 141<37.467 203.507 405 521.017 1018.52 1165.53> 860 141<863.003 1068.33> 1409 174<22.8208 210> 1409 137<-2.15649 206.58>
VStem: -7 411<1409 1545.68> 210 195<164.251 1409>
LayerCount: 2
Fore
SplineSet
34 1409 m 1,0,1
 -2 1410 -2 1410 -7 1489 c 1,2,3
 -7 1536 -7 1536 20 1546 c 0,4,5
 109 1581 109 1581 360 1583 c 0,6,7
 402 1583 402 1583 404 1498 c 0,8,9
 404 1473 404 1473 405 1446 c 1,10,-1
 405 141 l 1,11,-1
 510 141 l 2,12,13
 537 141 537 141 537 86 c 128,-1,14
 537 31 537 31 521.5 15.5 c 128,-1,15
 506 0 506 0 496 0 c 2,16,-1
 48 0 l 2,17,18
 22 0 22 0 22 54.5 c 128,-1,19
 22 109 22 109 37 125 c 128,-1,20
 52 141 52 141 60 141 c 2,21,-1
 73 141 l 2,22,23
 189 141 189 141 204 164 c 0,24,25
 210 172 210 172 210 184 c 2,26,-1
 210 1409 l 1,27,-1
 34 1409 l 1,0,1
1154 141 m 0,28,29
 1181 141 1181 141 1181 86.5 c 128,-1,30
 1181 32 1181 32 1166 16 c 128,-1,31
 1151 0 1151 0 1140 0 c 2,32,-1
 879 0 l 1,33,-1
 417 600 l 1,34,-1
 820 1001 l 1,35,-1
 1032 1001 l 2,36,37
 1060 1001 1060 1001 1070 949 c 0,38,39
 1072 935 1072 935 1072 922 c 0,40,41
 1072 860 1072 860 1046 860 c 0,42,43
 949 860 949 860 914 845.5 c 128,-1,44
 879 831 879 831 863 815 c 2,45,-1
 644 593 l 1,46,-1
 994 208 l 2,47,48
 1056 141 1056 141 1154 141 c 0,28,29
EndSplineSet
EndChar

StartChar: l
Encoding: 108 108 79
Width: 621
Flags: HW
HStem: 0 141<37.467 203.507 405 583.532> 1409 174<22.8208 210> 1409 137<-2.15649 206.58>
VStem: -7 411<1409 1545.68> 210 195<164.251 1409>
LayerCount: 2
Fore
SplineSet
34 1409 m 1,0,1
 -2 1410 -2 1410 -7 1489 c 1,2,3
 -7 1536 -7 1536 20 1546 c 0,4,5
 109 1581 109 1581 360 1583 c 0,6,7
 402 1583 402 1583 404 1498 c 0,8,9
 404 1473 404 1473 405 1446 c 1,10,-1
 405 141 l 1,11,-1
 573 141 l 2,12,13
 599 141 599 141 599 86.5 c 128,-1,14
 599 32 599 32 584 16 c 128,-1,15
 569 0 569 0 558 0 c 2,16,-1
 48 0 l 2,17,18
 22 0 22 0 22 54.5 c 128,-1,19
 22 109 22 109 37 125 c 128,-1,20
 52 141 52 141 60 141 c 2,21,-1
 73 141 l 2,22,23
 189 141 189 141 204 164 c 0,24,25
 210 172 210 172 210 184 c 2,26,-1
 210 1409 l 1,27,-1
 34 1409 l 1,0,1
EndSplineSet
EndChar

StartChar: m
Encoding: 109 109 80
Width: 1931
Flags: HW
HStem: 0 141<78.467 244.476 446 624.017 772.25 892 1087 1267.31 1412.25 1533 1728 1908.31> 847 174<61.7284 251 595.397 822.567 1231.7 1463.91> 847 135<37.3579 249.924>
VStem: 251 195<164.251 751.73> 892 195<146.081 751.73> 1533 195<146.081 781.49>
CounterMasks: 1 1c
LayerCount: 2
Fore
SplineSet
1033 880 m 1,0,1
 1276 1021 1276 1021 1441 1021 c 0,2,3
 1504 1021 1504 1021 1566 994.5 c 128,-1,4
 1628 968 1628 968 1664 918 c 0,5,6
 1728 830 1728 830 1728 638 c 2,7,-1
 1728 141 l 1,8,-1
 1883 141 l 2,9,10
 1910 141 1910 141 1910 70.5 c 128,-1,11
 1910 0 1910 0 1873 0 c 2,12,-1
 1414 0 l 2,13,14
 1388 0 1388 0 1388 55 c 128,-1,15
 1388 110 1388 110 1412 134 c 0,16,17
 1420 142 1420 142 1429 141 c 1,18,19
 1533 141 1533 141 1533 184 c 2,20,-1
 1533 481 l 2,21,22
 1533 675 1533 675 1511 735.5 c 128,-1,23
 1489 796 1489 796 1454.5 821.5 c 128,-1,24
 1420 847 1420 847 1361 847 c 0,25,26
 1250 847 1250 847 1087 718 c 1,27,-1
 1087 141 l 1,28,-1
 1242 141 l 2,29,30
 1269 141 1269 141 1269 70.5 c 128,-1,31
 1269 0 1269 0 1228 0 c 2,32,-1
 773 0 l 2,33,34
 747 0 747 0 747 54.5 c 128,-1,35
 747 109 747 109 772 134 c 0,36,37
 780 142 780 142 788 141 c 1,38,39
 892 141 892 141 892 184 c 2,40,-1
 892 481 l 2,41,42
 892 675 892 675 870 735.5 c 128,-1,43
 848 796 848 796 813.5 821.5 c 128,-1,44
 779 847 779 847 720 847 c 0,45,46
 609 847 609 847 446 718 c 1,47,-1
 446 141 l 1,48,-1
 614 141 l 2,49,50
 640 141 640 141 640 87 c 128,-1,51
 640 33 640 33 624.5 16.5 c 128,-1,52
 609 0 609 0 599 0 c 2,53,-1
 91 0 l 2,54,55
 63 0 63 0 63 54.5 c 128,-1,56
 63 109 63 109 78 125 c 128,-1,57
 93 141 93 141 101 141 c 2,58,-1
 114 141 l 2,59,60
 229 141 229 141 245 164 c 0,61,62
 251 172 251 172 251 184 c 2,63,-1
 251 847 l 1,64,-1
 75 847 l 1,65,66
 46 848 46 848 36 898 c 0,67,68
 34 912 34 912 34 924 c 0,69,70
 34 972 34 972 60 982 c 0,71,72
 115 1004 115 1004 209.5 1013 c 128,-1,73
 304 1022 304 1022 328 1022 c 2,74,-1
 353 1022 l 2,75,76
 396 1022 396 1022 410 1007.5 c 0,77,78
 424 993 424 993 425 915 c 1,79,-1
 425 896 l 1,80,81
 576 980 576 980 700 1011 c 0,82,83
 740 1021 740 1021 767 1021 c 0,84,85
 952 1021 952 1021 1033 880 c 1,0,1
EndSplineSet
EndChar

StartChar: n
Encoding: 110 110 81
Width: 1290
Flags: HW
HStem: 0 141<78.467 244.476 446 624.532 762.468 892 1087 1253.53> 847 174<61.7284 251 595.397 822.349> 847 135<36.5625 249.924>
VStem: 251 195<164.251 751.73> 892 195<146.081 781.49>
LayerCount: 2
Fore
SplineSet
75 847 m 1,0,1
 34 848 34 848 34 925 c 0,2,3
 34 972 34 972 60 982 c 0,4,5
 115 1004 115 1004 209.5 1013 c 128,-1,6
 304 1022 304 1022 328 1022 c 2,7,-1
 353 1022 l 2,8,9
 396 1022 396 1022 410 1007.5 c 0,10,11
 424 993 424 993 425 915 c 1,12,-1
 425 896 l 1,13,14
 576 980 576 980 700 1011 c 0,15,16
 740 1021 740 1021 801.5 1021 c 128,-1,17
 863 1021 863 1021 925 994.5 c 128,-1,18
 987 968 987 968 1023 918 c 0,19,20
 1087 830 1087 830 1087 638 c 2,21,-1
 1087 141 l 1,22,-1
 1242 141 l 2,23,24
 1269 141 1269 141 1269 86.5 c 128,-1,25
 1269 32 1269 32 1254 16 c 128,-1,26
 1239 0 1239 0 1228 0 c 2,27,-1
 773 0 l 2,28,29
 747 0 747 0 747 54.5 c 128,-1,30
 747 109 747 109 762 125 c 128,-1,31
 777 141 777 141 788 141 c 0,32,33
 892 141 892 141 892 184 c 2,34,-1
 892 481 l 2,35,36
 892 675 892 675 870 735.5 c 128,-1,37
 848 796 848 796 813.5 821.5 c 128,-1,38
 779 847 779 847 720 847 c 0,39,40
 609 847 609 847 446 718 c 1,41,-1
 446 141 l 1,42,-1
 614 141 l 2,43,44
 640 141 640 141 640 86.5 c 128,-1,45
 640 32 640 32 625 16 c 128,-1,46
 610 0 610 0 599 0 c 2,47,-1
 89 0 l 2,48,49
 63 0 63 0 63 54.5 c 128,-1,50
 63 109 63 109 78 125 c 128,-1,51
 93 141 93 141 101 141 c 2,52,-1
 114 141 l 2,53,54
 229 141 229 141 245 164 c 0,55,56
 251 172 251 172 251 184 c 2,57,-1
 251 847 l 1,58,-1
 75 847 l 1,0,1
EndSplineSet
EndChar

StartChar: o
Encoding: 111 111 82
Width: 1093
Flags: HW
HStem: -20 154<410.136 686.361> 867 154<403.033 686.961>
VStem: 80 205<276.596 732.898> 807 205<279.064 733.928>
LayerCount: 2
Fore
SplineSet
195 128.5 m 128,-1,1
 80 277 80 277 80 517.5 c 128,-1,2
 80 758 80 758 225 889.5 c 128,-1,3
 370 1021 370 1021 580 1021 c 2,4,-1
 583 1021 l 2,5,6
 779 1021 779 1021 895.5 875.5 c 128,-1,7
 1012 730 1012 730 1012 491 c 128,-1,8
 1012 252 1012 252 876 116 c 128,-1,9
 740 -20 740 -20 525 -20 c 128,-1,0
 310 -20 310 -20 195 128.5 c 128,-1,1
550 867 m 0,10,11
 372 868 372 868 310 688 c 0,12,13
 286 618 286 618 285 516 c 1,14,15
 285 327 285 327 356 230.5 c 128,-1,16
 427 134 427 134 551 134 c 128,-1,17
 675 134 675 134 741 239 c 128,-1,18
 807 344 807 344 807 506 c 0,19,20
 806 777 806 777 648 846 c 0,21,22
 600 867 600 867 550 867 c 0,10,11
EndSplineSet
EndChar

StartChar: p
Encoding: 112 112 83
Width: 1177
Flags: HW
HStem: -438 141<51.4678 218.442 420 653.532> -14 154<450.056 764.516> 847 174<31.4796 225 501.363 776.266> 847 133<11.4375 224.671>
VStem: 225 195<-273.749 45 168.413 787.555> 890 205<279.099 718.505>
LayerCount: 2
Fore
SplineSet
399 924 m 1,0,1
 571.128 1022 571.128 1022 678 1022 c 2,2,-1
 712 1022 l 2,3,4
 774 1022 774 1022 849 986 c 128,-1,5
 924 950 924 950 979 884 c 0,6,7
 1095 744 1095 744 1095 501 c 128,-1,8
 1095 258 1095 258 962 122 c 128,-1,9
 829 -14 829 -14 620 -14 c 0,10,11
 538 -14 538 -14 450 31 c 0,12,13
 430 41 430 41 420 45 c 1,14,-1
 420 -297 l 1,15,-1
 642 -297 l 2,16,17
 669 -297 669 -297 669 -351.5 c 128,-1,18
 669 -406 669 -406 654 -422 c 128,-1,19
 639 -438 639 -438 628 -438 c 2,20,-1
 63 -438 l 2,21,22
 36 -438 36 -438 36 -383.5 c 128,-1,23
 36 -329 36 -329 51 -313 c 128,-1,24
 66 -297 66 -297 77 -297 c 0,25,26
 202 -297 202 -297 219 -274 c 0,27,28
 225 -266 225 -266 225 -254 c 2,29,-1
 225 847 l 1,30,-1
 48 847 l 1,31,32
 12 848 12 848 7 926 c 1,33,34
 7 972 7 972 30 980 c 0,35,36
 77 995 77 995 168.5 1008 c 128,-1,37
 260 1021 260 1021 315.5 1021 c 128,-1,38
 371 1021 371 1021 380.5 1016.5 c 0,39,40
 399 1007.74 399 1007.74 399 960 c 2,41,-1
 399 924 l 1,0,1
420 195 m 1,42,43
 489 140 489 140 608 140 c 0,44,45
 798 140 798 140 864 322 c 0,46,47
 890 394 890 394 890 502 c 0,48,49
 890 692 890 692 802 780 c 0,50,51
 736 847 736 847 642 847 c 2,52,-1
 639 847 l 2,53,54
 553 847 553 847 474 794 c 0,55,56
 444 774 444 774 420 746 c 1,57,-1
 420 195 l 1,42,43
EndSplineSet
EndChar

StartChar: q
Encoding: 113 113 84
Width: 1116
Flags: HW
HStem: -439 141<512.468 753.476 954 1128.53> -20 154<410.228 679.961> 867 154<415.561 728.421>
VStem: 83 205<274.643 722.912> 759 195<-273.749 64 200.016 808.214>
LayerCount: 2
Fore
SplineSet
759 64 m 1,0,1
 657 -20 657 -20 455 -20 c 0,2,3
 384 -20 384 -20 309 18 c 0,4,5
 83 133 83 133 83 515 c 0,6,7
 83 755 83 755 225.5 888 c 128,-1,8
 368 1021 368 1021 581 1021 c 0,9,10
 686 1021 686 1021 819 984 c 1,11,-1
 882 1066 l 1,12,13
 888 1068 888 1068 894 1068 c 2,14,-1
 909 1068 l 2,15,16
 968 1068 968 1068 1013 1032 c 0,17,18
 1026 1022 1026 1022 1032 1009 c 1,19,-1
 954 763 l 1,20,-1
 954 -298 l 1,21,-1
 1118 -298 l 2,22,23
 1144 -298 1144 -298 1144 -352.5 c 128,-1,24
 1144 -407 1144 -407 1129 -423 c 128,-1,25
 1114 -439 1114 -439 1103 -439 c 2,26,-1
 524 -439 l 2,27,28
 497 -439 497 -439 497 -384.5 c 128,-1,29
 497 -330 497 -330 512 -314 c 128,-1,30
 527 -298 527 -298 538 -298 c 2,31,-1
 622 -298 l 2,32,33
 738 -298 738 -298 754 -274 c 0,34,35
 760 -266 760 -266 759 -255 c 1,36,-1
 759 64 l 1,0,1
759 234 m 1,37,-1
 759 802 l 1,38,39
 676 867 676 867 571 867 c 0,40,41
 384 867 384 867 314 686 c 0,42,43
 288 617 288 617 288 512 c 0,44,45
 288 323 288 323 361.5 228.5 c 128,-1,46
 435 134 435 134 537 134 c 128,-1,47
 639 134 639 134 759 234 c 1,37,-1
EndSplineSet
EndChar

StartChar: r
Encoding: 114 114 85
Width: 901
Flags: HW
HStem: 0 141<66.8986 251 446 697.047> 734 286<666.163 848.688> 843 177<63.6656 251> 843 139<37.8662 250.488>
VStem: 251 195<146.798 665>
LayerCount: 2
Fore
SplineSet
734 1020 m 1,0,-1
 758.5 1021 l 2,1,2
 778 1021 778 1021 808.5 1005.5 c 128,-1,3
 839 990 839 990 865.5 959 c 128,-1,4
 892 928 892 928 892 869 c 128,-1,5
 892 810 892 810 850 772 c 128,-1,6
 808 734 808 734 755 734 c 128,-1,7
 702 734 702 734 665 773.5 c 128,-1,8
 628 813 628 813 628 860 c 1,9,10
 570 833 570 833 540 798 c 128,-1,11
 510 763 510 763 490 733 c 2,12,-1
 446 665 l 1,13,-1
 446 141 l 1,14,-1
 689 141 l 2,15,16
 712 141 712 141 712 86 c 128,-1,17
 712 31 712 31 697.5 15.5 c 128,-1,18
 683 0 683 0 671 0 c 2,19,-1
 89 0 l 2,20,21
 61 0 61 0 61.5 54.5 c 128,-1,22
 62 109 62 109 88 134 c 0,23,24
 96 141 96 141 143.5 141 c 0,25,26
 251 141 251 141 251 184 c 2,27,-1
 251 843 l 1,28,-1
 75 843 l 2,29,30
 36 843 36 843 36 907.5 c 128,-1,31
 36 972 36 972 62 982 c 0,32,33
 115 1004 115 1004 206.5 1012 c 128,-1,34
 298 1020 298 1020 324 1020 c 2,35,-1
 373 1020 l 1,36,37
 410 1021 410 1021 417 1005.5 c 128,-1,38
 424 990 424 990 423 947 c 2,39,-1
 422 907 l 2,40,41
 422 895 422 895 421.5 883 c 128,-1,42
 421 871 421 871 421 861 c 1,43,44
 595 1020 595 1020 734 1020 c 1,0,-1
EndSplineSet
EndChar

StartChar: s
Encoding: 115 115 86
Width: 926
Flags: HW
HStem: -20 154<349.646 613.131> 880 141<328.546 566.219>
VStem: 76 276<136.701 281.775> 94 184<666.749 829.078> 556 275<722.223 878.136> 662 185<182.608 360.664>
LayerCount: 2
Fore
SplineSet
347 134 m 1,0,-1
 461 134 l 2,1,2
 600 134 600 134 648 219 c 0,3,4
 662 245 662 245 662 276 c 0,5,6
 662 334 662 334 608.5 367 c 128,-1,7
 555 400 555 400 445.5 433.5 c 128,-1,8
 336 467 336 467 279 491.5 c 128,-1,9
 222 516 222 516 180 550 c 0,10,11
 94 622 94 622 94 748 c 0,12,13
 94 933 94 933 301 997 c 0,14,15
 378 1021 378 1021 454 1021 c 0,16,17
 616 1021 616 1021 712 977 c 0,18,19
 832 922 832 922 831 818 c 1,20,21
 832 760 832 760 793 721 c 128,-1,22
 754 682 754 682 694 681 c 257,23,24
 600 681 600 681 566 763 c 0,25,26
 556 788 556 788 556 804 c 128,-1,27
 556 820 556 820 568 880 c 1,28,-1
 469 880 l 2,29,30
 388 880 388 880 349 852 c 0,31,32
 278 803 278 803 278 744 c 256,33,34
 278 666 278 666 418 618 c 2,35,-1
 494 592 l 1,36,37
 687 528 687 528 742 483 c 0,38,39
 847 397 847 397 846 264.5 c 0,40,41
 845 132 845 132 744 56 c 128,-1,42
 643 -20 643 -20 487.5 -20 c 128,-1,43
 332 -20 332 -20 231 18 c 0,44,45
 76 76 76 76 76 180 c 0,46,47
 76 244 76 244 115.5 283 c 128,-1,48
 155 322 155 322 214 322 c 256,49,50
 272 322 272 322 312 283.5 c 128,-1,51
 352 245 352 245 352 196.5 c 128,-1,52
 352 148 352 148 347 134 c 1,0,-1
EndSplineSet
EndChar

StartChar: t
Encoding: 116 116 87
Width: 731
Flags: HW
HStem: -20 165<319.141 620.148> 847 154<40.921 216.623 412 681.749>
VStem: 217 195<149.067 847> 282 130<1191.32 1290.34>
LayerCount: 2
Fore
SplineSet
27 847 m 1,0,1
 27 1001 27 1001 64 1001 c 2,2,-1
 80 1001 l 2,3,4
 235 1001 235 1001 239 1044 c 1,5,-1
 282 1265 l 1,6,7
 294 1320 294 1320 412 1320 c 1,8,-1
 412 1001 l 1,9,-1
 682 1001 l 2,10,11
 707 1001 707 1001 706.5 942.5 c 128,-1,12
 706 884 706 884 682 856 c 0,13,14
 674 846 674 846 662 847 c 1,15,-1
 412 847 l 1,16,-1
 412 257 l 2,17,18
 412 145 412 145 478 145 c 0,19,20
 553 145 553 145 584.5 156.5 c 128,-1,21
 616 168 616 168 634 168 c 128,-1,22
 652 168 652 168 669.5 141.5 c 128,-1,23
 687 115 687 115 687 87 c 256,24,25
 687 57 687 57 668 48 c 0,26,27
 539 -20 539 -20 422 -20 c 0,28,29
 217 -20 217 -20 217 257 c 2,30,-1
 217 847 l 1,31,-1
 27 847 l 1,0,1
EndSplineSet
EndChar

StartChar: u
Encoding: 117 117 88
Width: 1234
Flags: HW
HStem: -20 186<449.991 716.443> -16 157<1018 1206.23> 0 141<1018.15 1210.44> 847 131<21.957 196.946 647.252 818.883> 1001 20G<278.5 370>
VStem: 199 195<222.677 847> 823 195<264 847>
LayerCount: 2
Fore
SplineSet
834 96 m 1,0,1
 675 -20 675 -20 547 -20 c 0,2,3
 295 -20 295 -20 223 182 c 0,4,5
 199 249 199 249 199 338 c 2,6,-1
 199 847 l 1,7,-1
 58 847 l 2,8,9
 21 847 21 847 21 910 c 128,-1,10
 21 973 21 973 41 978 c 0,11,12
 209 1021 209 1021 348 1021 c 0,13,14
 392 1021 392 1021 394 941 c 1,15,-1
 394 411 l 2,16,17
 394 216 394 216 494 178 c 0,18,19
 524 166 524 166 568 166 c 0,20,21
 692 166 692 166 780 232 c 2,22,-1
 823 264 l 1,23,-1
 823 847 l 1,24,-1
 686 847 l 2,25,26
 645 847 645 847 645.5 907.5 c 0,27,28
 646 968 646 968 672 978 c 0,29,30
 714 995 714 995 845 1013.5 c 0,31,32
 976 1032 976 1032 996 1010 c 1,33,34
 1018 992 1018 992 1018 894 c 2,35,-1
 1018 141 l 1,36,-1
 1186 141 l 2,37,38
 1213 141 1213 141 1213 73.5 c 128,-1,39
 1213 6 1213 6 1172 0 c 0,40,41
 1070 -16 1070 -16 990 -16 c 128,-1,42
 910 -16 910 -16 896 -8 c 0,43,44
 866 9 866 9 834 96 c 1,0,1
EndSplineSet
EndChar

StartChar: v
Encoding: 118 118 89
Width: 1096
Flags: HW
HStem: 860 141<18.4368 142 373.021 486.532 669.921 813 989.021 1088.2>
LayerCount: 2
Fore
SplineSet
1092 944 m 0,0,1
 1092 860 1092 860 1044 860 c 0,2,3
 1005 860 1005 860 988.5 850.5 c 128,-1,4
 972 841 972 841 963 817 c 2,5,-1
 629 0 l 2,6,7
 622 -18 622 -18 590 -19 c 128,-1,8
 558 -20 558 -20 522 -20 c 128,-1,9
 486 -20 486 -20 477 0 c 1,10,-1
 142 860 l 1,11,-1
 30 860 l 2,12,13
 4 860 4 860 4 914.5 c 128,-1,14
 4 969 4 969 18 985 c 128,-1,15
 32 1001 32 1001 43 1001 c 2,16,-1
 477 1001 l 2,17,18
 502 1001 502 1001 502 946.5 c 128,-1,19
 502 892 502 892 487 876 c 128,-1,20
 472 860 472 860 461 860 c 0,21,22
 373 860 373 860 373 817 c 1,23,-1
 571 268 l 1,24,-1
 813 860 l 1,25,-1
 682 860 l 2,26,27
 656 860 656 860 656 915 c 128,-1,28
 656 970 656 970 669.5 985.5 c 128,-1,29
 683 1001 683 1001 692 1001 c 2,30,-1
 1067 1001 l 2,31,32
 1092 1001 1092 1001 1092 944 c 0,0,1
EndSplineSet
EndChar

StartChar: w
Encoding: 119 119 90
Width: 1563
Flags: HW
HStem: 860 141<23.4673 162 377 490.532 1133.92 1277 1427 1553.31>
LayerCount: 2
Fore
SplineSet
1531 1001 m 2,0,1
 1555 1001 1555 1001 1555 930.5 c 128,-1,2
 1555 860 1555 860 1515 860 c 0,3,4
 1439 860 1439 860 1427 817 c 2,5,-1
 1183 0 l 2,6,7
 1176 -20 1176 -20 1109.5 -20 c 128,-1,8
 1043 -20 1043 -20 1036 0 c 2,9,-1
 801 587 l 1,10,-1
 562 0 l 2,11,12
 554 -20 554 -20 484 -20 c 2,13,-1
 462 -20 l 2,14,15
 407 -20 407 -20 403 0 c 1,16,-1
 162 860 l 1,17,-1
 33 860 l 2,18,19
 8 860 8 860 8 914.5 c 128,-1,20
 8 969 8 969 23 985 c 128,-1,21
 38 1001 38 1001 47 1001 c 2,22,-1
 481 1001 l 2,23,24
 506 1001 506 1001 506 946.5 c 128,-1,25
 506 892 506 892 491 876 c 128,-1,26
 476 860 476 860 465 860 c 0,27,28
 377 860 377 860 377 817 c 1,29,-1
 513 216 l 1,30,-1
 762 906 l 1,31,32
 771 925 771 925 812 925 c 256,33,34
 856 925 856 925 864 907 c 1,35,-1
 1118 202 l 1,36,-1
 1277 860 l 1,37,-1
 1146 860 l 2,38,39
 1120 860 1120 860 1120 914 c 128,-1,40
 1120 968 1120 968 1133.5 984.5 c 128,-1,41
 1147 1001 1147 1001 1156 1001 c 2,42,-1
 1531 1001 l 2,0,1
EndSplineSet
EndChar

StartChar: x
Encoding: 120 120 91
Width: 1174
Flags: HW
HStem: 0 141<40.3384 209.312 367.004 452.532 674.25 771 956.946 1123.53> 860 141<57.952 192 436.016 526.017 699.921 836 980.007 1114.53>
LayerCount: 2
Fore
SplineSet
1113 141 m 1,0,1
 1139 140 1139 140 1139 86 c 128,-1,2
 1139 32 1139 32 1124 16 c 128,-1,3
 1109 0 1109 0 1098 0 c 2,4,-1
 673 0 l 2,5,6
 646 0 646 0 646 54 c 128,-1,7
 646 108 646 108 674 134 c 0,8,9
 682 141 682 141 688 141 c 2,10,-1
 771 141 l 1,11,-1
 550 415 l 1,12,-1
 374 171 l 2,13,14
 367 161 367 161 367 154 c 256,15,16
 367 141 367 141 385 141 c 2,17,-1
 442 141 l 1,18,19
 468 140 468 140 468 86 c 128,-1,20
 468 32 468 32 453 16 c 128,-1,21
 438 0 438 0 427 0 c 2,22,-1
 61 0 l 2,23,24
 35 0 35 0 35 54 c 128,-1,25
 35 108 35 108 61 134 c 0,26,27
 68 141 68 141 99 141 c 128,-1,28
 130 141 130 141 166 158 c 128,-1,29
 202 175 202 175 219 196 c 2,30,-1
 465 520 l 1,31,-1
 192 860 l 1,32,-1
 70 860 l 2,33,34
 43 860 43 860 43 914 c 128,-1,35
 43 968 43 968 57.5 984.5 c 128,-1,36
 72 1001 72 1001 82 1001 c 2,37,-1
 519 1001 l 2,38,39
 542 1001 542 1001 542 946 c 128,-1,40
 542 891 542 891 526.5 875.5 c 128,-1,41
 511 860 511 860 500 860 c 0,42,43
 436 860 436 860 436 842 c 0,44,45
 436 835 436 835 443 826 c 2,46,-1
 633 588 l 1,47,-1
 836 860 l 1,48,-1
 712 860 l 2,49,50
 686 860 686 860 686 915 c 128,-1,51
 686 970 686 970 699.5 985.5 c 128,-1,52
 713 1001 713 1001 722 1001 c 2,53,-1
 1106 1001 l 1,54,55
 1130 1000 1130 1000 1130 946 c 128,-1,56
 1130 892 1130 892 1115 876 c 128,-1,57
 1100 860 1100 860 1090 860 c 0,58,59
 1014 860 1014 860 980 817 c 2,60,-1
 715 486 l 1,61,-1
 945 197 l 1,62,63
 996 136 996 136 1113 141 c 1,0,1
EndSplineSet
EndChar

StartChar: y
Encoding: 121 121 92
Width: 1098
Flags: HW
HStem: -440 154<317 377.569> 860 141<20.4368 144 375.021 488.017 671.921 815 991.021 1090.2>
VStem: 46 271<-285.131 -172.928>
LayerCount: 2
Fore
SplineSet
172 -126 m 2,0,1
 314.681 -126 314.681 -126 317 -286 c 1,2,3
 349 -286 349 -286 372.5 -250 c 128,-1,4
 396 -214 396 -214 413.5 -173 c 128,-1,5
 431 -132 431 -132 443.5 -95.5 c 128,-1,6
 456 -59 456 -59 464.5 -31 c 128,-1,7
 473 -3 473 -3 476 6 c 1,8,-1
 144 860 l 1,9,-1
 32 860 l 2,10,11
 6 860 6 860 6 914.5 c 128,-1,12
 6 969 6 969 20 985 c 128,-1,13
 34 1001 34 1001 45 1001 c 2,14,-1
 479 1001 l 2,15,16
 504 1001 504 1001 504 947 c 128,-1,17
 504 893 504 893 488.5 876.5 c 128,-1,18
 473 860 473 860 463 860 c 0,19,20
 375 860 375 860 375 817 c 1,21,-1
 578 223 l 1,22,-1
 815 860 l 1,23,-1
 684 860 l 2,24,25
 658 860 658 860 658 915 c 128,-1,26
 658 970 658 970 671.5 985.5 c 128,-1,27
 685 1001 685 1001 694 1001 c 2,28,-1
 1069 1001 l 2,29,30
 1094 1001 1094 1001 1094 944 c 0,31,32
 1094 860 1094 860 1046 860 c 0,33,34
 1007 860 1007 860 990.5 850.5 c 128,-1,35
 974 841 974 841 965 817 c 2,36,-1
 543 -260 l 2,37,38
 511 -343 511 -343 439 -391.5 c 128,-1,39
 367 -440 367 -440 262 -440 c 0,40,41
 122 -440 122 -440 66 -348 c 0,42,43
 46 -314 46 -314 46.5 -259 c 128,-1,44
 47 -204 47 -204 85.5 -165 c 128,-1,45
 124 -126 124 -126 171 -126 c 2,46,-1
 172 -126 l 2,0,1
EndSplineSet
EndChar

StartChar: z
Encoding: 122 122 93
Width: 1007
Flags: HW
HStem: 0 150<354 769> 699 302<123 235.469> 851 150<265 658>
VStem: 75 160<703.522 793.565>
LayerCount: 2
Fore
SplineSet
75 736 m 0,0,1
 75 739 75 739 79 759 c 2,2,-1
 123 1001 l 1,3,-1
 923 1001 l 1,4,-1
 923 890 l 1,5,-1
 354 150 l 1,6,-1
 769 150 l 1,7,-1
 816 259 l 2,8,9
 826 280 826 280 858 280 c 0,10,11
 890 280 890 280 915 268 c 128,-1,12
 940 256 940 256 940 238 c 0,13,14
 940 233 940 233 939 231 c 2,15,-1
 867 0 l 1,16,-1
 89 0 l 1,17,-1
 89 110 l 1,18,-1
 658 851 l 1,19,-1
 265 851 l 1,20,-1
 235 741 l 2,21,22
 224 699 224 699 149.5 699 c 128,-1,23
 75 699 75 699 75 736 c 0,0,1
EndSplineSet
EndChar

StartChar: braceleft
Encoding: 123 123 94
Width: 667
Flags: HW
HStem: -160 141<423.512 663.845> 611 139<63.593 182.785> 1530 141<428.946 663.66>
VStem: 206 195<6.92395 573.144 789.402 1500.93>
LayerCount: 2
Fore
SplineSet
637 -19 m 2,0,1
 665 -19 665 -19 665 -89.5 c 128,-1,2
 665 -160 665 -160 637 -160 c 2,3,-1
 473 -160 l 2,4,5
 334 -160 334 -160 270 -91.5 c 128,-1,6
 206 -23 206 -23 206 150 c 2,7,-1
 206 471 l 2,8,9
 206 547 206 547 184 574 c 128,-1,10
 162 601 162 601 91 611 c 0,11,12
 62 615 62 615 62 679.5 c 128,-1,13
 62 744 62 744 91 750 c 1,14,15
 161 760 161 760 183.5 788.5 c 128,-1,16
 206 817 206 817 206 891 c 2,17,-1
 206 1352 l 2,18,19
 206 1603 206 1603 356 1654 c 0,20,21
 406 1671 406 1671 473 1671 c 2,22,-1
 637 1671 l 2,23,24
 665 1671 665 1671 665 1602 c 256,25,26
 665 1530 665 1530 637 1530 c 2,27,-1
 558 1530 l 2,28,29
 458 1530 458 1530 429.5 1487.5 c 128,-1,30
 401 1445 401 1445 401 1346 c 2,31,-1
 401 903 l 1,32,33
 402 778 402 778 304 716 c 0,34,35
 270 694 270 694 221 682 c 1,36,37
 401 630 401 630 401 457 c 2,38,-1
 401 148 l 2,39,40
 401 56 401 56 420 30 c 0,41,42
 455 -19 455 -19 558 -19 c 2,43,-1
 637 -19 l 2,0,1
EndSplineSet
EndChar

StartChar: bar
Encoding: 124 124 95
Width: 516
Flags: HW
VStem: 181 154<-481.25 1634.25>
LayerCount: 2
Fore
SplineSet
335 -455 m 2,0,1
 335 -483 335 -483 258 -483 c 128,-1,2
 181 -483 181 -483 181 -455 c 2,3,-1
 181 1608 l 2,4,5
 181 1636 181 1636 258 1636 c 128,-1,6
 335 1636 335 1636 335 1608 c 2,7,-1
 335 -455 l 2,0,1
EndSplineSet
EndChar

StartChar: braceright
Encoding: 125 125 96
Width: 667
Flags: HW
HStem: -160 141<3.15527 237.108> 609 141<484.215 594.169> 1530 141<3.33984 237.89>
VStem: 266 195<20.2026 573.661 788.369 1500.62>
LayerCount: 2
Fore
SplineSet
2 1602 m 256,0,1
 2 1671 2 1671 30 1671 c 0,2,3
 114 1671 114 1671 198 1671 c 0,4,5
 331 1671 331 1671 395.5 1598.5 c 128,-1,6
 460 1526 460 1526 461 1352 c 1,7,-1
 461 883 l 2,8,9
 461 815 461 815 483.5 787.5 c 128,-1,10
 506 760 506 760 576 750 c 1,11,12
 605 744 605 744 605 692.5 c 128,-1,13
 605 641 605 641 594.5 626.5 c 128,-1,14
 584 612 584 612 543 606.5 c 0,15,16
 502 601 502 601 481.5 574.5 c 128,-1,17
 461 548 461 548 461 478 c 2,18,-1
 461 150 l 2,19,20
 461 -100 461 -100 311 -145 c 0,21,22
 261 -160 261 -160 194 -160 c 2,23,-1
 30 -160 l 2,24,25
 2 -160 2 -160 2 -89.5 c 128,-1,26
 2 -19 2 -19 30 -19 c 2,27,28
 113 -19 l 2,29,30
 210 -19 210 -19 238 19 c 128,-1,31
 266 57 266 57 266 157 c 2,32,-1
 266 457 l 2,33,34
 266 629 266 629 446 682 c 1,35,36
 266 727 266 727 266 903 c 2,37,-1
 266 1346 l 2,38,39
 266 1446 266 1446 246 1476 c 0,40,41
 209 1530 209 1530 109 1530 c 2,42,-1
 30 1530 l 2,43,44
 2 1530 2 1530 2 1602 c 256,0,1
EndSplineSet
EndChar

StartChar: asciitilde
Encoding: 126 126 97
Width: 1218
Flags: HW
HStem: 442 168<693.938 938.741> 574.5 181.5<267.056 531.476>
LayerCount: 2
Fore
SplineSet
203 465 m 1,0,1
 166 466 166 466 137.5 493 c 128,-1,2
 109 520 109 520 109 557 c 1,3,4
 174 676 174 676 288 732 c 0,5,6
 336 756 336 756 380.5 756 c 128,-1,7
 425 756 425 756 462 745 c 0,8,9
 527.552 725.511 527.552 725.511 626 683 c 1,10,11
 710 648 l 1,12,13
 806 610 806 610 841 610 c 128,-1,14
 876 610 876 610 901 625.5 c 128,-1,15
 926 641 926 641 947 662.5 c 128,-1,16
 968 684 968 684 985 705.5 c 128,-1,17
 1002 727 1002 727 1016 739 c 1,18,19
 1054 739 1054 739 1084 710.5 c 128,-1,20
 1114 682 1114 682 1114 647 c 1,21,22
 1060 526 1060 526 946 467 c 0,23,24
 898 442 898 442 849 442 c 0,25,26
 747.176 442 747.176 442 588 508 c 1,27,-1
 504 540 l 1,28,29
 410 574 410 574 391.5 574 c 128,-1,30
 373 574 373 574 355.5 574.5 c 128,-1,31
 338 575 338 575 312 561 c 128,-1,32
 286 547 286 547 265 529 c 128,-1,33
 244 511 244 511 229 492.5 c 128,-1,34
 214 474 214 474 203 465 c 1,0,1
EndSplineSet
EndChar

StartChar: exclamdown
Encoding: 161 161 99
Width: 568
Flags: HW
HStem: -439 21G<229.75 321.25> 761 279<187.316 380.838>
VStem: 144 275<-426.5 -153.048 801.74 999.772> 200 169<300.574 620.797>
LayerCount: 2
Fore
SplineSet
409 956 m 0,0,1
 419 930 419 930 419 885 c 0,2,3
 419 840 419 840 382 800.5 c 128,-1,4
 345 761 345 761 286 761 c 256,5,6
 228 761 228 761 186 801 c 128,-1,7
 144 841 144 841 144 901.5 c 0,8,9
 144 962 144 962 186 1001 c 128,-1,10
 228 1040 228 1040 286 1040 c 256,11,12
 376 1040 376 1040 409 956 c 0,0,1
283 626 m 0,13,14
 369 626 369 626 369 582 c 1,15,-1
 416 -409 l 1,16,17
 367 -439 367 -439 275.5 -439 c 128,-1,18
 184 -439 184 -439 150 -407 c 1,19,-1
 200 585 l 1,20,21
 200 612 200 612 254 623 c 0,22,23
 268 626 268 626 283 626 c 0,13,14
EndSplineSet
EndChar

StartChar: cent
Encoding: 162 162 100
Width: 1002
Flags: HW
HStem: -27 355<467.848 606.984> 1075 139<406.864 467 608 637.868>
VStem: 65 205<466.235 921.121> 467 141<-24.093 180.594 1210.39 1428.88> 629 273<925.195 1073.88>
LayerCount: 2
Fore
SplineSet
467 1403 m 1,0,1
 496 1432 496 1432 537.5 1432 c 128,-1,2
 579 1432 579 1432 608 1403 c 1,3,-1
 608 1214 l 1,4,5
 804 1202 804 1202 876 1108 c 1,6,7
 902 1072 902 1072 901.5 1017 c 128,-1,8
 901 962 901 962 862.5 924 c 128,-1,9
 824 886 824 886 766 886 c 256,10,11
 708 886 708 886 668.5 924 c 128,-1,12
 629 962 629 962 629 1020 c 0,13,14
 629 1039 629 1039 638 1075 c 1,15,-1
 545 1075 l 2,16,17
 441 1075 441 1075 366 996 c 0,18,19
 270 895 270 895 270 705 c 0,20,21
 270 426 270 426 425 352 c 0,22,23
 473 328 473 328 523 328 c 2,24,-1
 550 328 l 2,25,26
 576 328 576 328 636 345 c 128,-1,27
 696 362 696 362 772 408 c 2,28,-1
 844 451 l 2,29,30
 848 454 848 454 862 454 c 128,-1,31
 876 454 876 454 904 415 c 128,-1,32
 932 376 932 376 932 351 c 128,-1,33
 932 326 932 326 914 312 c 0,34,35
 871 278 871 278 788.5 236.5 c 128,-1,36
 706 195 706 195 608 182 c 1,37,-1
 608 0 l 1,38,39
 583 -27 583 -27 538.5 -27 c 128,-1,40
 494 -27 494 -27 467 0 c 1,41,-1
 467 176 l 1,42,43
 275 190 275 190 170 332 c 128,-1,44
 65 474 65 474 65 696 c 128,-1,45
 65 918 65 918 175.5 1048.5 c 128,-1,46
 286 1179 286 1179 467 1209 c 1,47,-1
 467 1403 l 1,0,1
EndSplineSet
EndChar

StartChar: sterling
Encoding: 163 163 101
Width: 1164
Flags: HW
HStem: -20 310<106.897 344.844> -20 154<531.003 879.272> 606 154<120 388 599 886.048> 1345 180<640.662 924.372>
VStem: 388 211<314.682 606 760 1292.9> 966 139<214.668 288.498>
LayerCount: 2
Fore
SplineSet
862 760 m 2,0,1
 894 760 894 760 901 685 c 257,2,3
 901 639 901 639 886.5 622.5 c 128,-1,4
 872 606 872 606 862 606 c 2,5,-1
 599 606 l 1,6,7
 595 567 595 567 592 521.5 c 128,-1,8
 589 476 589 476 574 389 c 128,-1,9
 559 302 559 302 499 190 c 1,10,11
 648 134 648 134 740.5 134 c 128,-1,12
 833 134 833 134 864 153 c 0,13,14
 919 187 919 187 966 282 c 0,15,16
 978 305 978 305 1014 305 c 128,-1,17
 1050 305 1050 305 1075.5 289 c 128,-1,18
 1101 273 1101 273 1105 247 c 1,19,20
 1022 -20 1022 -20 826 -20 c 0,21,22
 646 -20 646 -20 396 52 c 1,23,24
 383 46 383 46 362.5 34 c 0,25,26
 270.25 -20 270.25 -20 210.125 -20 c 128,-1,27
 150 -20 150 -20 105.5 24.5 c 128,-1,28
 61 69 61 69 61 134 c 256,29,30
 61 200 61 200 106 245 c 128,-1,31
 151 290 151 290 209 290 c 128,-1,32
 267 290 267 290 301 270 c 2,33,-1
 347 244 l 1,34,35
 388 348 388 348 388 606 c 1,36,-1
 156 606 l 2,37,38
 120 606 120 606 116 682 c 0,39,40
 115 707 115 707 126 733.5 c 128,-1,41
 137 760 137 760 156 760 c 2,42,-1
 388 760 l 1,43,-1
 388 1193 l 2,44,45
 388 1360 388 1360 506 1450 c 0,46,47
 604 1525 604 1525 743 1525 c 2,48,-1
 747 1525 l 2,49,50
 912 1525 912 1525 986 1479 c 0,51,52
 1007 1465 1007 1465 1007 1420 c 256,53,54
 1006 1351 1006 1351 966 1309 c 0,55,56
 954 1296 954 1296 942 1296 c 128,-1,57
 930 1296 930 1296 878 1320.5 c 128,-1,58
 826 1345 826 1345 738 1345 c 2,59,-1
 735 1345 l 2,60,61
 669 1345 669 1345 634 1294.5 c 128,-1,62
 599 1244 599 1244 599 1110 c 2,63,-1
 599 760 l 1,64,-1
 862 760 l 2,0,1
EndSplineSet
EndChar

StartChar: currency
Encoding: 164 164 102
Width: 1184
Flags: HW
HStem: 175 190<446.794 735.825> 938 183<448.866 735.321>
VStem: 133 201<485.128 815.596> 849 191<485.375 816.837>
LayerCount: 2
Fore
SplineSet
820 250 m 1,0,1
 709 175 709 175 587 175 c 128,-1,2
 465 175 465 175 359 244 c 1,3,-1
 246 126 l 1,4,5
 189 126 189 126 144 171 c 128,-1,6
 99 216 99 216 99 267 c 1,7,-1
 215 384 l 1,8,9
 133 509 133 509 133 650.5 c 128,-1,10
 133 792 133 792 213 912 c 1,11,-1
 97 1028 l 1,12,13
 98 1087 98 1087 143 1129 c 128,-1,14
 188 1171 188 1171 244 1171 c 1,15,-1
 360 1055 l 1,16,17
 463 1121 463 1121 586.5 1121 c 128,-1,18
 710 1121 710 1121 818 1048 c 1,19,-1
 940 1173 l 1,20,-1
 943 1173 l 2,21,22
 997 1173 997 1173 1042 1131 c 128,-1,23
 1087 1089 1087 1089 1087 1032 c 1,24,-1
 962 905 l 1,25,26
 1040 784 1040 784 1040 648.5 c 128,-1,27
 1040 513 1040 513 966 395 c 1,28,-1
 1089 271 l 1,29,30
 1089 218 1089 218 1043 173 c 128,-1,31
 997 128 997 128 943 128 c 0,32,33
 942 128 942 128 941 128 c 2,34,-1
 820 250 l 1,0,1
777.5 447 m 128,-1,36
 849 529 849 529 849 651 c 128,-1,37
 849 773 849 773 777 855.5 c 128,-1,38
 705 938 705 938 591.5 938 c 128,-1,39
 478 938 478 938 406 854.5 c 128,-1,40
 334 771 334 771 334 651 c 128,-1,41
 334 531 334 531 405 448 c 128,-1,42
 476 365 476 365 591 365 c 128,-1,35
 706 365 706 365 777.5 447 c 128,-1,36
EndSplineSet
EndChar

StartChar: yen
Encoding: 165 165 103
Width: 1275
Flags: HW
HStem: 0 141<360.25 541.544 757 956.532> 412 154<180.033 543 760 1092.46> 785 154<186.468 381 912 1092.46> 1364 141<73.4368 197 446.026 577.532 819.921 918 1068.54 1212.21>
VStem: 546 211<166.25 412>
LayerCount: 2
Fore
SplineSet
212 785 m 2,0,1
 178 785 178 785 171 861 c 257,2,3
 171 907 171 907 186 923 c 128,-1,4
 201 939 201 939 212 939 c 2,5,-1
 381 939 l 1,6,-1
 197 1364 l 1,7,-1
 85 1364 l 2,8,9
 59 1364 59 1364 59 1418.5 c 128,-1,10
 59 1473 59 1473 73 1489 c 128,-1,11
 87 1505 87 1505 98 1505 c 2,12,-1
 568 1505 l 2,13,14
 593 1505 593 1505 593 1450.5 c 128,-1,15
 593 1396 593 1396 578 1380 c 128,-1,16
 563 1364 563 1364 552 1364 c 0,17,18
 446 1364 446 1364 446 1329 c 0,19,20
 446 1325 446 1325 452 1307 c 1,21,-1
 679 782 l 1,22,-1
 918 1364 l 1,23,-1
 832 1364 l 2,24,25
 806 1364 806 1364 806 1419 c 128,-1,26
 806 1474 806 1474 819.5 1489.5 c 128,-1,27
 833 1505 833 1505 842 1505 c 2,28,-1
 1192 1505 l 2,29,30
 1217 1505 1217 1505 1217 1450.5 c 128,-1,31
 1217 1396 1217 1396 1193 1372 c 0,32,33
 1184 1364 1184 1364 1156 1364 c 0,34,35
 1085 1364 1085 1364 1068 1321 c 2,36,-1
 912 939 l 1,37,-1
 1058 939 l 2,38,39
 1092 939 1092 939 1096 864 c 0,40,41
 1097 842 1097 842 1088 813 c 1,42,43
 1078 785 1078 785 1058 785 c 2,44,-1
 849 785 l 1,45,-1
 760 566 l 1,46,-1
 1058 566 l 2,47,48
 1092 566 1092 566 1096 492 c 0,49,50
 1097 469 1097 469 1088 440 c 1,51,52
 1078 412 1078 412 1058 412 c 2,53,-1
 757 412 l 1,54,-1
 757 141 l 1,55,-1
 946 141 l 2,56,57
 972 141 972 141 972 86.5 c 128,-1,58
 972 32 972 32 957 16 c 128,-1,59
 942 0 942 0 931 0 c 2,60,-1
 358 0 l 2,61,62
 333 0 333 0 333 53.5 c 128,-1,63
 333 107 333 107 360 134 c 0,64,65
 368 142 368 142 376 141 c 1,66,-1
 437 141 l 2,67,68
 528 141 528 141 542 166 c 0,69,70
 546 174 546 174 546 184 c 2,71,-1
 546 412 l 1,72,-1
 216 412 l 2,73,74
 188 412 188 412 178 464 c 0,75,76
 176 476 176 476 176 496 c 0,77,78
 176 516 176 516 186.5 541 c 128,-1,79
 197 566 197 566 216 566 c 2,80,-1
 543 566 l 1,81,-1
 448 785 l 1,82,-1
 212 785 l 2,0,1
EndSplineSet
EndChar

StartChar: brokenbar
Encoding: 166 166 104
Width: 522
Flags: HW
VStem: 184 154<-481.25 516 694 1634.25>
LayerCount: 2
Fore
SplineSet
184 1608 m 2,0,1
 184 1636 184 1636 261 1636 c 128,-1,2
 338 1636 338 1636 338 1608 c 2,3,-1
 338 694 l 1,4,-1
 184 694 l 1,5,-1
 184 1608 l 2,0,1
338 -455 m 2,6,7
 338 -483 338 -483 261 -483 c 128,-1,8
 184 -483 184 -483 184 -455 c 2,9,-1
 184 516 l 1,10,-1
 338 516 l 1,11,-1
 338 -455 l 2,6,7
EndSplineSet
EndChar

StartChar: section
Encoding: 167 167 105
Width: 1148
Flags: HW
HStem: -375 153<348.266 713.945> 1144 368<783.328 956.688> 1429 154<414.299 765.741>
VStem: 67 307<-186.56 14.0734> 102 211<680.758 851.841 1103.32 1337.5> 738 307<1190.93 1391.13> 849 211<-101.502 143.043 385.502 555.374>
LayerCount: 2
Fore
SplineSet
768 1393 m 1,0,1
 708 1429 708 1429 626 1429 c 0,2,3
 474 1429 474 1429 393 1370.5 c 128,-1,4
 312 1312 312 1312 312 1220 c 128,-1,5
 312 1128 312 1128 400 1064 c 1,6,7
 442 1032 442 1032 502 1002 c 2,8,-1
 638 932 l 1,9,10
 859 822 859 822 959.5 723 c 128,-1,11
 1060 624 1060 624 1060 476 c 1,12,-1
 1059 476 l 1,13,14
 1059 392 1059 392 1000 238 c 1,15,16
 1060 148 1060 148 1060 48 c 0,17,18
 1060 -145 1060 -145 916.5 -260 c 128,-1,19
 773 -375 773 -375 555 -375 c 0,20,21
 553 -375 553 -375 551 -375 c 0,22,23
 381 -375 381 -375 236 -304 c 0,24,25
 67 -221 67 -221 67 -95 c 0,26,27
 67 -29 67 -29 112 16 c 128,-1,28
 157 61 157 61 221 61 c 256,29,30
 286 61 286 61 330 15.5 c 128,-1,31
 374 -30 374 -30 374 -95 c 0,32,33
 374 -125 374 -125 362.5 -149 c 128,-1,34
 351 -173 351 -173 346 -187 c 1,35,36
 411 -222 411 -222 507 -222 c 0,37,38
 667 -222 667 -222 760 -149 c 1,39,40
 849 -76 849 -76 849 38 c 128,-1,41
 849 152 849 152 644 260 c 1,42,-1
 375 396 l 1,43,44
 102 540 102 540 102 773 c 0,45,46
 102 863 102 863 140 952 c 2,47,-1
 161 1001 l 1,48,49
 101 1092 101 1092 101 1196 c 0,50,51
 101 1387 101 1387 243.5 1485 c 128,-1,52
 386 1583 386 1583 597 1583 c 1,53,54
 752 1582 752 1582 888 1512 c 0,55,56
 1045 1432 1045 1432 1045 1300 c 0,57,58
 1045 1235 1045 1235 1001 1189.5 c 128,-1,59
 957 1144 957 1144 892 1144 c 256,60,61
 827 1144 827 1144 782.5 1188.5 c 128,-1,62
 738 1233 738 1233 738 1283 c 128,-1,63
 738 1333 738 1333 768 1393 c 1,0,1
843 384 m 1,64,65
 849 408 849 408 849 451 c 128,-1,66
 849 494 849 494 821 536 c 0,67,68
 768 615 768 615 643 682 c 1,69,-1
 318 853 l 1,70,71
 313 825 313 825 313 789 c 0,72,73
 313 713 313 713 391.5 645 c 128,-1,74
 470 577 470 577 632 493 c 2,75,-1
 843 384 l 1,64,65
EndSplineSet
EndChar

StartChar: dieresis
Encoding: 168 168 106
Width: 1065
Flags: HW
HStem: 1190 276<216.162 411.776 662.694 861.777>
VStem: 178 273<1230.22 1424.75> 631 272<1222.03 1425.78>
LayerCount: 2
Fore
SplineSet
178 1327 m 256,0,1
 178 1421 178 1421 258 1456 c 0,2,3
 282 1466 282 1466 329 1466 c 0,4,5
 376 1466 376 1466 414 1426 c 128,-1,6
 452 1386 452 1386 451 1327 c 257,7,8
 452 1268 452 1268 413 1229 c 128,-1,9
 374 1190 374 1190 313 1190 c 128,-1,10
 252 1190 252 1190 215 1229 c 128,-1,11
 178 1268 178 1268 178 1327 c 256,0,1
766 1190 m 256,12,13
 674 1190 674 1190 641 1272 c 0,14,15
 631 1297 631 1297 631 1327 c 256,16,17
 631 1422 631 1422 711 1456 c 0,18,19
 736 1466 736 1466 766 1466 c 256,20,21
 824 1466 824 1466 863 1427 c 128,-1,22
 902 1388 902 1388 903 1327 c 257,23,24
 903 1233 903 1233 821 1200 c 0,25,26
 796 1190 796 1190 766 1190 c 256,12,13
EndSplineSet
EndChar

StartChar: copyright
Encoding: 169 169 107
Width: 1686
Flags: HW
HStem: -20 118<605.115 1084.05> 223 153<692.948 1001.8> 1113 153.5<705.699 929.571> 1407 118<608.721 1083.74>
VStem: 67 131<509.188 992.73> 365.5 204.5<515.276 965.879> 929 274<977.227 1102.72> 1488 131<507.655 996.347>
LayerCount: 2
Fore
SplineSet
67 756 m 2,0,1
 67 965 67 965 171 1141.5 c 128,-1,2
 275 1318 275 1318 453.5 1421.5 c 128,-1,3
 632 1525 632 1525 843 1525 c 256,4,5
 1054 1525 1054 1525 1233 1421.5 c 128,-1,6
 1412 1318 1412 1318 1516 1140.5 c 128,-1,7
 1620 963 1620 963 1619 752 c 257,8,9
 1620 541 1620 541 1516 364.5 c 128,-1,10
 1412 188 1412 188 1233 84 c 128,-1,11
 1054 -20 1054 -20 843 -20 c 256,12,13
 522 -20 522 -20 294 205 c 0,14,15
 150 347 150 347 94 546 c 0,16,17
 67 642 67 642 67 745 c 2,18,-1
 67 756 l 2,0,1
247.5 1007 m 128,-1,20
 198 888 198 888 198 751.5 c 128,-1,21
 198 615 198 615 247.5 496 c 128,-1,22
 297 377 297 377 384 288.5 c 128,-1,23
 471 200 471 200 589 149 c 128,-1,24
 707 98 707 98 843 98 c 256,25,26
 1114 98 1114 98 1301 288 c 128,-1,27
 1488 478 1488 478 1488 751 c 128,-1,28
 1488 1024 1488 1024 1300.5 1215.5 c 128,-1,29
 1113 1407 1113 1407 843 1407 c 256,30,31
 707 1407 707 1407 589 1355.5 c 128,-1,32
 471 1304 471 1304 384 1215 c 128,-1,19
 297 1126 297 1126 247.5 1007 c 128,-1,20
931 1103 m 1,33,34
 894 1113 894 1113 848 1113 c 0,35,36
 740 1113 740 1113 666 1039 c 0,37,38
 570 943 570 943 570 753 c 0,39,40
 570 474 570 474 725 400 c 0,41,42
 773 376 773 376 823 376 c 2,43,44
 850 376 l 2,45,46
 876 376 876 376 936 393 c 128,-1,47
 996 410 996 410 1072 456 c 2,48,-1
 1144 499 l 1,49,50
 1198 484 1198 484 1220 426 c 0,51,52
 1226 408 1226 408 1226 393 c 128,-1,53
 1226 378 1226 378 1222 366 c 1,54,55
 1045 223 1045 223 821.5 223 c 128,-1,56
 598 223 598 223 482 365.5 c 128,-1,57
 366 508 366 508 365.5 751 c 128,-1,58
 365 994 365 994 505.5 1130.5 c 128,-1,59
 646 1267 646 1267 864.5 1266.5 c 128,-1,60
 1083 1266 1083 1266 1170 1168 c 0,61,62
 1203 1130 1203 1130 1203 1072.5 c 128,-1,63
 1203 1015 1203 1015 1163.5 976 c 128,-1,64
 1124 937 1124 937 1066 937 c 256,65,66
 1008 937 1008 937 968 975.5 c 128,-1,67
 928 1014 928 1014 929 1074 c 1,68,-1
 929 1088 l 2,69,70
 929 1094 929 1094 931 1103 c 1,33,34
EndSplineSet
EndChar

StartChar: ordfeminine
Encoding: 170 170 108
Width: 915
Flags: HW
HStem: 600 127<120.483 777.142> 859 117<264.604 497.734 664 784.927> 1160 97<304.818 541> 1435 89<328.847 436 438 496.647>
VStem: 131 129<980.917 1135.85> 161 172<1335.27 1430.5> 541 123<1013.05 1160 1257 1393.22>
LayerCount: 2
Fore
SplineSet
119 662 m 0,0,1
 119 727 119 727 150 727 c 2,2,-1
 759 727 l 1,3,4
 779 728 779 728 787 686 c 0,5,6
 789 676 789 676 789 666 c 256,7,8
 789 627 789 627 777.5 613.5 c 128,-1,9
 766 600 766 600 759 600 c 2,10,-1
 150 600 l 2,11,12
 129 600 129 600 121 642 c 0,13,14
 119 652 119 652 119 662 c 0,0,1
161 1392 m 0,15,16
 161 1524 161 1524 436 1524 c 1,17,-1
 438 1525 l 1,18,19
 552 1523 552 1523 608 1455 c 128,-1,20
 664 1387 664 1387 664 1283 c 2,21,-1
 664 962 l 1,22,-1
 770 962 l 2,23,24
 786 962 786 962 786 919 c 128,-1,25
 786 876 786 876 760 871 c 0,26,27
 720 862 720 862 604 862 c 0,28,29
 583 862 583 862 571 880 c 128,-1,30
 559 898 559 898 547 933 c 1,31,32
 492 889 492 889 380 866 c 0,33,34
 346 859 346 859 308 859 c 0,35,36
 226 859 226 859 178.5 909 c 128,-1,37
 131 959 131 959 131 1024 c 0,38,39
 131 1137 131 1137 200 1197 c 128,-1,40
 269 1257 269 1257 359 1257 c 2,41,-1
 541 1257 l 1,42,43
 541 1354 541 1354 498 1394.5 c 128,-1,44
 455 1435 455 1435 374 1435 c 0,45,46
 345 1435 345 1435 326 1431 c 1,47,48
 333 1415 333 1415 333 1387 c 128,-1,49
 333 1359 333 1359 309 1334.5 c 128,-1,50
 285 1310 285 1310 247.5 1310 c 128,-1,51
 210 1310 210 1310 185.5 1334.5 c 128,-1,52
 161 1359 161 1359 161 1392 c 0,15,16
260 1052 m 0,53,54
 260 976 260 976 340 976 c 2,55,56
 359 976 l 2,57,58
 398 976 398 976 453.5 996 c 128,-1,59
 509 1016 509 1016 541 1037 c 1,60,-1
 541 1160 l 1,61,-1
 380 1160 l 2,62,63
 330 1160 330 1160 295 1128 c 0,64,65
 260 1096 260 1096 260 1052 c 0,53,54
EndSplineSet
EndChar

StartChar: guillemotleft
Encoding: 171 171 109
Width: 1186
Flags: HW
LayerCount: 2
Fore
SplineSet
581 429 m 2,0,1
 542 460 542 460 542 513 c 256,2,3
 542 568 542 568 582 601 c 2,4,-1
 1003 935 l 1,5,6
 1035 934 1035 934 1064 904 c 128,-1,7
 1093 874 1093 874 1093 840 c 1,8,-1
 786 535 l 1,9,-1
 1093 184 l 1,10,11
 1093 150 1093 150 1065 120 c 128,-1,12
 1037 90 1037 90 1004 90 c 1,13,-1
 581 429 l 2,0,1
84 429 m 2,14,15
 43 462 43 462 43 516 c 128,-1,16
 43 570 43 570 84 602 c 2,17,-1
 505 935 l 1,18,19
 535 934 535 934 564 904 c 128,-1,20
 593 874 593 874 593 840 c 1,21,-1
 287 535 l 1,22,-1
 593 184 l 1,23,24
 592 150 592 150 566 120 c 128,-1,25
 540 90 540 90 506 90 c 1,26,-1
 84 429 l 2,14,15
EndSplineSet
EndChar

StartChar: logicalnot
Encoding: 172 172 110
Width: 1119
Flags: HW
HStem: 575 154<88.0684 851>
VStem: 851 154<260.952 575>
LayerCount: 2
Fore
SplineSet
83 655 m 1,0,1
 91 729 91 729 123 729 c 2,2,-1
 933 729 l 2,3,4
 1005 729 1005 729 1005 645 c 2,5,-1
 1005 285 l 2,6,7
 1005 258 1005 258 955 248 c 0,8,9
 942 246 942 246 931 246 c 256,10,11
 884 246 884 246 867.5 260.5 c 128,-1,12
 851 275 851 275 851 285 c 2,13,-1
 851 575 l 1,14,-1
 124 575 l 2,15,16
 96 575 96 575 86 627 c 0,17,18
 83 644 83 644 83 655 c 1,0,1
EndSplineSet
EndChar

StartChar: uni00AD
Encoding: 173 173 111
Width: 750
Flags: HW
HStem: 513 176<165.54 670.048>
VStem: 159 526<533.117 689>
LayerCount: 2
Fore
SplineSet
159 604 m 1,0,1
 167 689 167 689 200 689 c 2,2,-1
 647 689 l 2,3,4
 678 689 678 689 685 604 c 257,5,6
 685 552 685 552 670.5 532.5 c 128,-1,7
 656 513 656 513 646 513 c 2,8,9
 199 513 l 2,10,11
 172 513 172 513 162 574 c 0,12,13
 159 592 159 592 159 604 c 1,0,1
EndSplineSet
EndChar

StartChar: registered
Encoding: 174 174 112
Width: 1088
Flags: HW
HStem: 506 98<370.63 716.698> 693 63<341.388 387.839 491 584.985> 930 71<491 543.187> 1195 63<331.01 393 491 619.908> 1359 97<371.567 715.769>
VStem: 68 108<801.981 1162.75> 393 98<760.126 930 1001 1191.9> 652 107<1015.73 1170.89> 912 108<801.999 1163.59>
LayerCount: 2
Fore
SplineSet
68 980 m 256,0,1
 68 1177 68 1177 207.5 1316.5 c 128,-1,2
 347 1456 347 1456 544 1456 c 128,-1,3
 741 1456 741 1456 880.5 1316.5 c 128,-1,4
 1020 1177 1020 1177 1020 980 c 256,5,6
 1020 784 1020 784 881 645 c 128,-1,7
 742 506 742 506 544 506 c 128,-1,8
 346 506 346 506 207 645 c 128,-1,9
 68 784 68 784 68 980 c 256,0,1
575 756 m 1,10,11
 585 752 585 752 585 725.5 c 128,-1,12
 585 699 585 699 570 693 c 1,13,-1
 350 693 l 1,14,15
 341 702 341 702 341 717 c 128,-1,16
 341 732 341 732 346.5 743.5 c 128,-1,17
 352 755 352 755 357 756 c 1,18,19
 383 756 383 756 388 760 c 128,-1,20
 393 764 393 764 393 773 c 2,21,-1
 393 1189 l 2,22,23
 393 1195 393 1195 388 1195 c 2,24,-1
 346 1195 l 1,25,26
 331 1199 331 1199 331 1225.5 c 128,-1,27
 331 1252 331 1252 341 1258 c 1,28,-1
 569 1258 l 2,29,30
 656 1258 656 1258 707.5 1216.5 c 128,-1,31
 759 1175 759 1175 759 1103 c 0,32,33
 759 988 759 988 645 947 c 1,34,-1
 754 779 l 2,35,36
 773 751 773 751 832 746 c 1,37,38
 912 850 912 850 912 994 c 128,-1,39
 912 1138 912 1138 803 1248 c 128,-1,40
 694 1358 694 1358 544 1359 c 257,41,42
 392 1358 392 1358 284 1248 c 128,-1,43
 176 1138 176 1138 176 981 c 256,44,45
 176 826 176 826 284 715 c 128,-1,46
 392 604 392 604 535.5 604 c 0,47,48
 679 604 679 604 781 693 c 1,49,-1
 738 693 l 2,50,51
 696 693 696 693 671 732 c 2,52,-1
 544 932 l 1,53,54
 518 930 518 930 491 930 c 1,55,-1
 491 756 l 1,56,-1
 575 756 l 1,10,11
491 1001 m 1,57,58
 576 1001 576 1001 602 1012 c 0,59,60
 652 1034 652 1034 652 1102 c 0,61,62
 652 1192 652 1192 491 1192 c 1,63,-1
 491 1001 l 1,57,58
EndSplineSet
EndChar

StartChar: macron
Encoding: 175 175 113
Width: 1065
Flags: HW
HStem: 1237 134<192.562 859.531>
VStem: 192 668<1237 1371>
LayerCount: 2
Fore
SplineSet
208 1237 m 2,0,1
 192 1237 192 1237 192 1304 c 128,-1,2
 192 1371 192 1371 208 1371 c 2,3,-1
 845 1371 l 2,4,5
 856 1371 856 1371 858 1353.5 c 128,-1,6
 860 1336 860 1336 860 1286.5 c 128,-1,7
 860 1237 860 1237 845 1237 c 2,8,-1
 208 1237 l 2,0,1
EndSplineSet
EndChar

StartChar: degree
Encoding: 176 176 114
Width: 855
Flags: HW
HStem: 785 155<297.46 560.5> 1347 157<302.019 555.105>
VStem: 67 160<1007.24 1270.77> 628 160<1004.78 1273.36>
LayerCount: 2
Fore
SplineSet
348 954 m 0,0,1
 384 940 384 940 406.5 940 c 2,2,-1
 450.5 940 l 2,3,4
 472 940 472 940 508 954 c 0,5,6
 628 1000 628 1000 628 1140 c 0,7,8
 628 1229 628 1229 571 1288 c 128,-1,9
 514 1347 514 1347 428 1347 c 128,-1,10
 342 1347 342 1347 284.5 1287.5 c 128,-1,11
 227 1228 227 1228 227 1140 c 0,12,13
 228 1002 228 1002 348 954 c 0,0,1
169 885 m 128,-1,15
 67 985 67 985 67 1139.5 c 128,-1,16
 67 1294 67 1294 170 1399 c 128,-1,17
 273 1504 273 1504 429.5 1504 c 128,-1,18
 586 1504 586 1504 687 1399.5 c 128,-1,19
 788 1295 788 1295 788 1139 c 128,-1,20
 788 983 788 983 688 884 c 128,-1,21
 588 785 588 785 429.5 785 c 128,-1,14
 271 785 271 785 169 885 c 128,-1,15
EndSplineSet
EndChar

StartChar: plusminus
Encoding: 177 177 115
Width: 1093
Flags: HW
HStem: 0 154<100.468 1002.46> 646 144<81.8135 474 618 1010.23>
VStem: 474 144<292.766 646 790 1113.23>
LayerCount: 2
Fore
SplineSet
126 0 m 2,0,1
 92 0 92 0 85 76 c 257,2,3
 85 122 85 122 100 138 c 128,-1,4
 115 154 115 154 126 154 c 2,5,-1
 968 154 l 2,6,7
 1002 154 1002 154 1006 80 c 0,8,9
 1007 57 1007 57 998 28 c 1,10,11
 988 0 988 0 968 0 c 2,12,-1
 126 0 l 2,0,1
98 646 m 2,13,14
 81 646 81 646 81 718 c 128,-1,15
 81 790 81 790 98 790 c 2,16,-1
 474 790 l 1,17,-1
 474 1098 l 2,18,19
 474 1114 474 1114 546 1114 c 128,-1,20
 618 1114 618 1114 618 1098 c 2,21,-1
 618 790 l 1,22,-1
 995 790 l 2,23,24
 1011 790 1011 790 1011 718 c 128,-1,25
 1011 646 1011 646 995 646 c 2,26,-1
 618 646 l 1,27,-1
 618 308 l 2,28,29
 618 292 618 292 546 292 c 128,-1,30
 474 292 474 292 474 308 c 2,31,-1
 474 646 l 1,32,-1
 98 646 l 2,13,14
EndSplineSet
EndChar

StartChar: uni00B2
Encoding: 178 178 116
Width: 808
Flags: HW
HStem: 647 146<267 595> 1436 89<252.35 467.201>
VStem: 93 205<1233.43 1392.48> 510 186<1184.39 1400.82>
LayerCount: 2
Fore
SplineSet
269 1232 m 128,-1,1
 240 1203 240 1203 196.5 1203 c 128,-1,2
 153 1203 153 1203 123 1232.5 c 128,-1,3
 93 1262 93 1262 93 1310 c 0,4,5
 93 1407 93 1407 176 1465.5 c 128,-1,6
 259 1524 259 1524 396 1525 c 1,7,-1
 399 1525 l 2,8,9
 610 1525 610 1525 674 1404 c 1,10,11
 696 1365 696 1365 696 1302.5 c 128,-1,12
 696 1240 696 1240 670 1191 c 128,-1,13
 644 1142 644 1142 604.5 1105.5 c 128,-1,14
 565 1069 565 1069 515.5 1038.5 c 128,-1,15
 466 1008 466 1008 418 974 c 0,16,17
 304 894 304 894 267 793 c 1,18,-1
 595 793 l 1,19,-1
 623 871 l 1,20,21
 640 884 640 884 668.5 884 c 128,-1,22
 697 884 697 884 713 855 c 1,23,-1
 682 647 l 1,24,-1
 113 647 l 1,25,-1
 113 690 l 1,26,27
 114 884 114 884 312 1044 c 0,28,29
 438 1145 438 1145 474 1195.5 c 128,-1,30
 510 1246 510 1246 510 1305 c 0,31,32
 510 1364 510 1364 468.5 1400 c 128,-1,33
 427 1436 427 1436 376 1436 c 128,-1,34
 325 1436 325 1436 299 1427 c 128,-1,35
 273 1418 273 1418 250 1395 c 1,36,37
 282 1382 282 1382 294 1334 c 0,38,39
 298 1320 298 1320 298 1308 c 0,40,0
 298 1261 298 1261 269 1232 c 128,-1,1
EndSplineSet
EndChar

StartChar: uni00B3
Encoding: 179 179 117
Width: 800
Flags: HW
HStem: 634 89<254.122 475.338> 1435 90<249.83 462.233>
VStem: 89 209<765.066 919.574 1233.43 1391.38> 504 187<1195.66 1397.16> 517 202<773.023 999.053>
LayerCount: 2
Fore
SplineSet
252 764 m 1,0,1
 293 723 293 723 382 723 c 0,2,3
 383 723 383 723 384 723 c 0,4,5
 442 723 442 723 479.5 771.5 c 128,-1,6
 517 820 517 820 517 897 c 0,7,8
 517 900 517 900 517 903 c 0,9,10
 517 970 517 970 496 1000 c 0,11,12
 456 1058 456 1058 370 1067 c 1,13,-1
 370 1121 l 1,14,15
 437 1155 437 1155 470.5 1193.5 c 128,-1,16
 504 1232 504 1232 504 1296 c 128,-1,17
 504 1360 504 1360 463.5 1397.5 c 128,-1,18
 423 1435 423 1435 378 1435 c 0,19,20
 377 1435 377 1435 376 1435 c 0,21,22
 287 1435 287 1435 247 1395 c 1,23,24
 278 1380 278 1380 292 1337 c 0,25,26
 296 1325 296 1325 296 1316 c 0,27,28
 296 1262 296 1262 267 1232 c 128,-1,29
 238 1202 238 1202 193 1202 c 256,30,31
 148 1202 148 1202 118.5 1232 c 0,32,33
 89 1262 89 1262 89 1314 c 0,34,35
 89 1411 89 1411 186.5 1467.5 c 128,-1,36
 284 1524 284 1524 406 1525 c 1,37,38
 610 1525 610 1525 672 1398 c 0,39,40
 691 1358 691 1358 691 1300.5 c 0,41,42
 691 1243 691 1243 640 1188.5 c 128,-1,43
 589 1134 589 1134 517 1108 c 1,44,45
 616 1067 616 1067 648 1039 c 0,46,47
 719 977 719 977 719 880 c 0,48,49
 719 698 719 698 531 650 c 1,50,51
 473 634 473 634 441 634 c 2,52,-1
 407 634 l 2,53,54
 285 634 285 634 187.5 692 c 128,-1,55
 90 750 90 750 89 843 c 256,56,57
 89 893 89 893 120.5 921.5 c 128,-1,58
 152 950 152 950 195.5 950 c 0,59,60
 239 950 239 950 268.5 920.5 c 128,-1,61
 298 891 298 891 298 844.5 c 128,-1,62
 298 798 298 798 252 764 c 1,0,1
EndSplineSet
EndChar

StartChar: acute
Encoding: 180 180 118
Width: 1065
Flags: HW
HStem: 1188 393
VStem: 440 422
LayerCount: 2
Fore
SplineSet
539 1188 m 1,0,1
 496 1188 496 1188 468 1220 c 128,-1,2
 440 1252 440 1252 440 1296 c 1,3,-1
 713 1581 l 1,4,-1
 716 1581 l 1,5,6
 778 1582 778 1582 820 1538 c 128,-1,7
 862 1494 862 1494 862 1423 c 1,8,-1
 539 1188 l 1,0,1
EndSplineSet
EndChar

StartChar: uni00B5
Encoding: 181 181 119
Width: 1239
Flags: HW
HStem: -439 21G<207 272.5> -20 186<438.699 651.828> -14 155<1032.99 1169.78> 981 20G<164 359 789 958.5>
VStem: 164 195<-425.157 -101.933 269.723 1001> 789 194<372.658 1000.91>
LayerCount: 2
Fore
SplineSet
525 -20 m 0,0,1
 340 -20 340 -20 281 139 c 1,2,3
 295 -43 295 -43 369 -365 c 1,4,5
 361 -397 361 -397 328 -418 c 128,-1,6
 295 -439 295 -439 250 -439 c 0,7,8
 164 -439 164 -439 164 -380 c 2,9,-1
 164 1001 l 1,10,-1
 359 1001 l 1,11,-1
 359 635 l 2,12,13
 359 270 359 270 454 194 c 0,14,15
 488 166 488 166 541 166 c 0,16,17
 655 166 655 166 722 312.5 c 128,-1,18
 789 459 789 459 789 754 c 2,19,-1
 789 1001 l 1,20,-1
 934 1001 l 2,21,22
 983 1001 983 1001 983 961 c 2,23,-1
 983 315 l 2,24,25
 983 210 983 210 1000 181.5 c 128,-1,26
 1017 153 1017 153 1032.5 147 c 128,-1,27
 1048 141 1048 141 1067 141 c 2,28,-1
 1151 141 l 1,29,30
 1180 132 1180 132 1180 94 c 0,31,32
 1180 12 1180 12 1137 0 c 0,33,34
 1130 -1 1130 -1 1110 -3 c 2,35,-1
 1066 -8 l 1,36,37
 1000 -14 1000 -14 962 -14 c 0,38,39
 886 -14 886 -14 842.5 40 c 128,-1,40
 799 94 799 94 799 203 c 1,41,42
 767 103 767 103 727 63 c 1,43,44
 647 -20 647 -20 525 -20 c 0,0,1
EndSplineSet
EndChar

StartChar: paragraph
Encoding: 182 182 120
Width: 1579
Flags: HW
HStem: 0 141<552.254 715 926 1076.48 1294 1472.53> 629 150<466.459 715> 1364 141<435.625 715 926 1083 1294 1507.44>
VStem: 59 233<924.571 1247.59> 715 211<148.5 629 779 1351> 1083 211<164.251 1364>
LayerCount: 2
Fore
SplineSet
549 0 m 2,0,1
 524 0 524 0 524 53 c 128,-1,2
 524 106 524 106 552 134 c 0,3,4
 560 142 560 142 586 142 c 0,5,6
 714 140 714 140 715 184 c 1,7,-1
 715 629 l 1,8,-1
 563 629 l 1,9,10
 332 630 332 630 195.5 740.5 c 128,-1,11
 59 851 59 851 59 1044 c 0,12,13
 59 1276 59 1276 228.5 1390.5 c 128,-1,14
 398 1505 398 1505 718 1505 c 2,15,-1
 1484 1505 l 2,16,17
 1509 1505 1509 1505 1509 1434.5 c 128,-1,18
 1509 1364 1509 1364 1474 1364 c 2,19,-1
 1294 1364 l 1,20,-1
 1294 141 l 1,21,-1
 1462 141 l 2,22,23
 1488 141 1488 141 1488 86.5 c 128,-1,24
 1488 32 1488 32 1473 16 c 128,-1,25
 1458 0 1458 0 1447 0 c 2,26,-1
 549 0 l 2,0,1
323.5 1229.5 m 128,-1,28
 292 1177 292 1177 292 1089 c 0,29,30
 292 925 292 925 410 852 c 128,-1,31
 528 779 528 779 715 779 c 1,32,-1
 715 1351 l 1,33,34
 498 1351 498 1351 426.5 1316.5 c 128,-1,27
 355 1282 355 1282 323.5 1229.5 c 128,-1,28
926 141 m 1,35,36
 945 141 l 2,37,38
 1061 141 1061 141 1077 164 c 0,39,40
 1083 172 1083 172 1083 184 c 2,41,-1
 1083 1348 l 2,42,43
 1083 1364 1083 1364 1070 1364 c 2,44,-1
 926 1364 l 1,45,-1
 926 141 l 1,35,36
EndSplineSet
EndChar

StartChar: periodcentered
Encoding: 183 183 121
Width: 522
Flags: HW
HStem: 428 272<164.739 356.746>
VStem: 124 274<468.223 659.777>
LayerCount: 2
Fore
SplineSet
261 428 m 256,0,1
 168 428 168 428 134 509 c 0,2,3
 124 534 124 534 124 578 c 0,4,5
 124 622 124 622 163.5 661 c 128,-1,6
 203 700 203 700 261 700 c 256,7,8
 354 700 354 700 388 619 c 0,9,10
 398 594 398 594 398 550 c 0,11,12
 398 506 398 506 358 467 c 128,-1,13
 318 428 318 428 261 428 c 256,0,1
EndSplineSet
EndChar

StartChar: cedilla
Encoding: 184 184 122
Width: 1188
Flags: HW
HStem: -440 112<410.197 618.535> -179 194<526 646.311>
VStem: 649 168<-297.355 -190.676>
LayerCount: 2
Fore
SplineSet
649 -240 m 1,0,1
 649 -179 649 -179 513 -179 c 1,2,-1
 474 -131 l 1,3,-1
 526 15 l 1,4,-1
 685 15 l 1,5,-1
 649 -90 l 1,6,7
 764 -110 764 -110 804 -182 c 0,8,9
 817 -204 817 -204 817 -232 c 0,10,11
 817 -440 817 -440 449 -440 c 0,12,13
 429 -440 429 -440 419 -421 c 128,-1,14
 409 -402 409 -402 409 -382 c 0,15,16
 409 -328 409 -328 438 -328 c 0,17,18
 580 -328 580 -328 632 -278 c 0,19,20
 650 -262 650 -262 649 -240 c 1,0,1
EndSplineSet
EndChar

StartChar: uni00B9
Encoding: 185 185 123
Width: 720
Flags: HW
HStem: 647 103<118.146 291 476 631.872> 1505 20G<382.78 457.5>
VStem: 291 185<750.61 1317.99>
LayerCount: 2
Fore
SplineSet
617 750 m 2,0,1
 632 750 632 750 632 698.5 c 128,-1,2
 632 647 632 647 611 647 c 2,3,4
 130 647 l 2,5,6
 118 647 118 647 118 698.5 c 128,-1,7
 118 750 118 750 142 750 c 2,8,-1
 228 750 l 2,9,10
 291 750 291 750 291 775 c 2,11,-1
 291 1283 l 2,12,13
 291 1318 291 1318 281.5 1318 c 128,-1,14
 272 1318 272 1318 251 1309 c 2,15,-1
 158 1270 l 2,16,17
 136 1261 136 1261 128 1261 c 0,18,19
 114 1261 114 1261 95 1291.5 c 128,-1,20
 76 1322 76 1322 76 1338.5 c 128,-1,21
 76 1355 76 1355 86 1361 c 1,22,-1
 424 1525 l 1,23,-1
 439 1525 l 2,24,25
 476 1525 476 1525 476 1513 c 2,26,-1
 476 750 l 1,27,-1
 617 750 l 2,0,1
EndSplineSet
EndChar

StartChar: ordmasculine
Encoding: 186 186 124
Width: 913
Flags: HW
HStem: 600 127<126.483 783.142> 837 102<333.143 570.597> 1423 102<327.702 572.42>
VStem: 112 149<1012.04 1353.6> 642 150<1013.25 1351.8>
LayerCount: 2
Fore
SplineSet
125 662 m 0,0,1
 125 727 125 727 156 727 c 2,2,-1
 765 727 l 1,3,4
 785 728 785 728 793 686 c 0,5,6
 795 676 795 676 795 666 c 256,7,8
 795 627 795 627 783.5 613.5 c 128,-1,9
 772 600 772 600 765 600 c 2,10,-1
 156 600 l 2,11,12
 135 600 135 600 127 642 c 0,13,14
 125 652 125 652 125 662 c 0,0,1
430 837 m 1,15,16
 277 839 277 839 194.5 936 c 128,-1,17
 112 1033 112 1033 112 1191 c 128,-1,18
 112 1349 112 1349 218 1437 c 128,-1,19
 324 1525 324 1525 477 1525 c 2,20,-1
 480 1525 l 2,21,22
 625 1525 625 1525 708.5 1428 c 128,-1,23
 792 1331 792 1331 792 1173.5 c 128,-1,24
 792 1016 792 1016 693 926.5 c 128,-1,25
 594 837 594 837 434 837 c 2,26,-1
 430 837 l 1,15,16
261 1186 m 0,27,28
 261 1062 261 1062 314 1000.5 c 128,-1,29
 367 939 367 939 456.5 939 c 128,-1,30
 546 939 546 939 594 1008.5 c 0,31,32
 642 1078 642 1078 642 1162 c 0,33,34
 642 1303 642 1303 589.5 1363 c 128,-1,35
 537 1423 537 1423 452 1423 c 2,36,-1
 449 1423 l 2,37,38
 326 1423 326 1423 279 1304 c 0,39,40
 261 1258 261 1258 261 1186 c 0,27,28
EndSplineSet
EndChar

StartChar: guillemotright
Encoding: 187 187 125
Width: 1184
Flags: HW
LayerCount: 2
Fore
SplineSet
603 595 m 2,0,1
 643 563 643 563 643 509 c 128,-1,2
 643 455 643 455 602 423 c 2,3,-1
 182 90 l 1,4,5
 151 90 151 90 122 120 c 128,-1,6
 93 150 93 150 93 185 c 1,7,-1
 399 490 l 1,8,-1
 93 841 l 1,9,10
 92 874 92 874 120 904 c 128,-1,11
 148 934 148 934 181 935 c 1,12,-1
 603 595 l 2,0,1
1102 595 m 1,13,14
 1143 560 1143 560 1143 508 c 128,-1,15
 1143 456 1143 456 1101 423 c 2,16,-1
 681 90 l 1,17,18
 648 90 648 90 620 120 c 128,-1,19
 592 150 592 150 592 185 c 1,20,-1
 898 490 l 1,21,-1
 592 841 l 1,22,23
 592 874 592 874 620 904 c 128,-1,24
 648 934 648 934 680 935 c 1,25,-1
 1102 595 l 1,13,14
EndSplineSet
EndChar

StartChar: onequarter
Encoding: 188 188 126
Width: 1770
Flags: HW
HStem: 0 103<1194.42 1382 1567 1688.85> 228 113<1137 1382 1567 1701.63> 647 103<110.156 283 468 623.872> 1505 20G<374.78 449.5>
VStem: 283 185<750.61 1317.99> 1382 185<104.373 228 341 557.181>
LayerCount: 2
Fore
SplineSet
1326 1505 m 2,0,1
 1346 1537 1346 1537 1415 1537 c 128,-1,2
 1484 1537 1484 1537 1484 1505 c 1,3,-1
 500 0 l 1,4,5
 478 -30 478 -30 406 -30 c 128,-1,6
 334 -30 334 -30 334 0 c 1,7,-1
 1326 1505 l 2,0,1
609 750 m 2,8,9
 624 750 624 750 624 698.5 c 128,-1,10
 624 647 624 647 603 647 c 2,11,-1
 123 647 l 1,12,13
 110 646 110 646 110 698 c 128,-1,14
 110 750 110 750 134 750 c 2,15,-1
 220 750 l 2,16,17
 283 750 283 750 283 775 c 2,18,-1
 283 1283 l 2,19,20
 283 1318 283 1318 273.5 1318 c 128,-1,21
 264 1318 264 1318 243 1309 c 2,22,-1
 150 1270 l 2,23,24
 128 1261 128 1261 120 1261 c 0,25,26
 106 1261 106 1261 87 1291.5 c 128,-1,27
 68 1322 68 1322 68 1338.5 c 128,-1,28
 68 1355 68 1355 78 1361 c 1,29,-1
 416 1525 l 1,30,-1
 431 1525 l 2,31,32
 468 1525 468 1525 468 1513 c 2,33,-1
 468 750 l 1,34,-1
 609 750 l 2,8,9
1018 228 m 1,35,36
 992 240 992 240 986 280 c 1,37,-1
 1304 880 l 1,38,39
 1373 880 1373 880 1420 844 c 128,-1,40
 1467 808 1467 808 1467 776 c 1,41,-1
 1137 341 l 1,42,-1
 1382 341 l 1,43,-1
 1382 530 l 2,44,45
 1382 589 1382 589 1567 589 c 1,46,-1
 1567 341 l 1,47,-1
 1697 341 l 2,48,49
 1714 341 1714 341 1714 299.5 c 128,-1,50
 1714 258 1714 258 1702 243 c 128,-1,51
 1690 228 1690 228 1683 228 c 2,52,-1
 1567 228 l 1,53,-1
 1567 103 l 1,54,-1
 1672 103 l 2,55,56
 1689 103 1689 103 1689 51.5 c 128,-1,57
 1689 0 1689 0 1664 0 c 2,58,-1
 1209 0 l 2,59,60
 1193 0 1193 0 1193 36 c 128,-1,61
 1193 72 1193 72 1205 87.5 c 128,-1,62
 1217 103 1217 103 1223 103 c 2,63,-1
 1306 103 l 2,64,65
 1382 103 1382 103 1382 128 c 2,66,-1
 1382 228 l 1,67,-1
 1018 228 l 1,35,36
EndSplineSet
EndChar

StartChar: onehalf
Encoding: 189 189 127
Width: 1767
Flags: HW
HStem: -3 146<1250 1578> 647 103<102.156 275 460 615.872> 786 89<1235.35 1450.72> 1505 20G<366.78 441.5>
VStem: 275 185<750.61 1317.99> 1076 205<583.426 742.478> 1493 185<536.235 752.202>
LayerCount: 2
Fore
SplineSet
1318 1505 m 2,0,1
 1338 1537 1338 1537 1407 1537 c 128,-1,2
 1476 1537 1476 1537 1476 1505 c 1,3,-1
 492 0 l 1,4,5
 470 -30 470 -30 398 -30 c 128,-1,6
 326 -30 326 -30 326 0 c 1,7,-1
 1318 1505 l 2,0,1
601 750 m 2,8,9
 616 750 616 750 616 698.5 c 128,-1,10
 616 647 616 647 595 647 c 2,11,-1
 115 647 l 1,12,13
 102 646 102 646 102 698 c 128,-1,14
 102 750 102 750 126 750 c 2,15,-1
 212 750 l 2,16,17
 275 750 275 750 275 775 c 2,18,-1
 275 1283 l 2,19,20
 275 1318 275 1318 265.5 1318 c 128,-1,21
 256 1318 256 1318 235 1309 c 2,22,-1
 142 1270 l 2,23,24
 120 1261 120 1261 112 1261 c 0,25,26
 98 1261 98 1261 79 1291.5 c 128,-1,27
 60 1322 60 1322 60 1338.5 c 128,-1,28
 60 1355 60 1355 70 1361 c 1,29,-1
 408 1525 l 1,30,-1
 423 1525 l 2,31,32
 460 1525 460 1525 460 1513 c 2,33,-1
 460 750 l 1,34,-1
 601 750 l 2,8,9
1252 582 m 128,-1,36
 1223 553 1223 553 1179.5 553 c 128,-1,37
 1136 553 1136 553 1106 582.5 c 128,-1,38
 1076 612 1076 612 1076 660 c 0,39,40
 1076 757 1076 757 1159 815.5 c 128,-1,41
 1242 874 1242 874 1379 875 c 1,42,-1
 1382 875 l 2,43,44
 1592 875 1592 875 1656 754 c 0,45,46
 1678 714 1678 714 1678 652 c 0,47,48
 1678 538 1678 538 1588 456 c 1,49,50
 1548 418 1548 418 1499 388 c 128,-1,51
 1450 358 1450 358 1402 324 c 0,52,53
 1288 244 1288 244 1250 143 c 1,54,-1
 1578 143 l 1,55,-1
 1606 221 l 1,56,57
 1623 234 1623 234 1651.5 234 c 128,-1,58
 1680 234 1680 234 1696 205 c 1,59,-1
 1665 -3 l 1,60,-1
 1096 -3 l 1,61,-1
 1096 40 l 2,62,63
 1096 234 1096 234 1294 394 c 0,64,65
 1420 495 1420 495 1456.5 545.5 c 128,-1,66
 1493 596 1493 596 1493 656.5 c 0,67,68
 1493 717 1493 717 1452 751.5 c 128,-1,69
 1411 786 1411 786 1359.5 786 c 128,-1,70
 1308 786 1308 786 1282 777 c 128,-1,71
 1256 768 1256 768 1233 745 c 1,72,73
 1266 732 1266 732 1278 684 c 0,74,75
 1282 670 1282 670 1281 658 c 1,76,35
 1281 611 1281 611 1252 582 c 128,-1,36
EndSplineSet
EndChar

StartChar: threequarters
Encoding: 190 190 128
Width: 1831
Flags: HW
HStem: 0 103<1256.42 1444 1629 1750.85> 228 113<1199 1444 1629 1763.63> 634 89<246.293 468.338> 1435 90<242.83 455.233>
VStem: 82 209<765.066 919.574 1233.43 1391.38> 497 187<1195.05 1397.16> 510 202<769.758 1004.61> 1444 185<104.373 228 341 557.181>
LayerCount: 2
Fore
SplineSet
1338 1505 m 2,0,1
 1358 1537 1358 1537 1427 1537 c 128,-1,2
 1496 1537 1496 1537 1496 1505 c 1,3,-1
 512 0 l 1,4,5
 490 -30 490 -30 418 -30 c 128,-1,6
 346 -30 346 -30 346 0 c 1,7,-1
 1338 1505 l 2,0,1
1080 228 m 1,8,9
 1054 240 1054 240 1048 280 c 1,10,-1
 1366 880 l 1,11,12
 1435 880 1435 880 1482 844 c 128,-1,13
 1529 808 1529 808 1529 776 c 1,14,-1
 1199 341 l 1,15,-1
 1444 341 l 1,16,-1
 1444 530 l 2,17,18
 1444 589 1444 589 1629 589 c 1,19,-1
 1629 341 l 1,20,-1
 1759 341 l 2,21,22
 1776 341 1776 341 1776 299.5 c 128,-1,23
 1776 258 1776 258 1764 243 c 128,-1,24
 1752 228 1752 228 1745 228 c 2,25,-1
 1629 228 l 1,26,-1
 1629 103 l 1,27,-1
 1734 103 l 2,28,29
 1751 103 1751 103 1751 51.5 c 128,-1,30
 1751 0 1751 0 1726 0 c 2,31,-1
 1271 0 l 2,32,33
 1255 0 1255 0 1255 36 c 128,-1,34
 1255 72 1255 72 1267 87.5 c 128,-1,35
 1279 103 1279 103 1285 103 c 2,36,-1
 1368 103 l 2,37,38
 1444 103 1444 103 1444 128 c 2,39,-1
 1444 228 l 1,40,-1
 1080 228 l 1,8,9
245 764 m 1,41,42
 286 723 286 723 375 723 c 0,43,44
 376 723 376 723 377 723 c 0,45,46
 435 723 435 723 472.5 771.5 c 128,-1,47
 510 820 510 820 510 894.5 c 128,-1,48
 510 969 510 969 488 1000 c 0,49,50
 448 1058 448 1058 363 1067 c 1,51,-1
 363 1121 l 1,52,53
 430 1155 430 1155 463.5 1193.5 c 128,-1,54
 497 1232 497 1232 497 1296 c 128,-1,55
 497 1360 497 1360 456.5 1397.5 c 128,-1,56
 416 1435 416 1435 371 1435 c 0,57,58
 370 1435 370 1435 369 1435 c 0,59,60
 280 1435 280 1435 240 1395 c 1,61,62
 271 1380 271 1380 285 1337 c 0,63,64
 289 1325 289 1325 289 1316 c 0,65,66
 289 1262 289 1262 260 1232 c 128,-1,67
 231 1202 231 1202 186 1202 c 256,68,69
 141 1202 141 1202 111.5 1232 c 0,70,71
 82 1262 82 1262 82 1314 c 0,72,73
 82 1411 82 1411 179.5 1467.5 c 128,-1,74
 277 1524 277 1524 399 1525 c 1,75,76
 604 1525 604 1525 666 1398 c 0,77,78
 684 1360 684 1360 684 1301.5 c 0,79,80
 684 1243 684 1243 633.5 1188.5 c 128,-1,81
 583 1134 583 1134 510 1108 c 1,82,83
 609 1067 609 1067 641 1039 c 0,84,85
 712 977 712 977 712 880 c 0,86,87
 712 698 712 698 524 650 c 1,88,89
 466 634 466 634 434 634 c 2,90,-1
 400 634 l 2,91,92
 277 634 277 634 179.5 692 c 128,-1,93
 82 750 82 750 82 843 c 256,94,95
 82 893 82 893 113.5 921.5 c 128,-1,96
 145 950 145 950 188.5 950 c 0,97,98
 232 950 232 950 261.5 920.5 c 128,-1,99
 291 891 291 891 291 844.5 c 128,-1,100
 291 798 291 798 245 764 c 1,41,42
EndSplineSet
EndChar

StartChar: questiondown
Encoding: 191 191 129
Width: 949
Flags: HW
HStem: -438 154<380.931 649.95> 739 279<447.282 646.367>
VStem: 83.5 216.5<-200.198 90.415> 405 280<780.766 977.257> 445 195<395 603.387> 630 280<-271.719 -88.7068>
LayerCount: 2
Fore
SplineSet
653 -273 m 1,0,1
 630 -232 630 -232 630 -178.5 c 128,-1,2
 630 -125 630 -125 671 -86.5 c 128,-1,3
 712 -48 712 -48 756 -48 c 0,4,5
 832 -49 832 -49 871 -87.5 c 128,-1,6
 910 -126 910 -126 910 -180 c 0,7,8
 910 -309.163 910 -309.163 750 -381 c 1,9,10
 631 -438 631 -438 514 -438 c 0,11,12
 303 -438 303 -438 193.5 -335 c 128,-1,13
 84 -232 84 -232 83.5 -82 c 128,-1,14
 83 68 83 68 200 190 c 0,15,16
 252 244 252 244 316 294 c 2,17,-1
 445 395 l 1,18,-1
 445 550 l 2,19,20
 445 595 445 595 508 609 c 0,21,22
 526 613 526 613 546 613 c 0,23,24
 640 613 640 613 640 550 c 2,25,-1
 640 372 l 1,26,27
 585 323 585 323 525 281.5 c 128,-1,28
 465 240 465 240 415 192 c 0,29,30
 300 83 300 83 300 -60 c 0,31,32
 300 -162 300 -162 362.5 -223 c 128,-1,33
 425 -284 425 -284 529 -284 c 2,34,-1
 564 -284 l 2,35,36
 609 -284 609 -284 653 -273 c 1,0,1
531 1018 m 0,37,38
 638 1018 638 1018 674 934 c 0,39,40
 685 908 685 908 685 865.5 c 128,-1,41
 685 823 685 823 644.5 781 c 128,-1,42
 604 739 604 739 545 739 c 128,-1,43
 486 739 486 739 445.5 779.5 c 128,-1,44
 405 820 405 820 405 879.5 c 128,-1,45
 405 939 405 939 446 978.5 c 128,-1,46
 487 1018 487 1018 531 1018 c 0,37,38
EndSplineSet
EndChar

StartChar: Agrave
Encoding: 192 192 130
Width: 1424
Flags: HW
HStem: 0 141<-7.07227 138.453 287 471.079 910.468 1059.97 1301 1429.05> 499 154<485 874> 1505 20G<686.5 735.5>
LayerCount: 2
Fore
SplineSet
13 0 m 2,0,1
 -12 0 -12 0 -12 54 c 128,-1,2
 -12 108 -12 108 12 133 c 0,3,4
 20 141 20 141 48 141 c 0,5,6
 122 141 122 141 145 198 c 2,7,-1
 654 1505 l 2,8,9
 662 1525 662 1525 711 1525 c 128,-1,10
 760 1525 760 1525 768 1505 c 2,11,-1
 1301 141 l 1,12,-1
 1418 141 l 2,13,14
 1444 141 1444 141 1444 86 c 128,-1,15
 1444 31 1444 31 1429.5 15.5 c 128,-1,16
 1415 0 1415 0 1405 0 c 2,17,-1
 920 0 l 2,18,19
 895 0 895 0 895 54 c 128,-1,20
 895 108 895 108 910 124.5 c 128,-1,21
 925 141 925 141 936 141 c 0,22,23
 1060 141 1060 141 1060 165 c 0,24,25
 1060 174 1060 174 1052 190 c 1,26,-1
 933 499 l 1,27,-1
 426 499 l 1,28,-1
 287 141 l 1,29,-1
 459 141 l 2,30,31
 485 141 485 141 485 86 c 128,-1,32
 485 31 485 31 471.5 15.5 c 128,-1,33
 458 0 458 0 449 0 c 2,34,-1
 13 0 l 2,0,1
485 653 m 1,35,-1
 874 653 l 1,36,-1
 681 1157 l 1,37,-1
 485 653 l 1,35,-1
321 1833 m 1,38,39
 321 1942 321 1942 411 1980 c 0,40,41
 436 1991 436 1991 452 1991 c 2,42,-1
 470 1991 l 1,43,-1
 743 1706 l 1,44,45
 742 1662 742 1662 714 1630 c 128,-1,46
 686 1598 686 1598 645 1598 c 1,47,-1
 321 1833 l 1,38,39
EndSplineSet
EndChar

StartChar: Aacute
Encoding: 193 193 131
Width: 1424
Flags: HW
HStem: 0 141<-7.07227 138.453 287 471.079 910.468 1059.97 1301 1429.05> 499 154<485 874> 1505 20G<686.5 735.5>
LayerCount: 2
Fore
SplineSet
13 0 m 2,0,1
 -12 0 -12 0 -12 54 c 128,-1,2
 -12 108 -12 108 12 133 c 0,3,4
 20 141 20 141 48 141 c 0,5,6
 122 141 122 141 145 198 c 2,7,-1
 654 1505 l 2,8,9
 662 1525 662 1525 711 1525 c 128,-1,10
 760 1525 760 1525 768 1505 c 2,11,-1
 1301 141 l 1,12,-1
 1418 141 l 2,13,14
 1444 141 1444 141 1444 86 c 128,-1,15
 1444 31 1444 31 1429.5 15.5 c 128,-1,16
 1415 0 1415 0 1405 0 c 2,17,-1
 920 0 l 2,18,19
 895 0 895 0 895 54 c 128,-1,20
 895 108 895 108 910 124.5 c 128,-1,21
 925 141 925 141 936 141 c 0,22,23
 1060 141 1060 141 1060 165 c 0,24,25
 1060 174 1060 174 1052 190 c 1,26,-1
 933 499 l 1,27,-1
 426 499 l 1,28,-1
 287 141 l 1,29,-1
 459 141 l 2,30,31
 485 141 485 141 485 86 c 128,-1,32
 485 31 485 31 471.5 15.5 c 128,-1,33
 458 0 458 0 449 0 c 2,34,-1
 13 0 l 2,0,1
485 653 m 1,35,-1
 874 653 l 1,36,-1
 681 1157 l 1,37,-1
 485 653 l 1,35,-1
782 1598 m 1,38,39
 740 1598 740 1598 712 1630 c 128,-1,40
 684 1662 684 1662 683 1706 c 1,41,-1
 956 1991 l 1,42,-1
 959 1991 l 1,43,44
 1021 1992 1021 1992 1063 1948 c 128,-1,45
 1105 1904 1105 1904 1105 1833 c 1,46,-1
 782 1598 l 1,38,39
EndSplineSet
EndChar

StartChar: Acircumflex
Encoding: 194 194 132
Width: 1424
Flags: HW
HStem: 0 141<-7.07227 138.453 287 471.079 910.468 1059.97 1301 1429.05> 499 154<485 874> 1505 20G<686.5 735.5>
LayerCount: 2
Fore
SplineSet
465 1610 m 1,0,1
 431 1610 431 1610 406 1640 c 128,-1,2
 381 1670 381 1670 381 1710 c 1,3,-1
 637 1886 l 2,4,5
 678 1915 678 1915 710 1915 c 128,-1,6
 742 1915 742 1915 787 1886 c 1,7,-1
 1043 1710 l 1,8,9
 1043 1646 1043 1646 992 1618 c 0,10,11
 977 1610 977 1610 959 1610 c 1,12,-1
 713 1726 l 1,13,-1
 465 1610 l 1,0,1
13 0 m 2,14,15
 -12 0 -12 0 -12 54 c 128,-1,16
 -12 108 -12 108 12 133 c 0,17,18
 20 141 20 141 48 141 c 0,19,20
 122 141 122 141 145 198 c 2,21,-1
 654 1505 l 2,22,23
 662 1525 662 1525 711 1525 c 128,-1,24
 760 1525 760 1525 768 1505 c 2,25,-1
 1301 141 l 1,26,-1
 1418 141 l 2,27,28
 1444 141 1444 141 1444 86 c 128,-1,29
 1444 31 1444 31 1429.5 15.5 c 128,-1,30
 1415 0 1415 0 1405 0 c 2,31,-1
 920 0 l 2,32,33
 895 0 895 0 895 54 c 128,-1,34
 895 108 895 108 910 124.5 c 128,-1,35
 925 141 925 141 936 141 c 0,36,37
 1060 141 1060 141 1060 165 c 0,38,39
 1060 174 1060 174 1052 190 c 1,40,-1
 933 499 l 1,41,-1
 426 499 l 1,42,-1
 287 141 l 1,43,-1
 459 141 l 2,44,45
 485 141 485 141 485 86 c 128,-1,46
 485 31 485 31 471.5 15.5 c 128,-1,47
 458 0 458 0 449 0 c 2,48,-1
 13 0 l 2,14,15
485 653 m 1,49,-1
 874 653 l 1,50,-1
 681 1157 l 1,51,-1
 485 653 l 1,49,-1
EndSplineSet
EndChar

StartChar: Atilde
Encoding: 195 195 133
Width: 1424
Flags: HW
HStem: 0 141<-7.21484 138.453 287 471.079 910.468 1059.97 1301 1429.05> 499 154<485 874> 1505 20G<686.5 735.5> 1604 168<762.305 961.08> 1737 180<445.691 550 552 656.406>
LayerCount: 2
Fore
SplineSet
381 1627 m 1,0,1
 342 1628 342 1628 315 1655 c 128,-1,2
 288 1682 288 1682 287 1719 c 1,3,4
 352 1836 352 1836 466 1893 c 0,5,6
 514 1917 514 1917 565.5 1917 c 128,-1,7
 617 1917 617 1917 653.5 1894.5 c 128,-1,8
 690 1872 690 1872 725 1844.5 c 128,-1,9
 760 1817 760 1817 795.5 1794.5 c 128,-1,10
 831 1772 831 1772 864.5 1772 c 128,-1,11
 898 1772 898 1772 923 1787.5 c 128,-1,12
 948 1803 948 1803 969 1824 c 128,-1,13
 990 1845 990 1845 1007 1867 c 128,-1,14
 1024 1889 1024 1889 1038 1901 c 1,15,16
 1076 1901 1076 1901 1106 1872.5 c 128,-1,17
 1136 1844 1136 1844 1136 1809 c 1,18,19
 1082 1688 1082 1688 968 1629 c 0,20,21
 920 1604 920 1604 871.5 1604 c 128,-1,22
 823 1604 823 1604 793.5 1614 c 0,23,24
 737.237 1633.07 737.237 1633.07 668.619 1684.54 c 128,-1,25
 600 1736 600 1736 552 1736 c 1,26,-1
 550 1737 l 1,27,28
 476 1736 476 1736 406 1654 c 0,29,30
 390 1636 390 1636 381 1627 c 1,0,1
13 0 m 2,31,32
 -12 0 -12 0 -12 54.5 c 128,-1,33
 -12 109 -12 109 12 133 c 0,34,35
 20 141 20 141 48 141 c 0,36,37
 122 141 122 141 145 198 c 2,38,-1
 654 1505 l 2,39,40
 662 1525 662 1525 711 1525 c 128,-1,41
 760 1525 760 1525 768 1505 c 2,42,-1
 1301 141 l 1,43,-1
 1418 141 l 2,44,45
 1444 141 1444 141 1444 86 c 128,-1,46
 1444 31 1444 31 1429.5 15.5 c 128,-1,47
 1415 0 1415 0 1405 0 c 2,48,-1
 920 0 l 2,49,50
 895 0 895 0 895 53.5 c 128,-1,51
 895 107 895 107 910 124 c 128,-1,52
 925 141 925 141 936 141 c 0,53,54
 1060 141 1060 141 1060 165 c 0,55,56
 1060 174 1060 174 1052 190 c 1,57,-1
 933 499 l 1,58,-1
 426 499 l 1,59,-1
 287 141 l 1,60,-1
 459 141 l 2,61,62
 485 141 485 141 485 86 c 128,-1,63
 485 31 485 31 471.5 15.5 c 128,-1,64
 458 0 458 0 449 0 c 2,65,-1
 13 0 l 2,31,32
485 653 m 1,66,-1
 874 653 l 1,67,-1
 681 1157 l 1,68,-1
 485 653 l 1,66,-1
EndSplineSet
EndChar

StartChar: Adieresis
Encoding: 196 196 134
Width: 1424
Flags: HW
HStem: 0 141<-7.21484 138.453 287 471.079 910.468 1059.97 1301 1429.05> 499 154<485 874> 1505 20G<686.5 735.5> 1620 276<392.647 587.776 839.694 1039.78>
VStem: 355 273<1660.22 1854.75> 808 272<1652.03 1855.78>
LayerCount: 2
Fore
SplineSet
13 0 m 2,0,1
 -12 0 -12 0 -12 54.5 c 128,-1,2
 -12 109 -12 109 12 133 c 0,3,4
 20 141 20 141 48 141 c 0,5,6
 122 141 122 141 145 198 c 2,7,-1
 654 1505 l 2,8,9
 662 1525 662 1525 711 1525 c 128,-1,10
 760 1525 760 1525 768 1505 c 2,11,-1
 1301 141 l 1,12,-1
 1418 141 l 2,13,14
 1444 141 1444 141 1444 86 c 128,-1,15
 1444 31 1444 31 1429.5 15.5 c 128,-1,16
 1415 0 1415 0 1405 0 c 2,17,-1
 920 0 l 2,18,19
 895 0 895 0 895 53.5 c 128,-1,20
 895 107 895 107 910 124 c 128,-1,21
 925 141 925 141 936 141 c 0,22,23
 1060 141 1060 141 1060 165 c 0,24,25
 1060 174 1060 174 1052 190 c 1,26,-1
 933 499 l 1,27,-1
 426 499 l 1,28,-1
 287 141 l 1,29,-1
 459 141 l 2,30,31
 485 141 485 141 485 86 c 128,-1,32
 485 31 485 31 471.5 15.5 c 128,-1,33
 458 0 458 0 449 0 c 2,34,-1
 13 0 l 2,0,1
485 653 m 1,35,-1
 874 653 l 1,36,-1
 681 1157 l 1,37,-1
 485 653 l 1,35,-1
355 1759 m 0,38,39
 355 1851 355 1851 434 1886 c 0,40,41
 458 1896 458 1896 505 1896 c 0,42,43
 552 1896 552 1896 590 1856 c 128,-1,44
 628 1816 628 1816 628 1757 c 256,45,46
 628 1698 628 1698 589 1659 c 128,-1,47
 550 1620 550 1620 489 1620 c 128,-1,48
 428 1620 428 1620 391.5 1659 c 128,-1,49
 355 1698 355 1698 355 1759 c 0,38,39
943 1620 m 256,50,51
 851 1620 851 1620 818 1702 c 0,52,53
 808 1727 808 1727 808 1757 c 256,54,55
 808 1852 808 1852 888 1886 c 0,56,57
 913 1896 913 1896 943 1896 c 256,58,59
 1002 1896 1002 1896 1041 1857 c 128,-1,60
 1080 1818 1080 1818 1080 1757 c 256,61,62
 1080 1663 1080 1663 998 1630 c 0,63,64
 973 1620 973 1620 943 1620 c 256,50,51
EndSplineSet
EndChar

StartChar: Aring
Encoding: 197 197 135
Width: 1420
Flags: HW
HStem: 0 141<-9.21484 136.453 285 469.079 908.468 1057.97 1299 1427.05> 499 154<483 872> 1696 125<644.814 774.19>
VStem: 488 139<1545.5 1678.24> 791 131<1544.9 1678.87>
LayerCount: 2
Fore
SplineSet
11 0 m 2,0,1
 -14 0 -14 0 -14 54.5 c 128,-1,2
 -14 109 -14 109 10 133 c 0,3,4
 18 141 18 141 46 141 c 0,5,6
 120 141 120 141 143 198 c 2,7,-1
 616 1413 l 1,8,9
 556 1438 556 1438 522 1490 c 128,-1,10
 488 1542 488 1542 488 1597 c 0,11,12
 488 1694 488 1694 548 1758 c 1,13,14
 610 1821 610 1821 705 1821 c 256,15,16
 800 1821 800 1821 861 1759 c 128,-1,17
 922 1697 922 1697 922 1621 c 0,18,19
 922 1471 922 1471 800 1416 c 1,20,-1
 1299 141 l 1,21,-1
 1416 141 l 2,22,23
 1442 141 1442 141 1442 86 c 128,-1,24
 1442 31 1442 31 1427.5 15.5 c 128,-1,25
 1413 0 1413 0 1403 0 c 2,26,-1
 918 0 l 2,27,28
 893 0 893 0 893 53.5 c 128,-1,29
 893 107 893 107 908 124 c 128,-1,30
 923 141 923 141 934 141 c 0,31,32
 1058 141 1058 141 1058 165 c 0,33,34
 1058 174 1058 174 1050 190 c 1,35,-1
 931 499 l 1,36,-1
 424 499 l 1,37,-1
 285 141 l 1,38,-1
 457 141 l 2,39,40
 483 141 483 141 483 86 c 128,-1,41
 483 31 483 31 469.5 15.5 c 128,-1,42
 456 0 456 0 447 0 c 2,43,-1
 11 0 l 2,0,1
483 653 m 1,44,-1
 872 653 l 1,45,-1
 679 1157 l 1,46,-1
 483 653 l 1,44,-1
627 1612 m 256,47,48
 627 1577 627 1577 650.5 1552.5 c 128,-1,49
 674 1528 674 1528 709 1528 c 256,50,51
 744 1528 744 1528 767.5 1552.5 c 128,-1,52
 791 1577 791 1577 791 1612 c 256,53,54
 791 1647 791 1647 767.5 1671.5 c 128,-1,55
 744 1696 744 1696 709 1696 c 256,56,57
 674 1696 674 1696 650.5 1671.5 c 128,-1,58
 627 1647 627 1647 627 1612 c 256,47,48
EndSplineSet
EndChar

StartChar: AE
Encoding: 198 198 136
Width: 1875
Flags: HW
HStem: 0 154<-20.5017 119.998 273 397.079 710.255 874.469 1086 1616.03> 631 154<526 852 1068 1396.16> 1180 325<1643.02 1784> 1351 154<735.004 830.438 1040 1619.77>
VStem: 829 211<997.833 1350.86> 875 211<154.316 533.904> 1405 144<454.962 631 812.861 944.564> 1643 141<1181.4 1309.24> 1682 143<218.721 318.073>
LayerCount: 2
Fore
SplineSet
1477 453 m 128,-1,1
 1405 453 1405 453 1405 480 c 2,2,-1
 1405 631 l 1,3,-1
 1068 631 l 1,4,-1
 1086 154 l 1,5,-1
 1370 154 l 2,6,7
 1513 154 1513 154 1561 171 c 128,-1,8
 1609 188 1609 188 1638.5 218 c 128,-1,9
 1668 248 1668 248 1682 303 c 1,10,11
 1686 324 1686 324 1714 324 c 0,12,13
 1824 324 1824 324 1825 282 c 1,14,-1
 1825 274 l 1,15,16
 1811 172 1811 172 1779.5 96.5 c 128,-1,17
 1748 21 1748 21 1733 0 c 1,18,-1
 713 0 l 2,19,20
 686 0 686 0 686 55 c 128,-1,21
 686 110 686 110 710 134 c 0,22,23
 718 142 718 142 766.5 141.5 c 0,24,25
 875 140.381 875 140.381 875 184 c 1,26,-1
 858 631 l 1,27,-1
 467 631 l 1,28,-1
 273 141 l 1,29,-1
 385 141 l 2,30,31
 411 141 411 141 411 86 c 128,-1,32
 411 31 411 31 397.5 15.5 c 128,-1,33
 384 0 384 0 375 0 c 2,34,-1
 -12 0 l 2,35,36
 -37 0 -37 0 -37 54 c 128,-1,37
 -37 108 -37 108 -21 125 c 128,-1,38
 -5 142 -5 142 4 143 c 0,39,40
 52 147 52 147 80 157.5 c 128,-1,41
 108 168 108 168 120 198 c 2,42,-1
 615 1469 l 2,43,44
 629 1505 629 1505 671 1505 c 2,45,-1
 1784 1505 l 1,46,-1
 1784 1214 l 2,47,48
 1784 1180 1784 1180 1713.5 1180 c 128,-1,49
 1643 1180 1643 1180 1643 1202 c 0,50,51
 1643 1286 1643 1286 1621 1310 c 0,52,53
 1582 1351 1582 1351 1479 1351 c 2,54,-1
 1040 1351 l 1,55,-1
 1062 785 l 1,56,-1
 1340 785 l 2,57,58
 1386 785 1386 785 1396.5 812 c 128,-1,59
 1407 839 1407 839 1407 936 c 0,60,61
 1407 959 1407 959 1463 959 c 128,-1,62
 1519 959 1519 959 1534 945 c 128,-1,63
 1549 931 1549 931 1549 922 c 2,64,-1
 1549 494 l 2,65,0
 1549 453 1549 453 1477 453 c 128,-1,1
829 1350 m 1,66,67
 830 1364 830 1364 812 1364 c 0,68,69
 755 1364 755 1364 735 1313 c 2,70,-1
 526 785 l 1,71,-1
 852 785 l 1,72,-1
 829 1350 l 1,66,67
EndSplineSet
EndChar

StartChar: Ccedilla
Encoding: 199 199 137
Width: 1277
Flags: HW
HStem: -440 112<546.197 754.535> 1371 154<586.897 924.147>
VStem: 103.5 232.5<468.279 1070.34> 785 168<-294.77 -190.676> 904 307<1133.41 1333.78>
LayerCount: 2
Fore
SplineSet
785 -240 m 1,0,1
 785 -179 785 -179 649 -179 c 1,2,-1
 610 -131 l 1,3,-1
 651 -16 l 1,4,5
 412 9 412 9 258 199 c 128,-1,6
 104 389 104 389 103.5 754.5 c 128,-1,7
 103 1120 103 1120 290 1322.5 c 128,-1,8
 477 1525 477 1525 775 1525 c 2,9,-1
 778 1525 l 2,10,11
 935 1525 935 1525 1073 1445 c 128,-1,12
 1211 1365 1211 1365 1211 1241 c 1,13,14
 1210 1177 1210 1177 1166.5 1132 c 128,-1,15
 1123 1087 1123 1087 1058 1087 c 256,16,17
 993 1087 993 1087 948.5 1131.5 c 128,-1,18
 904 1176 904 1176 904 1236 c 128,-1,19
 904 1296 904 1296 926 1335 c 1,20,21
 867 1371 867 1371 771 1371 c 0,22,23
 579 1371 579 1371 457.5 1219.5 c 128,-1,24
 336 1068 336 1068 336 823 c 0,25,26
 336 316 336 316 585 186 c 0,27,28
 664 144 664 144 746 144 c 2,29,-1
 748 144 l 2,30,31
 909 144 909 144 1035 228 c 0,32,33
 1094 268 1094 268 1114 268 c 0,34,35
 1134 268 1134 268 1161.5 231.5 c 128,-1,36
 1189 195 1189 195 1189 168.5 c 128,-1,37
 1189 142 1189 142 1172 126 c 0,38,39
 1125 83 1125 83 1030.5 40 c 128,-1,40
 936 -3 936 -3 810 -15 c 1,41,-1
 785 -90 l 1,42,43
 900 -110 900 -110 940 -182 c 0,44,45
 954 -206 954 -206 953 -236 c 1,46,47
 953 -440 953 -440 585 -440 c 0,48,49
 565 -440 565 -440 555 -421 c 128,-1,50
 545 -402 545 -402 545 -382 c 0,51,52
 545 -328 545 -328 574 -328 c 0,53,54
 716 -328 716 -328 768 -278 c 0,55,56
 786 -262 786 -262 785 -240 c 1,0,1
EndSplineSet
EndChar

StartChar: Egrave
Encoding: 200 200 138
Width: 1288
Flags: HW
HStem: 0 154<126.255 290 501 1031> 694 154<501 811.163> 1002 20G<850 906> 1180 325<1058.02 1199> 1351 154<81.6899 290 501 1034.77>
VStem: 290 211<154.305 694 848 1350.86> 820 144<517.962 694 875.861 1007.56> 1058 141<1181.4 1309.24>
LayerCount: 2
Fore
SplineSet
114 1364 m 2,0,1
 80 1364 80 1364 73 1442 c 1,2,3
 73 1505 73 1505 99 1505 c 2,4,-1
 1199 1505 l 1,5,-1
 1199 1214 l 2,6,7
 1199 1180 1199 1180 1128.5 1180 c 128,-1,8
 1058 1180 1058 1180 1058 1202 c 0,9,10
 1058 1286 1058 1286 1036 1310 c 0,11,12
 997 1351 997 1351 894 1351 c 2,13,-1
 501 1351 l 1,14,-1
 501 848 l 1,15,-1
 755 848 l 2,16,17
 801 848 801 848 811.5 875 c 128,-1,18
 822 902 822 902 822 999 c 0,19,20
 822 1022 822 1022 878 1022 c 128,-1,21
 934 1022 934 1022 949 1008 c 128,-1,22
 964 994 964 994 964 985 c 2,23,-1
 964 557 l 2,24,25
 964 516 964 516 892 516 c 128,-1,26
 820 516 820 516 820 543 c 2,27,-1
 820 694 l 1,28,-1
 501 694 l 1,29,-1
 501 154 l 1,30,-1
 1031 154 l 1,31,-1
 1107 303 l 2,32,33
 1116 322 1116 322 1144 322 c 0,34,35
 1240 322 1240 322 1241 281 c 0,36,37
 1241 276 1241 276 1240 274 c 2,38,-1
 1148 0 l 1,39,-1
 128 0 l 2,40,41
 101 0 101 0 101.5 55 c 128,-1,42
 102 110 102 110 126 134 c 0,43,44
 134 142 134 142 161 142 c 0,45,46
 290 140 290 140 290 184 c 2,47,-1
 290 1350 l 2,48,49
 290 1364 290 1364 278 1364 c 2,50,-1
 114 1364 l 2,0,1
411 1833 m 1,51,52
 411 1942 411 1942 501 1980 c 0,53,54
 526 1991 526 1991 542 1991 c 2,55,-1
 560 1991 l 1,56,-1
 833 1706 l 1,57,58
 832 1663 832 1663 804 1630.5 c 128,-1,59
 776 1598 776 1598 735 1598 c 1,60,-1
 411 1833 l 1,51,52
EndSplineSet
EndChar

StartChar: Eacute
Encoding: 201 201 139
Width: 1288
Flags: HW
HStem: 0 154<126.255 290 501 1031> 694 154<501 811.163> 1002 20G<850 906> 1180 325<1058.02 1199> 1351 154<81.6899 290 501 1034.77>
VStem: 290 211<154.305 694 848 1350.86> 820 144<517.962 694 875.861 1007.56> 1058 141<1181.4 1309.24>
LayerCount: 2
Fore
SplineSet
114 1364 m 2,0,1
 80 1364 80 1364 73 1442 c 1,2,3
 73 1505 73 1505 99 1505 c 2,4,-1
 1199 1505 l 1,5,-1
 1199 1214 l 2,6,7
 1199 1180 1199 1180 1128.5 1180 c 128,-1,8
 1058 1180 1058 1180 1058 1202 c 0,9,10
 1058 1286 1058 1286 1036 1310 c 0,11,12
 997 1351 997 1351 894 1351 c 2,13,-1
 501 1351 l 1,14,-1
 501 848 l 1,15,-1
 755 848 l 2,16,17
 801 848 801 848 811.5 875 c 128,-1,18
 822 902 822 902 822 999 c 0,19,20
 822 1022 822 1022 878 1022 c 128,-1,21
 934 1022 934 1022 949 1008 c 128,-1,22
 964 994 964 994 964 985 c 2,23,-1
 964 557 l 2,24,25
 964 516 964 516 892 516 c 128,-1,26
 820 516 820 516 820 543 c 2,27,-1
 820 694 l 1,28,-1
 501 694 l 1,29,-1
 501 154 l 1,30,-1
 1031 154 l 1,31,-1
 1107 303 l 2,32,33
 1116 322 1116 322 1144 322 c 0,34,35
 1240 322 1240 322 1241 281 c 0,36,37
 1241 276 1241 276 1240 274 c 2,38,-1
 1148 0 l 1,39,-1
 128 0 l 2,40,41
 101 0 101 0 101.5 55 c 128,-1,42
 102 110 102 110 126 134 c 0,43,44
 134 142 134 142 161 142 c 0,45,46
 290 140 290 140 290 184 c 2,47,-1
 290 1350 l 2,48,49
 290 1364 290 1364 278 1364 c 2,50,-1
 114 1364 l 2,0,1
683 1598 m 1,51,52
 641 1598 641 1598 612.5 1630.5 c 128,-1,53
 584 1663 584 1663 584 1706 c 1,54,-1
 857 1991 l 1,55,-1
 860 1991 l 2,56,57
 922 1991 922 1991 964 1947.5 c 128,-1,58
 1006 1904 1006 1904 1006 1833 c 1,59,-1
 683 1598 l 1,51,52
EndSplineSet
EndChar

StartChar: Ecircumflex
Encoding: 202 202 140
Width: 1288
Flags: HW
HStem: 0 154<126.255 290 501 1031> 694 154<501 811.163> 1002 20G<850 906> 1180 325<1058.02 1199> 1351 154<81.6899 290 501 1034.77>
VStem: 290 211<154.305 694 848 1350.86> 820 144<517.962 694 875.861 1007.56> 1058 141<1181.4 1309.24>
LayerCount: 2
Fore
SplineSet
450 1610 m 1,0,1
 394 1610 394 1610 372 1673 c 0,2,3
 366 1691 366 1691 366 1710 c 1,4,-1
 622 1886 l 1,5,6
 666 1915 666 1915 697 1915 c 128,-1,7
 728 1915 728 1915 771 1886 c 2,8,-1
 1027 1710 l 1,9,10
 1027 1646 1027 1646 976 1618 c 0,11,12
 961 1610 961 1610 943 1610 c 1,13,-1
 697 1726 l 1,14,-1
 450 1610 l 1,0,1
114 1364 m 2,15,16
 80 1364 80 1364 73 1442 c 1,17,18
 73 1505 73 1505 99 1505 c 2,19,-1
 1199 1505 l 1,20,-1
 1199 1214 l 2,21,22
 1199 1180 1199 1180 1128.5 1180 c 128,-1,23
 1058 1180 1058 1180 1058 1202 c 0,24,25
 1058 1286 1058 1286 1036 1310 c 0,26,27
 997 1351 997 1351 894 1351 c 2,28,-1
 501 1351 l 1,29,-1
 501 848 l 1,30,-1
 755 848 l 2,31,32
 801 848 801 848 811.5 875 c 128,-1,33
 822 902 822 902 822 999 c 0,34,35
 822 1022 822 1022 878 1022 c 128,-1,36
 934 1022 934 1022 949 1008 c 128,-1,37
 964 994 964 994 964 985 c 2,38,-1
 964 557 l 2,39,40
 964 516 964 516 892 516 c 128,-1,41
 820 516 820 516 820 543 c 2,42,-1
 820 694 l 1,43,-1
 501 694 l 1,44,-1
 501 154 l 1,45,-1
 1031 154 l 1,46,-1
 1107 303 l 2,47,48
 1116 322 1116 322 1144 322 c 0,49,50
 1240 322 1240 322 1241 281 c 0,51,52
 1241 276 1241 276 1240 274 c 2,53,-1
 1148 0 l 1,54,-1
 128 0 l 2,55,56
 101 0 101 0 101.5 55 c 128,-1,57
 102 110 102 110 126 134 c 0,58,59
 134 142 134 142 161 142 c 0,60,61
 290 140 290 140 290 184 c 2,62,-1
 290 1350 l 2,63,64
 290 1364 290 1364 278 1364 c 2,65,-1
 114 1364 l 2,15,16
EndSplineSet
EndChar

StartChar: Edieresis
Encoding: 203 203 141
Width: 1288
Flags: HW
HStem: 0 154<126.255 290 501 1031> 694 154<501 811.163> 1002 20G<850 906> 1180 325<1058.02 1199> 1351 154<81.6899 290 501 1034.77> 1620 276<362.162 557.776 823.895 1007.78>
VStem: 290 211<154.305 694 848 1350.86> 324 273<1660.22 1854.75> 777 272<1652.03 1855.78> 820 144<517.962 694 875.861 1007.56> 1058 141<1181.4 1309.24>
LayerCount: 2
Fore
SplineSet
114 1364 m 2,0,1
 80 1364 80 1364 73 1442 c 1,2,3
 73 1505 73 1505 99 1505 c 2,4,-1
 1199 1505 l 1,5,-1
 1199 1214 l 2,6,7
 1199 1180 1199 1180 1128.5 1180 c 128,-1,8
 1058 1180 1058 1180 1058 1202 c 0,9,10
 1058 1286 1058 1286 1036 1310 c 0,11,12
 997 1351 997 1351 894 1351 c 2,13,-1
 501 1351 l 1,14,-1
 501 848 l 1,15,-1
 755 848 l 2,16,17
 801 848 801 848 811.5 875 c 128,-1,18
 822 902 822 902 822 999 c 0,19,20
 822 1022 822 1022 878 1022 c 128,-1,21
 934 1022 934 1022 949 1008 c 128,-1,22
 964 994 964 994 964 985 c 2,23,-1
 964 557 l 2,24,25
 964 516 964 516 892 516 c 128,-1,26
 820 516 820 516 820 543 c 2,27,-1
 820 694 l 1,28,-1
 501 694 l 1,29,-1
 501 154 l 1,30,-1
 1031 154 l 1,31,-1
 1107 303 l 2,32,33
 1116 322 1116 322 1144 322 c 0,34,35
 1240 322 1240 322 1241 281 c 0,36,37
 1241 276 1241 276 1240 274 c 2,38,-1
 1148 0 l 1,39,-1
 128 0 l 2,40,41
 101 0 101 0 101.5 55 c 128,-1,42
 102 110 102 110 126 134 c 0,43,44
 134 142 134 142 161 142 c 0,45,46
 290 140 290 140 290 184 c 2,47,-1
 290 1350 l 2,48,49
 290 1364 290 1364 278 1364 c 2,50,-1
 114 1364 l 2,0,1
324 1757 m 256,51,52
 324 1851 324 1851 404 1886 c 0,53,54
 428 1896 428 1896 475 1896 c 0,55,56
 522 1896 522 1896 560 1856 c 128,-1,57
 598 1816 598 1816 597 1757 c 257,58,59
 598 1698 598 1698 559 1659 c 128,-1,60
 520 1620 520 1620 459 1620 c 128,-1,61
 398 1620 398 1620 361 1659 c 128,-1,62
 324 1698 324 1698 324 1757 c 256,51,52
912 1620 m 256,63,64
 820 1620 820 1620 787 1702 c 0,65,66
 777 1727 777 1727 777 1757 c 256,67,68
 777 1852 777 1852 857 1886 c 0,69,70
 882 1896 882 1896 912 1896 c 256,71,72
 970 1896 970 1896 1009 1857 c 128,-1,73
 1048 1818 1048 1818 1049 1757 c 257,74,75
 1049 1663 1049 1663 967 1630 c 0,76,77
 942 1620 942 1620 912 1620 c 256,63,64
EndSplineSet
EndChar

StartChar: Igrave
Encoding: 204 204 142
Width: 791
Flags: HW
HStem: 0 141<128.254 291 502 680.532> 1364 141<78.042 291 502 715.438>
VStem: 291 211<148.5 1364>
LayerCount: 2
Fore
SplineSet
670 141 m 2,0,1
 696 141 696 141 696 86.5 c 128,-1,2
 696 32 696 32 681 16 c 128,-1,3
 666 0 666 0 655 0 c 2,4,-1
 123 0 l 2,5,6
 100 0 100 0 100 53 c 128,-1,7
 100 106 100 106 128 134 c 0,8,9
 136 142 136 142 162 142 c 0,10,11
 290 140 290 140 291 184 c 1,12,-1
 291 1348 l 2,13,14
 291 1364 291 1364 278 1364 c 2,15,-1
 115 1364 l 2,16,17
 86 1364 86 1364 76 1418 c 0,18,19
 74 1432 74 1432 74 1446 c 0,20,21
 74 1505 74 1505 100 1505 c 2,22,-1
 692 1505 l 2,23,24
 717 1505 717 1505 717 1434.5 c 128,-1,25
 717 1364 717 1364 682 1364 c 2,26,-1
 502 1364 l 1,27,-1
 502 141 l 1,28,-1
 670 141 l 2,0,1
57 1833 m 1,29,30
 57 1942 57 1942 147 1980 c 0,31,32
 172 1991 172 1991 188 1991 c 2,33,-1
 206 1991 l 1,34,-1
 479 1706 l 1,35,36
 478 1663 478 1663 450 1630.5 c 128,-1,37
 422 1598 422 1598 381 1598 c 1,38,-1
 57 1833 l 1,29,30
EndSplineSet
EndChar

StartChar: Iacute
Encoding: 205 205 143
Width: 791
Flags: HW
HStem: 0 141<128.254 291 502 680.532> 1364 141<78.042 291 502 715.438>
VStem: 291 211<148.5 1364>
LayerCount: 2
Fore
SplineSet
670 141 m 2,0,1
 696 141 696 141 696 86.5 c 128,-1,2
 696 32 696 32 681 16 c 128,-1,3
 666 0 666 0 655 0 c 2,4,-1
 123 0 l 2,5,6
 100 0 100 0 100 53 c 128,-1,7
 100 106 100 106 128 134 c 0,8,9
 136 142 136 142 162 142 c 0,10,11
 290 140 290 140 291 184 c 1,12,-1
 291 1348 l 2,13,14
 291 1364 291 1364 278 1364 c 2,15,-1
 115 1364 l 2,16,17
 86 1364 86 1364 76 1418 c 0,18,19
 74 1432 74 1432 74 1446 c 0,20,21
 74 1505 74 1505 100 1505 c 2,22,-1
 692 1505 l 2,23,24
 717 1505 717 1505 717 1434.5 c 128,-1,25
 717 1364 717 1364 682 1364 c 2,26,-1
 502 1364 l 1,27,-1
 502 141 l 1,28,-1
 670 141 l 2,0,1
412 1598 m 1,29,30
 370 1598 370 1598 341.5 1630.5 c 128,-1,31
 313 1663 313 1663 313 1706 c 1,32,-1
 586 1991 l 1,33,-1
 589 1991 l 2,34,35
 651 1991 651 1991 693 1947.5 c 128,-1,36
 735 1904 735 1904 735 1833 c 1,37,-1
 412 1598 l 1,29,30
EndSplineSet
EndChar

StartChar: Icircumflex
Encoding: 206 206 144
Width: 791
Flags: HW
HStem: 0 141<128.254 291 502 680.532> 1364 141<78.042 291 502 715.438>
VStem: 291 211<148.5 1364>
LayerCount: 2
Fore
SplineSet
670 141 m 2,0,1
 696 141 696 141 696 86.5 c 128,-1,2
 696 32 696 32 681 16 c 128,-1,3
 666 0 666 0 655 0 c 2,4,-1
 123 0 l 2,5,6
 100 0 100 0 100 53 c 128,-1,7
 100 106 100 106 128 134 c 0,8,9
 136 142 136 142 162 142 c 0,10,11
 290 140 290 140 291 184 c 1,12,-1
 291 1348 l 2,13,14
 291 1364 291 1364 278 1364 c 2,15,-1
 115 1364 l 2,16,17
 86 1364 86 1364 76 1418 c 0,18,19
 74 1432 74 1432 74 1446 c 0,20,21
 74 1505 74 1505 100 1505 c 2,22,-1
 692 1505 l 2,23,24
 717 1505 717 1505 717 1434.5 c 128,-1,25
 717 1364 717 1364 682 1364 c 2,26,-1
 502 1364 l 1,27,-1
 502 141 l 1,28,-1
 670 141 l 2,0,1
145 1610 m 1,29,30
 111 1610 111 1610 86 1640 c 128,-1,31
 61 1670 61 1670 61 1710 c 1,32,-1
 317 1886 l 2,33,34
 358 1915 358 1915 390.5 1915 c 128,-1,35
 423 1915 423 1915 467 1886 c 1,36,-1
 723 1710 l 1,37,38
 723 1646 723 1646 672 1618 c 0,39,40
 657 1610 657 1610 639 1610 c 1,41,-1
 393 1726 l 1,42,-1
 145 1610 l 1,29,30
EndSplineSet
EndChar

StartChar: Idieresis
Encoding: 207 207 145
Width: 791
Flags: HW
HStem: 0 141<128.254 291 502 680.532> 1364 141<78.042 291 502 715.438> 1620 276<72.6466 267.776 519.694 719.776>
VStem: 35 273<1660.22 1854.75> 291 211<148.5 1364> 488 272<1652.03 1855.78>
LayerCount: 2
Fore
SplineSet
670 141 m 2,0,1
 696 141 696 141 696 86.5 c 128,-1,2
 696 32 696 32 681 16 c 128,-1,3
 666 0 666 0 655 0 c 2,4,-1
 123 0 l 2,5,6
 100 0 100 0 100 53 c 128,-1,7
 100 106 100 106 128 134 c 0,8,9
 136 142 136 142 162 142 c 0,10,11
 290 140 290 140 291 184 c 1,12,-1
 291 1348 l 2,13,14
 291 1364 291 1364 278 1364 c 2,15,-1
 115 1364 l 2,16,17
 86 1364 86 1364 76 1418 c 0,18,19
 74 1432 74 1432 74 1446 c 0,20,21
 74 1505 74 1505 100 1505 c 2,22,-1
 692 1505 l 2,23,24
 717 1505 717 1505 717 1434.5 c 128,-1,25
 717 1364 717 1364 682 1364 c 2,26,-1
 502 1364 l 1,27,-1
 502 141 l 1,28,-1
 670 141 l 2,0,1
35 1759 m 0,29,30
 35 1851 35 1851 114 1886 c 0,31,32
 138 1896 138 1896 185 1896 c 0,33,34
 232 1896 232 1896 270 1856 c 128,-1,35
 308 1816 308 1816 308 1757 c 256,36,37
 308 1698 308 1698 269 1659 c 128,-1,38
 230 1620 230 1620 169 1620 c 128,-1,39
 108 1620 108 1620 71.5 1659 c 128,-1,40
 35 1698 35 1698 35 1759 c 0,29,30
623 1620 m 256,41,42
 531 1620 531 1620 498 1702 c 0,43,44
 488 1727 488 1727 488 1757 c 256,45,46
 488 1852 488 1852 568 1886 c 0,47,48
 593 1896 593 1896 623 1896 c 256,49,50
 682 1896 682 1896 721 1857 c 128,-1,51
 760 1818 760 1818 760 1757 c 256,52,53
 760 1663 760 1663 678 1630 c 0,54,55
 653 1620 653 1620 623 1620 c 256,41,42
EndSplineSet
EndChar

StartChar: Eth
Encoding: 208 208 146
Width: 1527
Flags: HW
HStem: 0 154<137.223 272.144 511 869.457> 694 154<130 300 511 765> 1351 154<91.6899 300 511 905.569>
VStem: 300 211<154.197 694 848 1350.86> 1190 233<472.345 1034.36>
LayerCount: 2
Fore
SplineSet
124 1364 m 2,0,1
 90 1364 90 1364 83 1442 c 1,2,3
 83 1505 83 1505 109 1505 c 2,4,-1
 691 1505 l 2,5,6
 1086 1505 1086 1505 1254.5 1321 c 128,-1,7
 1423 1137 1423 1137 1423 756 c 128,-1,8
 1423 375 1423 375 1194 176 c 0,9,10
 992 1 992 1 691 0 c 1,11,-1
 138 0 l 2,12,13
 111 0 111 0 111 51.5 c 128,-1,14
 111 103 111 103 137 133 c 0,15,16
 144 142 144 142 195 142.5 c 0,17,18
 246 143 246 143 273 151.5 c 128,-1,19
 300 160 300 160 300 184 c 2,20,-1
 300 694 l 1,21,-1
 130 694 l 1,22,-1
 130 848 l 1,23,-1
 300 848 l 1,24,-1
 300 1350 l 2,25,26
 300 1364 300 1364 288 1364 c 2,27,-1
 124 1364 l 2,0,1
511 154 m 1,28,-1
 658 154 l 2,29,30
 872 154 872 154 1031 302 c 128,-1,31
 1190 450 1190 450 1190 723 c 0,32,33
 1190 1191 1190 1191 898 1312 c 0,34,35
 804 1351 804 1351 683 1351 c 2,36,-1
 511 1351 l 1,37,-1
 511 848 l 1,38,-1
 765 848 l 1,39,-1
 765 694 l 1,40,-1
 511 694 l 1,41,-1
 511 154 l 1,28,-1
EndSplineSet
EndChar

StartChar: Ntilde
Encoding: 209 209 147
Width: 1667
Flags: HW
HStem: 0 141<128.254 291 445 624.532> 1364 141<78.042 291 1028.04 1241 1395 1607.44> 1604 168<896.305 1095.08> 1737 180<579.691 684 686 790.406>
VStem: 291 154<148.5 1127> 1241 154<345 1364>
LayerCount: 2
Fore
SplineSet
515 1627 m 1,0,1
 476 1628 476 1628 449 1655 c 128,-1,2
 422 1682 422 1682 421 1719 c 1,3,4
 486 1836 486 1836 600 1893 c 0,5,6
 648 1917 648 1917 699.5 1917 c 128,-1,7
 751 1917 751 1917 787.5 1894.5 c 128,-1,8
 824 1872 824 1872 859 1844.5 c 128,-1,9
 894 1817 894 1817 929.5 1794.5 c 128,-1,10
 965 1772 965 1772 998.5 1772 c 128,-1,11
 1032 1772 1032 1772 1057 1787.5 c 128,-1,12
 1082 1803 1082 1803 1103 1824 c 128,-1,13
 1124 1845 1124 1845 1141 1867 c 128,-1,14
 1158 1889 1158 1889 1172 1901 c 1,15,16
 1210 1901 1210 1901 1240 1872.5 c 128,-1,17
 1270 1844 1270 1844 1270 1809 c 1,18,19
 1216 1688 1216 1688 1102 1629 c 0,20,21
 1054 1604 1054 1604 1005.5 1604 c 128,-1,22
 957 1604 957 1604 927.5 1614 c 0,23,24
 871.237 1633.07 871.237 1633.07 802.619 1684.54 c 128,-1,25
 734 1736 734 1736 686 1736 c 1,26,-1
 684 1737 l 1,27,28
 610 1736 610 1736 540 1654 c 0,29,30
 524 1636 524 1636 515 1627 c 1,0,1
74 1446 m 0,31,32
 74 1505 74 1505 100 1505 c 2,33,-1
 448 1505 l 1,34,-1
 1241 345 l 1,35,-1
 1241 1348 l 2,36,37
 1241 1364 1241 1364 1228 1364 c 2,38,-1
 1065 1364 l 2,39,40
 1036 1364 1036 1364 1026 1418 c 0,41,42
 1024 1432 1024 1432 1024 1446 c 0,43,44
 1024 1505 1024 1505 1050 1505 c 2,45,-1
 1584 1505 l 2,46,47
 1609 1505 1609 1505 1609 1434.5 c 128,-1,48
 1609 1364 1609 1364 1574 1364 c 2,49,-1
 1395 1364 l 1,50,-1
 1395 -2 l 2,51,52
 1395 -20 1395 -20 1322.5 -20 c 128,-1,53
 1250 -20 1250 -20 1239 -2 c 1,54,-1
 445 1127 l 1,55,-1
 445 141 l 1,56,-1
 613 141 l 2,57,58
 640 141 640 141 640 85.5 c 128,-1,59
 640 30 640 30 625 15 c 128,-1,60
 610 0 610 0 598 0 c 2,61,-1
 125 0 l 2,62,63
 100 0 100 0 100 53 c 128,-1,64
 100 106 100 106 128 134 c 0,65,66
 136 142 136 142 162 142 c 0,67,68
 290 140 290 140 291 184 c 1,69,-1
 291 1348 l 2,70,71
 291 1364 291 1364 278 1364 c 2,72,-1
 115 1364 l 2,73,74
 86 1364 86 1364 76 1418 c 0,75,76
 74 1432 74 1432 74 1446 c 0,31,32
EndSplineSet
EndChar

StartChar: Ograve
Encoding: 210 210 148
Width: 1501
Flags: HW
HStem: -20 165<580.728 942.531> 1360 164.5<572.984 900.354>
VStem: 102 230<462.361 1064.53> 1168 230<415.179 1011.9>
LayerCount: 2
Fore
SplineSet
288 161 m 0,0,1
 102 361 102 361 102 739 c 128,-1,2
 102 1117 102 1117 287.5 1321 c 128,-1,3
 473 1525 473 1525 775 1524.5 c 128,-1,4
 1077 1524 1077 1524 1237.5 1312 c 128,-1,5
 1398 1100 1398 1100 1398 725 c 128,-1,6
 1398 350 1398 350 1198 154 c 1,7,8
 1022 -20 1022 -20 738.5 -20 c 128,-1,9
 455 -20 455 -20 288 161 c 0,0,1
581 187 m 0,10,11
 660 145 660 145 752 145 c 0,12,13
 939 145 939 145 1046 274 c 1,14,15
 1168 423 1168 423 1168 708.5 c 128,-1,16
 1168 994 1168 994 1045 1177 c 128,-1,17
 922 1360 922 1360 744 1360 c 128,-1,18
 566 1360 566 1360 449 1212 c 128,-1,19
 332 1064 332 1064 332 823 c 0,20,21
 332 318 332 318 581 187 c 0,10,11
379 1833 m 1,22,23
 379 1942 379 1942 469 1980 c 0,24,25
 494 1991 494 1991 510 1991 c 2,26,-1
 528 1991 l 1,27,-1
 801 1706 l 1,28,29
 800 1663 800 1663 772 1630.5 c 128,-1,30
 744 1598 744 1598 703 1598 c 1,31,-1
 379 1833 l 1,22,23
EndSplineSet
EndChar

StartChar: Oacute
Encoding: 211 211 149
Width: 1501
Flags: HW
HStem: -20 165<580.728 942.531> 1360 164.5<572.984 900.354>
VStem: 102 230<462.361 1064.53> 1168 230<415.179 1011.9>
LayerCount: 2
Fore
SplineSet
288 161 m 0,0,1
 102 361 102 361 102 739 c 128,-1,2
 102 1117 102 1117 287.5 1321 c 128,-1,3
 473 1525 473 1525 775 1524.5 c 128,-1,4
 1077 1524 1077 1524 1237.5 1312 c 128,-1,5
 1398 1100 1398 1100 1398 725 c 128,-1,6
 1398 350 1398 350 1198 154 c 1,7,8
 1022 -20 1022 -20 738.5 -20 c 128,-1,9
 455 -20 455 -20 288 161 c 0,0,1
581 187 m 0,10,11
 660 145 660 145 752 145 c 0,12,13
 939 145 939 145 1046 274 c 1,14,15
 1168 423 1168 423 1168 708.5 c 128,-1,16
 1168 994 1168 994 1045 1177 c 128,-1,17
 922 1360 922 1360 744 1360 c 128,-1,18
 566 1360 566 1360 449 1212 c 128,-1,19
 332 1064 332 1064 332 823 c 0,20,21
 332 318 332 318 581 187 c 0,10,11
775 1598 m 1,22,23
 733 1598 733 1598 704.5 1630.5 c 128,-1,24
 676 1663 676 1663 676 1706 c 1,25,-1
 949 1991 l 1,26,-1
 952 1991 l 2,27,28
 1014 1991 1014 1991 1056 1947.5 c 128,-1,29
 1098 1904 1098 1904 1098 1833 c 1,30,-1
 775 1598 l 1,22,23
EndSplineSet
EndChar

StartChar: Ocircumflex
Encoding: 212 212 150
Width: 1501
Flags: HW
HStem: -20 165<580.728 942.531> 1360 164.5<572.984 900.354>
VStem: 102 230<462.361 1064.53> 1168 230<415.179 1011.9>
LayerCount: 2
Fore
SplineSet
509 1610 m 1,0,1
 475 1610 475 1610 450 1640 c 128,-1,2
 425 1670 425 1670 425 1710 c 1,3,-1
 681 1886 l 2,4,5
 722 1915 722 1915 755.5 1915 c 128,-1,6
 789 1915 789 1915 831 1886 c 2,7,-1
 1087 1710 l 1,8,9
 1087 1646 1087 1646 1036 1618 c 0,10,11
 1021 1610 1021 1610 1003 1610 c 1,12,-1
 757 1726 l 1,13,-1
 509 1610 l 1,0,1
288 161 m 0,14,15
 102 361 102 361 102 739 c 128,-1,16
 102 1117 102 1117 287.5 1321 c 128,-1,17
 473 1525 473 1525 775 1524.5 c 128,-1,18
 1077 1524 1077 1524 1237.5 1312 c 128,-1,19
 1398 1100 1398 1100 1398 725 c 128,-1,20
 1398 350 1398 350 1198 154 c 1,21,22
 1022 -20 1022 -20 738.5 -20 c 128,-1,23
 455 -20 455 -20 288 161 c 0,14,15
581 187 m 0,24,25
 660 145 660 145 752 145 c 0,26,27
 939 145 939 145 1046 274 c 1,28,29
 1168 423 1168 423 1168 708.5 c 128,-1,30
 1168 994 1168 994 1045 1177 c 128,-1,31
 922 1360 922 1360 744 1360 c 128,-1,32
 566 1360 566 1360 449 1212 c 128,-1,33
 332 1064 332 1064 332 823 c 0,34,35
 332 318 332 318 581 187 c 0,24,25
EndSplineSet
EndChar

StartChar: Otilde
Encoding: 213 213 151
Width: 1501
Flags: HW
HStem: -20 165<580.728 942.531> 1360 164.5<572.984 900.354> 1604 168<802.305 1001.08> 1737 180<485.691 590 592 696.406>
VStem: 102 230<462.361 1064.53> 1168 230<415.179 1011.9>
LayerCount: 2
Fore
SplineSet
421 1627 m 1,0,1
 382 1628 382 1628 355 1655 c 128,-1,2
 328 1682 328 1682 327 1719 c 1,3,4
 392 1836 392 1836 506 1893 c 0,5,6
 554 1917 554 1917 605.5 1917 c 128,-1,7
 657 1917 657 1917 693.5 1894.5 c 128,-1,8
 730 1872 730 1872 765 1844.5 c 128,-1,9
 800 1817 800 1817 835.5 1794.5 c 128,-1,10
 871 1772 871 1772 904.5 1772 c 128,-1,11
 938 1772 938 1772 963 1787.5 c 128,-1,12
 988 1803 988 1803 1009 1824 c 128,-1,13
 1030 1845 1030 1845 1047 1867 c 128,-1,14
 1064 1889 1064 1889 1078 1901 c 1,15,16
 1116 1901 1116 1901 1146 1872.5 c 128,-1,17
 1176 1844 1176 1844 1176 1809 c 1,18,19
 1122 1688 1122 1688 1008 1629 c 0,20,21
 960 1604 960 1604 911.5 1604 c 128,-1,22
 863 1604 863 1604 833.5 1614 c 0,23,24
 777.237 1633.07 777.237 1633.07 708.619 1684.54 c 128,-1,25
 640 1736 640 1736 592 1736 c 1,26,-1
 590 1737 l 1,27,28
 516 1736 516 1736 446 1654 c 0,29,30
 430 1636 430 1636 421 1627 c 1,0,1
288 161 m 0,31,32
 102 361 102 361 102 739 c 128,-1,33
 102 1117 102 1117 287.5 1321 c 128,-1,34
 473 1525 473 1525 775 1524.5 c 128,-1,35
 1077 1524 1077 1524 1237.5 1312 c 128,-1,36
 1398 1100 1398 1100 1398 725 c 128,-1,37
 1398 350 1398 350 1198 154 c 1,38,39
 1022 -20 1022 -20 738.5 -20 c 128,-1,40
 455 -20 455 -20 288 161 c 0,31,32
581 187 m 0,41,42
 660 145 660 145 752 145 c 0,43,44
 939 145 939 145 1046 274 c 1,45,46
 1168 423 1168 423 1168 708.5 c 128,-1,47
 1168 994 1168 994 1045 1177 c 128,-1,48
 922 1360 922 1360 744 1360 c 128,-1,49
 566 1360 566 1360 449 1212 c 128,-1,50
 332 1064 332 1064 332 823 c 0,51,52
 332 318 332 318 581 187 c 0,41,42
EndSplineSet
EndChar

StartChar: Odieresis
Encoding: 214 214 152
Width: 1501
Flags: HW
HStem: -20 165<580.728 942.531> 1360 164.5<572.984 900.354> 1620 276<424.162 619.776 870.694 1069.78>
VStem: 102 230<462.361 1064.53> 386 273<1660.22 1854.75> 839 272<1652.03 1855.78> 1168 230<415.179 1011.9>
LayerCount: 2
Fore
SplineSet
288 161 m 0,0,1
 102 361 102 361 102 739 c 128,-1,2
 102 1117 102 1117 287.5 1321 c 128,-1,3
 473 1525 473 1525 775 1524.5 c 128,-1,4
 1077 1524 1077 1524 1237.5 1312 c 128,-1,5
 1398 1100 1398 1100 1398 725 c 128,-1,6
 1398 350 1398 350 1198 154 c 1,7,8
 1022 -20 1022 -20 738.5 -20 c 128,-1,9
 455 -20 455 -20 288 161 c 0,0,1
581 187 m 0,10,11
 660 145 660 145 752 145 c 0,12,13
 939 145 939 145 1046 274 c 1,14,15
 1168 423 1168 423 1168 708.5 c 128,-1,16
 1168 994 1168 994 1045 1177 c 128,-1,17
 922 1360 922 1360 744 1360 c 128,-1,18
 566 1360 566 1360 449 1212 c 128,-1,19
 332 1064 332 1064 332 823 c 0,20,21
 332 318 332 318 581 187 c 0,10,11
386 1757 m 256,22,23
 386 1851 386 1851 466 1886 c 0,24,25
 490 1896 490 1896 537 1896 c 0,26,27
 584 1896 584 1896 622 1856 c 128,-1,28
 660 1816 660 1816 659 1757 c 257,29,30
 660 1698 660 1698 621 1659 c 128,-1,31
 582 1620 582 1620 521 1620 c 128,-1,32
 460 1620 460 1620 423 1659 c 128,-1,33
 386 1698 386 1698 386 1757 c 256,22,23
974 1620 m 256,34,35
 882 1620 882 1620 849 1702 c 0,36,37
 839 1727 839 1727 839 1757 c 256,38,39
 839 1852 839 1852 919 1886 c 0,40,41
 944 1896 944 1896 974 1896 c 256,42,43
 1032 1896 1032 1896 1071 1857 c 128,-1,44
 1110 1818 1110 1818 1111 1757 c 257,45,46
 1111 1663 1111 1663 1029 1630 c 0,47,48
 1004 1620 1004 1620 974 1620 c 256,34,35
EndSplineSet
EndChar

StartChar: multiply
Encoding: 215 215 153
Width: 1143
Flags: HW
LayerCount: 2
Fore
SplineSet
93 1004 m 1,0,1
 93 1087 93 1087 161 1108 c 0,2,3
 180 1114 180 1114 199 1114 c 1,4,-1
 568 762 l 1,5,-1
 943 1128 l 1,6,7
 1049 1122 1049 1122 1049 1022 c 1,8,-1
 679 657 l 1,9,-1
 1058 295 l 1,10,11
 1058 244 1058 244 1031 214 c 128,-1,12
 1004 184 1004 184 951 184 c 1,13,-1
 568 549 l 1,14,-1
 191 178 l 1,15,16
 153 178 153 178 119 210 c 128,-1,17
 85 242 85 242 85 285 c 1,18,-1
 460 653 l 1,19,-1
 93 1004 l 1,0,1
EndSplineSet
EndChar

StartChar: Oslash
Encoding: 216 216 154
Width: 1522
Flags: HW
HStem: -20 165<588.359 958.827> 1360 165<576.034 911.638>
VStem: 113 230<467.482 1063.12> 1179 230<425.612 1010.61>
LayerCount: 2
Fore
SplineSet
1274 1275 m 1,0,1
 1409 1068 1409 1068 1409 708.5 c 128,-1,2
 1409 349 1409 349 1210 154 c 0,3,4
 1033 -19 1033 -19 742 -20 c 0,5,6
 517 -20 517 -20 360 104 c 1,7,-1
 248 -39 l 1,8,9
 176 -66 176 -66 150 -66 c 2,10,11
 112 -66 l 1,12,13
 99 -64 99 -64 81 -60 c 128,-1,14
 63 -56 63 -56 63 -39 c 1,15,-1
 259 208 l 1,16,17
 113 403 113 403 113 731 c 0,18,19
 113 1117 113 1117 298.5 1321 c 128,-1,20
 484 1525 484 1525 785 1525 c 0,21,22
 1034 1525 1034 1525 1188 1379 c 1,23,-1
 1288 1506 l 1,24,25
 1342 1532 1342 1532 1374 1532 c 0,26,27
 1454 1532 1454 1532 1454 1506 c 1,28,-1
 1274 1275 l 1,0,1
1042 1196 m 1,29,30
 921 1360 921 1360 748.5 1360 c 128,-1,31
 576 1360 576 1360 459.5 1212.5 c 128,-1,32
 343 1065 343 1065 343 816 c 128,-1,33
 343 567 343 567 411 400 c 1,34,-1
 1042 1196 l 1,29,30
774 145 m 0,35,36
 1055 146 1055 146 1146 454 c 0,37,38
 1179 566 1179 566 1179 694 c 0,39,40
 1179 916 1179 916 1113 1069 c 1,41,-1
 489 270 l 1,42,43
 596 145 596 145 774 145 c 0,35,36
EndSplineSet
EndChar

StartChar: Ugrave
Encoding: 217 217 155
Width: 1545
Flags: HW
HStem: -20 165<618.824 979.102> 1364 141<46.3384 257.997 469 662.438 932.042 1126 1291 1482.08>
VStem: 258 211<317.858 1364> 1126 165<317.054 1364>
LayerCount: 2
Fore
SplineSet
82 1364 m 2,0,1
 48 1364 48 1364 41 1444 c 1,2,3
 41 1505 41 1505 67 1505 c 2,4,-1
 639 1505 l 2,5,6
 664 1505 664 1505 664 1434.5 c 128,-1,7
 664 1364 664 1364 629 1364 c 2,8,-1
 469 1364 l 1,9,-1
 469 578 l 2,10,11
 469 237 469 237 663 167 c 0,12,13
 724 145 724 145 804 145 c 0,14,15
 970 145 970 145 1048 248.5 c 128,-1,16
 1126 352 1126 352 1126 575 c 2,17,-1
 1126 1348 l 2,18,19
 1126 1364 1126 1364 1113 1364 c 2,20,-1
 969 1364 l 2,21,22
 940 1364 940 1364 930 1418 c 0,23,24
 928 1432 928 1432 928 1446 c 0,25,26
 928 1505 928 1505 954 1505 c 2,27,-1
 1470 1505 l 2,28,29
 1496 1505 1496 1505 1496 1449 c 128,-1,30
 1496 1393 1496 1393 1482.5 1378.5 c 128,-1,31
 1469 1364 1469 1364 1460 1364 c 2,32,-1
 1291 1364 l 1,33,-1
 1291 555 l 2,34,35
 1291 -20 1291 -20 772 -20 c 0,36,37
 492 -20 492 -20 375 125.5 c 128,-1,38
 258 271 258 271 258 569 c 2,39,-1
 258 1348 l 2,40,41
 258 1364 258 1364 245 1364 c 2,42,-1
 82 1364 l 2,0,1
447 1833 m 1,43,44
 447 1942 447 1942 537 1980 c 0,45,46
 562 1991 562 1991 578 1991 c 2,47,-1
 596 1991 l 1,48,-1
 869 1706 l 1,49,50
 868 1663 868 1663 840 1630.5 c 128,-1,51
 812 1598 812 1598 771 1598 c 1,52,-1
 447 1833 l 1,43,44
EndSplineSet
EndChar

StartChar: Uacute
Encoding: 218 218 156
Width: 1545
Flags: HW
HStem: -20 165<618.824 979.102> 1364 141<46.3384 257.997 469 662.438 932.042 1126 1291 1482.08>
VStem: 258 211<317.858 1364> 1126 165<317.054 1364>
LayerCount: 2
Fore
SplineSet
82 1364 m 2,0,1
 48 1364 48 1364 41 1444 c 1,2,3
 41 1505 41 1505 67 1505 c 2,4,-1
 639 1505 l 2,5,6
 664 1505 664 1505 664 1434.5 c 128,-1,7
 664 1364 664 1364 629 1364 c 2,8,-1
 469 1364 l 1,9,-1
 469 578 l 2,10,11
 469 237 469 237 663 167 c 0,12,13
 724 145 724 145 804 145 c 0,14,15
 970 145 970 145 1048 248.5 c 128,-1,16
 1126 352 1126 352 1126 575 c 2,17,-1
 1126 1348 l 2,18,19
 1126 1364 1126 1364 1113 1364 c 2,20,-1
 969 1364 l 2,21,22
 940 1364 940 1364 930 1418 c 0,23,24
 928 1432 928 1432 928 1446 c 0,25,26
 928 1505 928 1505 954 1505 c 2,27,-1
 1470 1505 l 2,28,29
 1496 1505 1496 1505 1496 1449 c 128,-1,30
 1496 1393 1496 1393 1482.5 1378.5 c 128,-1,31
 1469 1364 1469 1364 1460 1364 c 2,32,-1
 1291 1364 l 1,33,-1
 1291 555 l 2,34,35
 1291 -20 1291 -20 772 -20 c 0,36,37
 492 -20 492 -20 375 125.5 c 128,-1,38
 258 271 258 271 258 569 c 2,39,-1
 258 1348 l 2,40,41
 258 1364 258 1364 245 1364 c 2,42,-1
 82 1364 l 2,0,1
857 1598 m 1,43,44
 815 1598 815 1598 786.5 1630.5 c 128,-1,45
 758 1663 758 1663 758 1706 c 1,46,-1
 1031 1991 l 1,47,-1
 1034 1991 l 2,48,49
 1096 1991 1096 1991 1138 1947.5 c 128,-1,50
 1180 1904 1180 1904 1180 1833 c 1,51,-1
 857 1598 l 1,43,44
EndSplineSet
EndChar

StartChar: Ucircumflex
Encoding: 219 219 157
Width: 1545
Flags: HW
HStem: -20 165<618.824 979.102> 1364 141<46.3384 257.997 469 662.438 932.042 1126 1291 1482.08>
VStem: 258 211<317.858 1364> 1126 165<317.054 1364>
LayerCount: 2
Fore
SplineSet
556 1610 m 1,0,1
 522 1610 522 1610 497 1640 c 128,-1,2
 472 1670 472 1670 472 1710 c 1,3,-1
 728 1886 l 2,4,5
 769 1915 769 1915 801.5 1915 c 128,-1,6
 834 1915 834 1915 878 1886 c 1,7,-1
 1134 1710 l 1,8,9
 1134 1646 1134 1646 1083 1618 c 0,10,11
 1068 1610 1068 1610 1050 1610 c 1,12,-1
 804 1726 l 1,13,-1
 556 1610 l 1,0,1
82 1364 m 2,14,15
 48 1364 48 1364 41 1444 c 1,16,17
 41 1505 41 1505 67 1505 c 2,18,-1
 639 1505 l 2,19,20
 664 1505 664 1505 664 1434.5 c 128,-1,21
 664 1364 664 1364 629 1364 c 2,22,-1
 469 1364 l 1,23,-1
 469 578 l 2,24,25
 469 237 469 237 663 167 c 0,26,27
 724 145 724 145 804 145 c 0,28,29
 970 145 970 145 1048 248.5 c 128,-1,30
 1126 352 1126 352 1126 575 c 2,31,-1
 1126 1348 l 2,32,33
 1126 1364 1126 1364 1113 1364 c 2,34,-1
 969 1364 l 2,35,36
 940 1364 940 1364 930 1418 c 0,37,38
 928 1432 928 1432 928 1446 c 0,39,40
 928 1505 928 1505 954 1505 c 2,41,-1
 1470 1505 l 2,42,43
 1496 1505 1496 1505 1496 1449 c 128,-1,44
 1496 1393 1496 1393 1482.5 1378.5 c 128,-1,45
 1469 1364 1469 1364 1460 1364 c 2,46,-1
 1291 1364 l 1,47,-1
 1291 555 l 2,48,49
 1291 -20 1291 -20 772 -20 c 0,50,51
 492 -20 492 -20 375 125.5 c 128,-1,52
 258 271 258 271 258 569 c 2,53,-1
 258 1348 l 2,54,55
 258 1364 258 1364 245 1364 c 2,56,-1
 82 1364 l 2,14,15
EndSplineSet
EndChar

StartChar: Udieresis
Encoding: 220 220 158
Width: 1545
Flags: HW
HStem: -20 165<618.824 979.102> 1364 141<46.3384 257.997 469 662.438 932.042 1126 1291 1482.08> 1620 276<482.647 677.776 929.694 1129.78>
VStem: 258 211<317.858 1364> 445 273<1660.22 1854.75> 898 272<1652.03 1855.78> 1126 165<317.054 1364>
LayerCount: 2
Fore
SplineSet
82 1364 m 2,0,1
 48 1364 48 1364 41 1444 c 1,2,3
 41 1505 41 1505 67 1505 c 2,4,-1
 639 1505 l 2,5,6
 664 1505 664 1505 664 1434.5 c 128,-1,7
 664 1364 664 1364 629 1364 c 2,8,-1
 469 1364 l 1,9,-1
 469 578 l 2,10,11
 469 237 469 237 663 167 c 0,12,13
 724 145 724 145 804 145 c 0,14,15
 970 145 970 145 1048 248.5 c 128,-1,16
 1126 352 1126 352 1126 575 c 2,17,-1
 1126 1348 l 2,18,19
 1126 1364 1126 1364 1113 1364 c 2,20,-1
 969 1364 l 2,21,22
 940 1364 940 1364 930 1418 c 0,23,24
 928 1432 928 1432 928 1446 c 0,25,26
 928 1505 928 1505 954 1505 c 2,27,-1
 1470 1505 l 2,28,29
 1496 1505 1496 1505 1496 1449 c 128,-1,30
 1496 1393 1496 1393 1482.5 1378.5 c 128,-1,31
 1469 1364 1469 1364 1460 1364 c 2,32,-1
 1291 1364 l 1,33,-1
 1291 555 l 2,34,35
 1291 -20 1291 -20 772 -20 c 0,36,37
 492 -20 492 -20 375 125.5 c 128,-1,38
 258 271 258 271 258 569 c 2,39,-1
 258 1348 l 2,40,41
 258 1364 258 1364 245 1364 c 2,42,-1
 82 1364 l 2,0,1
445 1759 m 0,43,44
 445 1851 445 1851 524 1886 c 0,45,46
 548 1896 548 1896 595 1896 c 0,47,48
 642 1896 642 1896 680 1856 c 128,-1,49
 718 1816 718 1816 718 1757 c 256,50,51
 718 1698 718 1698 679 1659 c 128,-1,52
 640 1620 640 1620 579 1620 c 128,-1,53
 518 1620 518 1620 481.5 1659 c 128,-1,54
 445 1698 445 1698 445 1759 c 0,43,44
1033 1620 m 256,55,56
 941 1620 941 1620 908 1702 c 0,57,58
 898 1727 898 1727 898 1757 c 256,59,60
 898 1852 898 1852 978 1886 c 0,61,62
 1003 1896 1003 1896 1033 1896 c 256,63,64
 1092 1896 1092 1896 1131 1857 c 128,-1,65
 1170 1818 1170 1818 1170 1757 c 256,66,67
 1170 1663 1170 1663 1088 1630 c 0,68,69
 1063 1620 1063 1620 1033 1620 c 256,55,56
EndSplineSet
EndChar

StartChar: Yacute
Encoding: 221 221 159
Width: 1284
Flags: HW
HStem: 0 141<270.25 539.544 755 1010.53> 1364 141<-16.5632 107 379.026 510.532 817.921 986 1152 1296.21>
VStem: 544 211<166.25 559>
LayerCount: 2
Fore
SplineSet
268 0 m 2,0,1
 243 0 243 0 243 54 c 128,-1,2
 243 108 243 108 270 134 c 0,3,4
 278 142 278 142 286 141 c 1,5,-1
 435 141 l 2,6,7
 526 141 526 141 540 166 c 0,8,9
 544 174 544 174 544 184 c 2,10,-1
 544 559 l 1,11,-1
 107 1364 l 1,12,-1
 -5 1364 l 2,13,14
 -31 1364 -31 1364 -31 1418 c 128,-1,15
 -31 1472 -31 1472 -17 1488.5 c 128,-1,16
 -3 1505 -3 1505 8 1505 c 2,17,-1
 501 1505 l 1,18,19
 526 1504 526 1504 526 1450 c 128,-1,20
 526 1396 526 1396 511 1380 c 128,-1,21
 496 1364 496 1364 485 1364 c 0,22,23
 379 1364 379 1364 379 1329 c 0,24,25
 379 1319 379 1319 385 1307 c 2,26,-1
 670 735 l 1,27,-1
 986 1364 l 1,28,-1
 830 1364 l 2,29,30
 804 1364 804 1364 804 1419 c 128,-1,31
 804 1474 804 1474 817.5 1489.5 c 128,-1,32
 831 1505 831 1505 840 1505 c 2,33,-1
 1276 1505 l 1,34,35
 1301 1504 1301 1504 1301 1450 c 128,-1,36
 1301 1396 1301 1396 1277 1372 c 0,37,38
 1268 1364 1268 1364 1240 1364 c 0,39,40
 1174 1364 1174 1364 1152 1321 c 2,41,-1
 755 559 l 1,42,-1
 755 141 l 1,43,-1
 1000 141 l 1,44,45
 1026 140 1026 140 1026 86 c 128,-1,46
 1026 32 1026 32 1011 16 c 128,-1,47
 996 0 996 0 985 0 c 2,48,-1
 268 0 l 2,0,1
721 1598 m 1,49,50
 678 1598 678 1598 650 1630 c 128,-1,51
 622 1662 622 1662 622 1706 c 1,52,-1
 895 1991 l 1,53,-1
 898 1991 l 1,54,55
 960 1992 960 1992 1002 1948 c 128,-1,56
 1044 1904 1044 1904 1044 1833 c 1,57,-1
 721 1598 l 1,49,50
EndSplineSet
EndChar

StartChar: Thorn
Encoding: 222 222 160
Width: 1219
Flags: HW
HStem: 0 141<128.254 291 502 680.532> 334 154<502 788.562> 1028 154<502 771.561> 1364 141<78.042 291 502 715.438>
VStem: 291 211<148.5 334 488 1028 1182 1364> 924 233<604.23 905.65>
LayerCount: 2
Fore
SplineSet
125 0 m 2,0,1
 100 0 100 0 100 53 c 128,-1,2
 100 106 100 106 128 134 c 0,3,4
 136 142 136 142 162 142 c 0,5,6
 290 140 290 140 291 184 c 1,7,-1
 291 1348 l 2,8,9
 291 1364 291 1364 278 1364 c 2,10,-1
 115 1364 l 2,11,12
 86 1364 86 1364 76 1418 c 0,13,14
 74 1432 74 1432 74 1446 c 0,15,16
 74 1505 74 1505 100 1505 c 2,17,-1
 692 1505 l 2,18,19
 717 1505 717 1505 717 1434.5 c 128,-1,20
 717 1364 717 1364 682 1364 c 2,21,-1
 502 1364 l 1,22,-1
 502 1182 l 1,23,-1
 655 1182 l 2,24,25
 1016 1182 1016 1182 1122 964 c 0,26,27
 1157 894 1157 894 1157 800 c 2,28,-1
 1157 795 l 2,29,30
 1157 334 1157 334 502 334 c 1,31,-1
 502 141 l 1,32,-1
 670 141 l 2,33,34
 696 141 696 141 696 86.5 c 128,-1,35
 696 32 696 32 681 16 c 128,-1,36
 666 0 666 0 655 0 c 2,37,-1
 125 0 l 2,0,1
798 974 m 1,38,39
 697 1028 697 1028 502 1028 c 1,40,-1
 502 488 l 1,41,42
 708 488 708 488 804 536 c 1,43,44
 924 598 924 598 924 753.5 c 128,-1,45
 924 909 924 909 798 974 c 1,38,39
EndSplineSet
EndChar

StartChar: germandbls
Encoding: 223 223 161
Width: 1191
Flags: HW
HStem: -20 154<725.611 916.964> 1429 154<479.977 619 621 754.203>
VStem: 147 195<167.337 1263.33> 454 275<137.385 281.775> 551 195<659.625 871.199> 811 211<1103.11 1376.79> 950 194.5<171.643 372.394>
LayerCount: 2
Fore
SplineSet
725 143 m 1,0,1
 758 134 758 134 819.5 134 c 128,-1,2
 881 134 881 134 915.5 170.5 c 128,-1,3
 950 207 950 207 950 255 c 0,4,5
 950 370.231 950 370.231 824 430 c 1,6,-1
 750 464 l 2,7,8
 656 507 656 507 621 545 c 0,9,10
 551 620 551 620 551 732 c 0,11,12
 551 874 551 874 681 1002 c 0,13,14
 758 1078 758 1078 784.5 1134.5 c 128,-1,15
 811 1191 811 1191 811 1248 c 2,16,-1
 811 1253 l 2,17,18
 811 1348 811 1348 753.5 1388 c 128,-1,19
 696 1428 696 1428 621 1428 c 1,20,-1
 619 1429 l 1,21,22
 488 1429 488 1429 415 1317 c 128,-1,23
 342 1205 342 1205 342 1077 c 2,24,-1
 342 86 l 1,25,-1
 251 -14 l 1,26,27
 240 -20 240 -20 224 -20 c 256,28,29
 168 -20 168 -20 120 20 c 0,30,31
 106 32 106 32 102 44 c 1,32,-1
 147 225 l 1,33,-1
 147 1082 l 2,34,35
 147 1293 147 1293 258 1429 c 0,36,37
 383 1583 383 1583 614 1583 c 0,38,39
 888 1583 888 1583 986 1402 c 0,40,41
 1022 1336 1022 1336 1022 1257 c 128,-1,42
 1022 1178 1022 1178 1001.5 1130 c 128,-1,43
 981 1082 981 1082 950.5 1042.5 c 128,-1,44
 920 1003 920 1003 884 969.5 c 0,45,46
 746 841.083 746 841.083 746 776 c 0,47,48
 746 692 746 692 808 644 c 1,49,50
 836 624 836 624 872 606 c 2,51,-1
 946 569 l 2,52,53
 1042 521 1042 521 1076 479 c 1,54,55
 1145 397 1145 397 1144.5 270 c 128,-1,56
 1144 143 1144 143 1051 61.5 c 128,-1,57
 958 -20 958 -20 826 -20 c 128,-1,58
 694 -20 694 -20 601 18 c 0,59,60
 454 78 454 78 454 180 c 0,61,62
 454 244 454 244 493.5 283 c 128,-1,63
 533 322 533 322 592 322 c 256,64,65
 650 322 650 322 689.5 284 c 128,-1,66
 729 246 729 246 729 201.5 c 128,-1,67
 729 157 729 157 725 143 c 1,0,1
EndSplineSet
EndChar

StartChar: agrave
Encoding: 224 224 162
Width: 1045
Flags: HW
HStem: -16 157<304.065 607.886 871 1054.92> 0 141<874.19 1060.83> 429 150<341.17 676> 880 141<382.186 617.5>
VStem: 69 202<171.891 380.579> 116 274<722.224 879.186> 676 195<202.579 429 579 792.955>
LayerCount: 2
Fore
SplineSet
378 880 m 1,0,1
 390 854 390 854 390 807 c 128,-1,2
 390 760 390 760 351 721 c 128,-1,3
 312 682 312 682 253 681 c 257,4,5
 160 681 160 681 126 763 c 0,6,7
 116 788 116 788 116 824.5 c 0,8,9
 116 896.588 116 896.588 192 948 c 0,10,11
 302 1021 302 1021 532 1021 c 0,12,13
 715 1021 715 1021 802 910 c 0,14,15
 872 820 872 820 871 653 c 1,16,-1
 871 141 l 1,17,-1
 1039 141 l 2,18,19
 1066 141 1066 141 1066 82 c 0,20,21
 1066 56 1066 56 1056 30.5 c 128,-1,22
 1046 5 1046 5 1025 0 c 0,23,24
 969 -16 969 -16 864.5 -16 c 128,-1,25
 760 -16 760 -16 748 -12.5 c 128,-1,26
 736 -9 736 -9 721.5 4 c 128,-1,27
 707 17 707 17 688 69 c 1,28,29
 566 -20 566 -20 403 -20 c 128,-1,30
 240 -20 240 -20 154.5 59 c 128,-1,31
 69 138 69 138 69 261 c 0,32,33
 69 417 69 417 175 498 c 128,-1,34
 281 579 281 579 429 579 c 2,35,-1
 676 579 l 1,36,37
 676 746 676 746 648.5 794.5 c 128,-1,38
 621 843 621 843 582.5 861.5 c 128,-1,39
 544 880 544 880 480 880 c 2,40,-1
 378 880 l 1,0,1
430 134 m 0,41,42
 556 134 556 134 676 234 c 1,43,-1
 676 429 l 1,44,-1
 472 429 l 2,45,46
 377 429 377 429 340 402 c 1,47,48
 271 354 271 354 271 291 c 0,49,50
 271 173 271 173 369 143 c 0,51,52
 398 134 398 134 430 134 c 0,41,42
210 1423 m 1,53,54
 210 1532 210 1532 300 1570 c 0,55,56
 324 1581 324 1581 340 1581 c 2,57,-1
 359 1581 l 1,58,-1
 632 1296 l 1,59,60
 632 1253 632 1253 604 1220.5 c 128,-1,61
 576 1188 576 1188 534 1188 c 1,62,-1
 210 1423 l 1,53,54
EndSplineSet
EndChar

StartChar: aacute
Encoding: 225 225 163
Width: 1045
Flags: HW
HStem: -16 157<304.065 607.886 871 1054.92> 0 141<874.19 1060.83> 429 150<341.17 676> 880 141<382.186 617.5>
VStem: 69 202<171.891 380.579> 116 274<722.224 879.186> 676 195<202.579 429 579 792.955>
LayerCount: 2
Fore
SplineSet
378 880 m 1,0,1
 390 854 390 854 390 807 c 128,-1,2
 390 760 390 760 351 721 c 128,-1,3
 312 682 312 682 253 681 c 257,4,5
 160 681 160 681 126 763 c 0,6,7
 116 788 116 788 116 824.5 c 0,8,9
 116 896.588 116 896.588 192 948 c 0,10,11
 302 1021 302 1021 532 1021 c 0,12,13
 715 1021 715 1021 802 910 c 0,14,15
 872 820 872 820 871 653 c 1,16,-1
 871 141 l 1,17,-1
 1039 141 l 2,18,19
 1066 141 1066 141 1066 82 c 0,20,21
 1066 56 1066 56 1056 30.5 c 128,-1,22
 1046 5 1046 5 1025 0 c 0,23,24
 969 -16 969 -16 864.5 -16 c 128,-1,25
 760 -16 760 -16 748 -12.5 c 128,-1,26
 736 -9 736 -9 721.5 4 c 128,-1,27
 707 17 707 17 688 69 c 1,28,29
 566 -20 566 -20 403 -20 c 128,-1,30
 240 -20 240 -20 154.5 59 c 128,-1,31
 69 138 69 138 69 261 c 0,32,33
 69 417 69 417 175 498 c 128,-1,34
 281 579 281 579 429 579 c 2,35,-1
 676 579 l 1,36,37
 676 746 676 746 648.5 794.5 c 128,-1,38
 621 843 621 843 582.5 861.5 c 128,-1,39
 544 880 544 880 480 880 c 2,40,-1
 378 880 l 1,0,1
430 134 m 0,41,42
 556 134 556 134 676 234 c 1,43,-1
 676 429 l 1,44,-1
 472 429 l 2,45,46
 377 429 377 429 340 402 c 1,47,48
 271 354 271 354 271 291 c 0,49,50
 271 173 271 173 369 143 c 0,51,52
 398 134 398 134 430 134 c 0,41,42
522 1188 m 1,53,54
 480 1188 480 1188 451.5 1220.5 c 128,-1,55
 423 1253 423 1253 423 1296 c 1,56,-1
 696 1581 l 1,57,-1
 699 1581 l 2,58,59
 761 1581 761 1581 803 1537.5 c 128,-1,60
 845 1494 845 1494 845 1423 c 1,61,-1
 522 1188 l 1,53,54
EndSplineSet
EndChar

